<?xml version="1.0" encoding="UTF-8" standalone="no"?>
<svg
   xmlns:dc="http://purl.org/dc/elements/1.1/"
   xmlns:cc="http://creativecommons.org/ns#"
   xmlns:rdf="http://www.w3.org/1999/02/22-rdf-syntax-ns#"
   xmlns:svg="http://www.w3.org/2000/svg"
   xmlns="http://www.w3.org/2000/svg"
   xmlns:sodipodi="http://sodipodi.sourceforge.net/DTD/sodipodi-0.dtd"
   xmlns:inkscape="http://www.inkscape.org/namespaces/inkscape"
   width="210mm"
   height="297mm"
   viewBox="0 0 210 297"
   version="1.1"
   id="svg8"
   inkscape:version="1.0.1 (c497b03c, 2020-09-10)"
   sodipodi:docname="ElephantLogo.svg">
  <defs
     id="defs2" />
  <sodipodi:namedview
     id="base"
     pagecolor="#ffffff"
     bordercolor="#666666"
     borderopacity="1.0"
     inkscape:pageopacity="0.0"
     inkscape:pageshadow="2"
     inkscape:zoom="0.35"
     inkscape:cx="348.57143"
     inkscape:cy="560"
     inkscape:document-units="mm"
     inkscape:current-layer="layer1"
     inkscape:document-rotation="0"
     showgrid="false"
     inkscape:window-width="1252"
     inkscape:window-height="1174"
     inkscape:window-x="3122"
     inkscape:window-y="81"
     inkscape:window-maximized="0" />
  <metadata
     id="metadata5">
    <rdf:RDF>
      <cc:Work
         rdf:about="">
        <dc:format>image/svg+xml</dc:format>
        <dc:type
           rdf:resource="http://purl.org/dc/dcmitype/StillImage" />
        <dc:title></dc:title>
      </cc:Work>
    </rdf:RDF>
  </metadata>
  <g
     inkscape:label="Layer 1"
     inkscape:groupmode="layer"
     id="layer1">
    <path
       id="path32713"
       style="fill:#000000;stroke-width:0.352778"
       d="m 440.79584,376.81705 c 0.87002,-1.2567 0.42669,1.28979 0,0 z m 35.98334,-7.05556 c 0.87004,-1.2567 0.42664,1.28981 0,0 z M 4.9220391,275.20664 c -7.3743188,-2.44345 -18.5067971,0.52065 -22.7562471,-8.54237 -4.805559,-6.13604 -8.436108,-10.8766 -10.191795,-19.48572 -1.029982,-5.33313 4.081921,-13.25802 4.478239,-16.87378 3.380494,-4.68775 8.577295,-8.61001 14.9166035,-9.68025 6.2367177,0.49024 14.8025723,3.53231 17.5474936,5.55653 3.5938029,-2.24423 8.6199269,-7.60176 12.7230549,-10.93538 7.871288,-5.65224 10.492567,-8.0311 21.180658,-3.72039 9.084063,7.97929 5.680817,20.71913 -0.839493,29.25829 -1.729539,5.76434 -4.855139,7.39247 -8.350892,11.02057 -3.148455,5.2014 -6.421335,8.12818 -8.935215,10.53662 -1.948856,2.12769 -8.911909,7.52561 -13.079173,10.85504 -2.410963,1.10466 -3.9164522,2.7017 -6.6932339,2.01084 z m -1.042155,-9.56532 c 6.3107339,-2.16784 12.9198079,-8.79444 15.4427589,-14.26922 8.179039,-6.19975 15.157917,-15.02346 19.312259,-24.4902 3.719087,-10.55693 -11.925503,-9.02908 -14.093556,-0.87461 -6.522551,4.79436 -5.844711,13.40102 -11.631424,17.69996 -5.3128389,3.69827 -6.86704,-6.98761 -11.3760224,-9.16205 -1.82206626,-3.64005 -6.9310836,-5.74927 -11.2038461,-4.22535 -7.4583415,5.26164 -11.7765255,17.66302 -5.6907665,25.5187 3.153067,3.81332 6.1498054,9.2979 10.8659405,9.06626 1.3303924,1.06198 6.0785061,0.43148 8.3746566,0.73651 z M -14.640271,236.4115 c 0.870037,-1.2567 0.426658,1.2898 0,0 z m 46.566667,-16.58056 c 0.870054,-1.2567 0.426633,1.28982 0,0 z M 0.35278414,231.82539 c -0.42661561,-1.2898 -0.87007025,1.25667 0,0 z M 26.629356,223.41213 c -2.02774,1.39906 -0.07483,1.47452 0,0 z m 104.411834,47.4273 c -5.11933,-0.83026 -9.15262,-2.22053 -11.97473,-7.74287 -2.16259,-5.91851 -3.69564,-16.64242 -3.6377,-27.21423 -6.94814,-2.4186 -15.961645,-1.89737 -23.353363,-4.66032 -6.610396,-1.57415 -10.609682,-2.63034 -15.09704,-3.75288 -4.099768,-0.82471 -12.395916,-5.1047 -17.08278,-6.53851 -3.783429,-1.25577 -9.581902,-5.0325 -11.355796,-7.04356 -2.988279,-1.83672 -7.706433,-7.67553 -12.386832,-9.45319 -5.909564,-6.59089 -15.10147,0.60791 -23.100168,-1.19607 -5.4378499,-0.49731 -9.6381257,0.90718 -14.4985669,0.57933 -4.9524954,-0.32386 -11.8183911,-0.48642 -16.5458771,-1.99515 -5.762221,-3.86013 -9.089162,-9.04019 -13.646447,-13.32546 -3.34973,-3.85285 -0.237782,-9.81831 0.768939,-15.95047 0.826749,-7.81691 8.680075,-6.64242 10.973697,-1.36778 4.941212,1.67862 10.3577475,7.471 14.2510825,5.01095 6.8762156,-0.42945 14.4643562,-4.23538 22.0966275,-5.92099 6.978965,-4.64634 0.366429,-16.46813 3.712304,-22.28373 4.406896,-8.66613 6.203245,-18.33009 11.333104,-27.00352 -3.033231,-1.26544 -13.543046,5.30317 -19.70852,5.05847 -12.5766246,0.19479 -25.098201,-3.5856 -35.505038,-8.86633 -7.673233,-5.16181 -14.811609,-12.65403 -17.556094,-21.17595 -2.154584,-5.675352 -2.586315,-15.457264 0.141612,-20.62424 3.461935,-18.598437 19.275878,-31.723551 29.576964,-46.32407 8.894146,-10.247534 23.819626,-15.605862 36.480015,-16.13956 5.765386,-0.429917 15.519594,1.877409 20.342376,4.33902 3.671442,0.765342 10.644733,5.96045 12.731467,11.20064 6.984749,9.176419 1.693211,19.579266 -3.188832,6.63014 C 51.098103,26.615493 44.50938,22.996486 36.77709,19.86682 19.988263,16.86102 -0.42916911,21.048921 -9.5223085,36.73934 -15.626992,44.312689 -20.175924,49.747243 -25.552221,55.91447 c -3.456367,6.116209 -7.81773,12.971578 -9.227848,20.55763 -5.385638,15.863569 5.942706,32.21791 21.203145,36.82814 3.6753193,-0.25453 12.3176096,5.32171 19.3745721,4.24407 9.9159469,2.38324 16.0660039,-2.54771 25.2833579,-6.9424 4.368477,0.91659 4.459681,6.32197 11.252354,5.84106 1.061961,3.91791 -4.892108,6.88321 -5.949423,11.45951 -4.171951,10.24802 -8.566603,21.54905 -8.249892,32.31029 -3.373432,10.50298 6.68954,1.257 7.407323,3.50698 13.471504,-8.77271 24.114441,-21.45604 39.884902,-26.5273 8.177307,-5.424 20.218347,-4.26815 27.35966,-2.91041 4.18304,1.47247 6.75719,-0.12682 10.80854,3.03777 7.24433,0.3212 9.23992,8.10282 3.21592,9.02268 -6.14806,-2.59229 -2.82097,6.5838 -3.56477,8.58433 4.13835,13.54567 -10.77182,5.43942 -17.423203,7.01285 -6.990308,0.88904 -13.167186,7.75226 -21.386277,10.60814 -6.906893,2.06656 -11.84073,8.43912 -17.021527,10.15343 -4.968981,4.43614 -11.095814,9.01235 -17.068689,11.29383 -1.412516,3.96102 8.953172,7.18154 9.307533,10.27203 4.875717,3.22656 10.879372,8.05691 18.432624,10.63385 3.816616,0.61487 10.316523,4.52314 15.169438,4.33039 4.469532,1.64895 13.374019,2.59876 17.194771,4.24791 11.2796,3.59188 18.46808,0.80557 28.48996,2.08676 6.73428,0.44511 7.67036,-0.0697 11.13822,-0.20399 4.66334,2.13563 15.39946,0.59656 14.52856,0.38385 8.15478,-0.95094 12.60548,-1.57042 18.95962,-4.15106 7.8881,-2.39799 15.22236,-4.74072 22.225,-8.98751 12.49199,-11.14132 30.00725,-21.41947 30.91272,-40.35611 2.60614,-12.52723 2.32513,-27.22386 -4.77202,-38.17565 -0.003,-2.25772 6.48033,-7.3447 11.10099,-7.33966 8.25549,-1.18708 10.87374,1.52421 17.61926,-2.12 2.81423,0.0545 7.68218,-1.12025 11.11391,-6.12029 3.81498,-4.63558 7.63797,-14.45638 10.29257,-21.78402 3.19548,-19.279958 -2.51195,-40.555436 -14.87075,-55.3646 -8.7773,-13.485935 -24.51511,-18.700356 -40.05359,-18.32417 -12.51905,4.116374 -28.03859,7.399535 -33.93405,20.69233 -5.41661,14.133946 -9.74861,-6.746259 -16.68956,-8.13162 -18.83855,-14.023958 -45.62197,-11.403983 -66.741163,-3.78302 -10.58633,2.61824 -21.404903,6.562342 -28.15606,14.81672 -4.209568,7.32713 -14.559649,6.463826 -9.876054,1.78853 3.921519,-7.075077 12.352222,-13.809046 19.048282,-18.11298 9.775214,-2.89545 20.826475,-8.111837 30.759195,-9.45478 10.89967,-3.324118 21.89397,-2.68704 33.09358,-2.40983 1.53933,0.51322 10.81238,1.59836 15.74744,4.02333 4.22723,2.124642 6.55357,3.041974 10.22978,6.34812 2.97291,0.480886 4.51364,7.050558 9.47077,5.727701 5.69657,-5.69404 9.85606,-8.995545 17.04852,-11.501491 8.32027,-3.543753 15.40203,-6.139803 23.37308,-7.93557 3.36351,1.41882 11.24618,0.57807 17.08736,2.95158 7.68632,2.966422 14.1182,5.361367 18.67521,12.471923 6.57297,3.974528 10.27205,12.900319 14.79775,19.278107 5.06148,11.34784 9.11717,20.009514 9.32833,32.63194 0.6614,8.906814 -0.082,15.318309 -3.31163,23.25301 0.51338,3.64957 -4.55354,9.3385 -5.60463,12.7721 -2.40883,2.74081 -6.32714,9.40519 -9.73229,10.00025 -0.26759,1.29876 -13.26812,5.49644 -19.84619,5.86955 -3.02288,1.41626 -12.68806,-4.59157 -9.65626,2.75489 3.23832,5.98071 5.45691,16.52079 4.13611,24.62985 0.0314,3.39141 -0.93167,11.65101 -2.06789,16.31533 0.0268,6.01057 -4.80388,12.83007 -7.12752,16.58847 -4.67602,5.82826 -7.71394,6.76737 -1.10811,11.67377 3.43054,6.50427 8.35528,3.95836 15.43477,1.4098 6.32282,-2.46314 11.76906,-5.26212 19.04813,-8.53307 9.0428,-6.70106 11.26446,10.05305 2.86757,8.20722 -2.39325,0.50511 -6.0622,3.96554 -10.69717,4.92156 -5.46571,2.94569 -11.11666,4.20008 -13.75325,6.17908 -5.27193,-0.5315 -4.11574,5.21443 -2.54744,8.65408 1.71699,8.24264 1.22207,14.25906 -2.83006,17.13252 -5.89881,5.15347 -8.38165,5.13995 -14.52641,7.26166 -6.19115,0.71709 -12.69765,-2.3168 -17.42355,3.9669 -5.97171,2.94952 -12.09037,5.22281 -16.70928,-1.04809 -5.07622,2.00216 -8.02973,8.81154 -13.47802,10.01765 -6.64779,1.1353 -13.53444,-2.33881 -16.06554,-5.45925 -2.43468,-3.42876 -7.25528,7.19559 -12.87641,8.16857 -1.94752,2.1664 -9.33442,3.23452 -11.48089,3.67979 z m 1.52294,-8.5519 c 5.7934,-2.43591 18.82668,-8.83291 18.79113,-19.53443 5.68936,-11.02886 9.1376,5.79416 11.3146,10.68227 4.68592,5.09294 12.33556,1.28302 15.05439,-4.73039 0.28566,-6.11903 4.03851,-12.65022 8.97772,-7.28059 1.97834,3.46591 2.8456,3.51197 6.22651,8.36427 9.72532,0.92229 9.00877,-13.52423 16.42804,-10.10743 6.41469,8.30035 24.03881,0.0574 19.82116,-10.84655 -2.88673,-6.58373 -3.80617,-15.01079 -11.8877,-19.07744 -6.67355,-1.38724 -12.07182,7.3945 -18.08222,10.20078 -5.21806,2.69321 -6.88715,4.60231 -13.3143,7.28132 -7.61338,0.94034 -15.94719,7.13708 -24.78324,7.22702 -4.89084,0.8553 -12.84022,1.32626 -15.90368,0.97503 -6.97126,1.2473 -25.26826,-5.93697 -20.49921,5.07208 -0.5311,6.52085 1.18113,11.82258 2.32505,19.04109 1.72861,1.4374 2.45703,4.24962 5.53175,2.73297 z m -2.56551,-0.47603 c 0.42665,-1.2898 0.87005,1.25666 0,0 z m 81.9253,-20.67426 c -1.17425,-1.7956 1.57631,-0.50526 0,0 z m -50.093,-6.18063 c 1.89406,-1.0511 -0.85957,1.08419 0,0 z m 12.44131,-3.484 c 0.87004,-1.2567 0.42667,1.28981 0,0 z m 28.86163,-13.99932 c 1.54646,-0.50532 0.15283,0.67929 0,0 z m -13.69218,39.75209 c -0.87006,-1.25667 -0.42664,1.28979 0,0 z m 18.09386,-17.63888 c -1.19751,-2.52724 -0.28924,2.54347 0,0 z m 19.82975,0.35277 c -0.42668,-1.28979 -0.87002,1.2567 0,0 z m -56.09167,-8.11388 c -1.26583,-1.34308 -0.43816,1.39076 0,0 z m -96.131947,-5.99723 c -0.87007,-1.25667 -0.426616,1.2898 0,0 z m 119.944447,-4.58611 c -0.42669,-1.28979 -0.87002,1.2567 0,0 z m 39.86389,-0.15557 c -0.82329,-1.2117 -1.01607,0.67225 0,0 z m -36.5125,-0.90276 c -0.42667,-1.28981 -0.87004,1.2567 0,0 z M 57.038214,218.70646 c -0.679103,0.15302 0.505366,1.54637 0,0 z m -13.293763,-9.45885 c -0.901326,-1.26558 -0.901326,1.26558 0,0 z m -48.7346135,-13.3434 c 9.4097691,5.06156 5.38622251,-18.0886 -1.194032,-11.01533 -8.7464515,-2.90524 -10.4825835,9.65844 -1.576911,11.35381 0.8332733,-1.17167 0.9454184,3.18157 2.770943,-0.33848 z m 23.3206075,-0.77173 c 9.851295,1.79507 6.778181,-6.15207 4.058655,-11.55648 0.191209,-8.23956 -10.404841,-5.15716 -12.9067809,-2.04777 -6.8444486,5.67227 1.9213309,16.17904 8.8481259,13.60425 z m 18.926328,-7.36316 c 4.149699,-1.2815 15.932009,-10.12195 8.779845,-9.43892 -2.297402,-0.51827 -2.772373,-9.0217 -7.278871,-8.74239 -7.968998,2.33281 -12.322196,7.44945 -6.654961,16.02349 1.118484,1.63544 2.720305,4.25612 5.153987,2.15782 z m 9.3099,-6.39115 c 0.870037,-1.2567 0.426658,1.2898 0,0 z M 35.98334,171.50039 c 0.870055,-1.2567 0.426635,1.28982 0,0 z m -57.117537,12.43541 c 1.441851,-13.25254 -7.716388,1.37323 1.8e-5,0 z m 1.20226,0.61737 c -0.426616,-1.2898 -0.87007,1.25667 0,0 z m 68.968055,-6.35 c -0.901303,-1.26557 -0.901354,1.26556 0,0 z m 1.539476,-1.04757 c -2.504718,2.25514 0.352494,0.92771 0,0 z m 2.850398,-2.60017 c 3.654616,0.58677 10.027516,-6.51364 15.189292,-7.41595 2.000518,-3.45245 -4.170838,-7.22429 -2.459182,-11.06062 6.811367,-7.43045 3.17012,9.03206 13.492311,5.74213 4.346361,-1.05467 8.266072,-8.62601 5.194023,-14.79651 2.798806,-9.84232 9.624559,11.06301 18.541414,7.37263 3.66428,-4.27066 3.5754,-14.87138 -4.247881,-14.44136 -7.555092,0.56032 -9.751316,0.90669 -16.832581,3.20163 -7.634586,2.78444 -15.515698,5.68672 -20.738963,10.35114 -5.403773,4.30307 -16.390592,8.73656 -13.18659,17.7223 1.409896,3.00411 4.446695,2.24734 5.048157,3.32461 z m 16.681249,-11.02929 c -1.396933,-0.74126 -0.329631,0.79502 0,0 z m -1.62457,-0.93927 c -1.17249,-0.91307 1.115537,1.92423 0,0 z m -0.92572,-2.37537 c -0.426635,-1.28982 -0.870055,1.2567 0,0 z m 1.229321,-5.09451 c -2.976324,-0.89838 -0.479689,2.76599 0,0 z M 82.197229,134.8115 c -0.426635,-1.28982 -0.870055,1.2567 0,0 z M 195.13113,23.80514 c 0.98726,-1.600021 -2.62267,1.90753 0,0 z m -51.90334,-5.05752 c -0.90133,-1.265582 -0.90133,1.265582 0,0 z m 2.11666,246.94443 c 0.87004,-1.2567 0.42667,1.28981 0,0 z m -165.573454,-0.51121 c 1.009953,-1.23719 1.076342,1.63751 0,0 z M 214.85191,252.65307 c -1.25876,-1.75623 1.99533,1.25432 0,0 z m 7.75088,-1.77769 c 0.90135,-1.26557 0.9013,1.26558 0,0 z m -107.06806,-5.99722 c 0.42669,-1.28979 0.87002,1.2567 0,0 z M 84.843062,230.0615 c 0.438082,-1.39077 1.26588,1.34307 0,0 z m 64.734728,-4.0192 c 0.16078,-0.94732 2.08606,0.31626 0,0 z m -35.98334,-1.27247 c 0.87004,-1.2567 0.42666,1.28981 0,0 z m 12.7,0.0208 c 0.66945,-1.77637 1.09576,1.27942 0,0 z m 133.70278,-15.54302 c 0.90133,-1.26558 0.90133,1.26558 0,0 z m -23.98889,-0.70556 c 0.87005,-1.25666 0.42665,1.2898 0,0 z m 32.80834,-3.50696 c 0.6182,-1.8554 0.54844,1.29639 0,0 z m -294.5416,-10.16317 c 1.333564,-0.80416 1.082601,1.82672 0,0 z m 67.529093,-1.49931 c 0.426635,-1.28982 0.870055,1.2567 0,0 z m 174.977777,0 c 0.87004,-1.2567 0.42667,1.28981 0,0 z m -248.884722,-3.72499 c 1.082385,-1.25062 0.20789,1.73852 0,0 z m 83.283408,-1.41968 c 0.509159,-0.93955 0.157381,1.52098 0,0 z m 77.814084,-8.15779 c -6.13582,-1.81235 -13.87792,-15.18236 -3.61406,-15.62532 2.17127,3.13882 2.72004,7.00747 7.70501,6.23082 6.37982,5.85024 7.79675,-16.99939 14.55208,-6.93637 1.98736,2.83148 0.39299,6.28875 -0.19093,9.84196 -2.6857,3.05354 -9.54433,7.72033 -17.73778,5.70808 -0.0965,0.71437 1.80109,1.10969 -0.71432,0.78083 z m -0.0544,-1.16143 c -1.75977,-1.28062 -0.93581,1.36056 0,0 z m -132.4680619,-3.175 c 0.8700546,-1.2567 0.4266349,1.28982 0,0 z M 91.016707,163.36568 c 1.016076,-0.67226 0.823267,1.21173 0,0 z m 30.041813,-21.49862 c 0.30872,-1.59013 0.30873,1.59011 0,0 z m 42.22401,-8.1228 c -17.12629,-3.25865 -13.57436,-27.03784 -5.84479,-37.955691 2.76144,-0.956514 5.78591,-6.381714 12.43432,-4.706019 4.17873,0.862949 3.07517,5.278724 4.73652,6.869 2.56803,4.10652 4.28177,20.05697 -0.68197,27.34078 -2.24062,3.58221 -7.58879,6.56997 -10.64408,8.45193 z M 159.61689,94.972 c -0.12881,-1.737482 -1.12448,1.173625 0,0 z m 71.98173,38.78117 c 1.26585,-1.34308 0.43814,1.39078 0,0 z M 96.394577,132.01868 c -5.078536,-2.03776 -9.523907,-7.3502 -9.6837,-11.33757 -0.496396,-10.26693 1.616586,-21.803244 9.095194,-29.321375 6.867179,-4.648262 15.669329,2.527818 16.781829,8.436285 3.31271,7.81599 0.7182,18.66935 -0.98348,24.99101 -1.69511,2.97373 -6.4205,3.89171 -10.25816,6.8495 -1.09707,-1.71927 -4.169849,1.68432 -4.951683,0.38215 z m 163.955433,-2.16689 c 1.01607,-0.67225 0.82326,1.21171 0,0 z m -154.93559,-0.22016 c 1.54642,-0.50531 0.15287,0.67896 0,0 z M 42.803709,118.39182 c 0.536979,-1.67193 0.916992,1.26306 0,0 z M 29.63334,110.33119 c 1.377291,-1.15028 1.413927,0.62624 0,0 z m 82.90278,-11.50302 c 0.87005,-1.256665 0.42665,1.2898 0,0 z M 59.090284,53.67262 c 0.870055,-1.256703 0.426635,1.289817 0,0 z m 0.176389,-1.03751 c 0.6694,-1.776377 1.095788,1.279356 0,0 z m -0.705556,-2.50134 c 0.92543,-3.987122 2.036341,-0.299298 0,0 z M 58.20834,46.96984 c 1.356198,-1.264762 0.904192,1.306648 0,0 z m -0.96139,-1.05762 c 1.537412,-2.03478 1.036473,1.793433 0,0 z m 1.727362,-0.74062 c -1.249599,-3.009267 2.26214,2.719509 0,0 z m 1.086111,-0.14056 c 0.569261,-10.162441 1.949075,2.126796 0,0 z m -2.028472,-1.58897 c 0.870035,-1.256701 0.426658,1.289796 0,0 z m -0.04435,-1.57587 c -0.535004,-3.142035 1.132077,1.948961 0,0 z m 1.984625,0.0981 c 1.337197,-3.10262 2.143595,-0.211255 0,0 z m -2.822222,-2.40277 c 0.901328,-1.265581 0.901328,1.265581 0,0 z M 127.35279,18.26167 c 0.96369,-1.908115 1.55654,0.509479 0,0 z" />
  </g>
</svg>
