<?xml version="1.0" encoding="UTF-8" standalone="no"?>
<svg
   xmlns:dc="http://purl.org/dc/elements/1.1/"
   xmlns:cc="http://creativecommons.org/ns#"
   xmlns:rdf="http://www.w3.org/1999/02/22-rdf-syntax-ns#"
   xmlns:svg="http://www.w3.org/2000/svg"
   xmlns="http://www.w3.org/2000/svg"
   xmlns:sodipodi="http://sodipodi.sourceforge.net/DTD/sodipodi-0.dtd"
   xmlns:inkscape="http://www.inkscape.org/namespaces/inkscape"
   width="122.582mm"
   height="100.25346mm"
   viewBox="0 0 122.582 100.25346"
   version="1.1"
   id="svg8"
   sodipodi:docname="JanetElephant2.svg"
   inkscape:version="1.0.1 (c497b03c, 2020-09-10)">
  <defs
     id="defs2" />
  <sodipodi:namedview
     id="base"
     pagecolor="#ffffff"
     bordercolor="#666666"
     borderopacity="1.0"
     inkscape:pageopacity="0.0"
     inkscape:pageshadow="2"
     inkscape:zoom="2.2728153"
     inkscape:cx="243.71846"
     inkscape:cy="189.45536"
     inkscape:document-units="mm"
     inkscape:current-layer="layer1"
     inkscape:document-rotation="0"
     showgrid="false"
     inkscape:window-width="1852"
     inkscape:window-height="1174"
     inkscape:window-x="397"
     inkscape:window-y="82"
     inkscape:window-maximized="0"
     fit-margin-top="10"
     fit-margin-left="10"
     fit-margin-right="10"
     fit-margin-bottom="10" />
  <metadata
     id="metadata5">
    <rdf:RDF>
      <cc:Work
         rdf:about="">
        <dc:format>image/svg+xml</dc:format>
        <dc:type
           rdf:resource="http://purl.org/dc/dcmitype/StillImage" />
        <dc:title></dc:title>
      </cc:Work>
    </rdf:RDF>
  </metadata>
  <g
     inkscape:label="Layer 1"
     inkscape:groupmode="layer"
     id="layer1"
     transform="translate(6.0620095,6.0004806)">
    <path
       id="path1269"
       style="fill:#333333;fill-opacity:1;stroke-width:0.264583"
       d="m 60.949812,30.788683 c -0.151228,0.08701 -0.301221,0.175411 -0.450097,0.26529 -5.754546,3.591733 -9.009669,10.942016 -7.471502,17.5946 0.479942,2.121322 1.559044,4.097078 3.166779,5.573818 1.095211,1.15094 2.365208,2.12118 3.759249,2.87835 1.023801,0.85916 2.433657,1.04158 3.660837,1.49352 0.834752,0.0281 0.09571,0.8359 0.01044,1.30792 -0.198439,0.75531 -0.769902,1.36771 -1.576962,1.4296 -3.22114,0.74554 -6.61327,1.64834 -9.907382,0.81091 -0.737599,-0.1698 -1.382379,-0.59271 -2.075286,-0.83601 -1.099575,0.10279 -0.974492,1.66625 -0.278139,2.21266 0.534931,0.52367 1.213458,0.85578 1.884728,1.16741 -0.07388,0.86228 -0.155126,1.78231 0.20391,2.59491 -0.891117,-0.0928 -1.875591,-0.18109 -2.559596,-0.80464 -0.553451,-0.33425 -1.616153,-0.30384 -1.580827,0.54752 0.03346,1.28391 1.454809,1.84002 2.475602,2.22495 3.046643,1.05192 6.406196,0.95704 9.452812,-0.0448 1.469648,-0.42695 2.880695,-1.02701 4.263468,-1.67744 1.418116,2.67221 3.317722,5.27037 6.117946,6.60408 1.474502,0.70911 3.100221,1.0658 4.719985,1.23407 -0.395814,2.02481 -0.475202,4.14949 -0.05037,6.17698 0.305721,0.95716 1.032509,1.78035 1.862733,2.31682 1.391264,0.5007 2.689918,-0.5986 3.618937,-1.51117 0.357177,-0.43279 0.433387,0.55884 0.700242,0.75809 0.861553,1.21881 2.861695,1.34091 3.938965,0.32987 0.49687,-0.39113 0.88592,-0.89379 1.30261,-1.36428 0.78424,1.04513 1.80113,2.37469 3.28235,2.15778 1.30852,-0.22556 2.33045,-1.16155 3.37003,-1.91647 0.6415,0.86308 1.7893,1.78562 2.99457,1.39783 1.82204,-0.37229 2.80875,-2.22519 3.15318,-3.90539 0.19698,-0.97084 0.55192,-2.00206 0.28745,-2.98719 1.429376,-1.49729 3.892046,-1.35759 5.259316,-2.9374 0.48563,-0.62406 -0.0119,-1.61119 -0.82253,-1.52587 -1.72179,0.0208 -3.4508,0.51252 -4.954686,1.34733 -0.58597,-1.76371 -1.5439,-3.36867 -2.44309,-4.98499 0.72592,-1.58537 1.41751,-3.35124 0.92799,-5.11372 -0.32258,-1.43527 -1.01361,-2.74643 -1.62819,-4.07171 2.35796,0.1575 4.632206,-0.82096 6.660606,-1.92828 1.54528,-0.88293 3.06401,-2.11415 3.52253,-3.91576 1.03878,-3.474631 0.88825,-7.194157 0.36834,-10.746346 -0.23295,-2.014278 -0.95197,-3.926335 -1.93978,-5.687302 -1.0171,-1.757656 -2.01881,-3.845958 -4.07634,-4.562377 -2.718306,-1.012368 -6.080316,-0.813808 -8.324226,1.169662 -0.60376,0.429062 -1.05115,1.051418 -1.64342,1.479884 -1.00961,-0.353759 -1.4992,-1.479274 -2.47136,-1.934409 -2.41933,-1.425425 -5.316078,-1.632634 -8.058158,-1.749097 -2.542961,0.05786 -4.978144,0.936903 -7.365396,1.734901 -0.72893,0.290136 -1.458343,0.60369 -2.099255,1.063418 -0.07886,-1.362328 -0.720188,-2.668404 -1.49968,-3.770582 -0.956927,-1.349787 -2.783494,-1.776134 -4.322308,-1.316278 -1.189414,0.285635 -2.308028,0.810938 -3.366997,1.41943 z m 1.049272,2.561533 c 1.302057,-0.716871 2.591701,-1.364903 4.122688,-1.322875 0.681105,0.139449 0.791191,1.038103 1.169452,1.52429 0.410516,0.747636 0.912169,1.875724 1.739846,2.013043 -0.423197,0.69656 -1.079844,1.803495 -0.253644,2.458695 0.602594,0.593104 1.660099,0.659635 2.169272,-0.09363 0.482953,-0.665081 0.951402,-1.405664 1.805616,-1.627837 2.612756,-1.082933 5.397935,-2.126182 8.27807,-1.765381 1.635924,0.217462 3.149686,0.24401 4.675796,0.868153 1.26624,0.602973 1.94898,1.966338 3.16716,2.630039 0.1109,0.732413 0.58844,1.654086 1.46828,1.511676 0.97081,-0.184182 0.97406,-1.341232 1.59992,-1.930363 0.85103,-1.120824 1.97216,-2.287434 3.48231,-2.572616 1.46055,-0.316833 3.17802,-0.380728 4.44129,0.529159 1.68806,1.754069 2.69116,4.079085 3.31434,6.405169 0.52297,2.749219 0.5823,5.476053 0.50859,8.272707 0.0256,0.900235 -0.31701,1.761196 -0.29924,2.655666 -0.7895,0.92686 -1.5143,1.95507 -2.63859,2.51571 -2.12451,1.23825 -4.53379,1.48909 -6.89789,1.95966 -0.58661,-0.12454 -1.42696,-0.0489 -1.48061,0.71282 0.049,1.56831 1.05953,2.89409 1.53726,4.35036 0.64961,1.61519 1.06717,3.67994 -0.18356,5.12669 -1.55085,1.73081 -3.60574,2.98902 -5.75836,3.83417 -1.97527,0.69779 -3.96418,1.4814 -6.088663,1.52885 -0.461856,0.0365 -1.111079,0.07348 -1.667478,0.08916 -0.701224,0.01977 -1.403273,0.02591 -2.104499,0.0062 -0.884203,-0.02484 -1.770912,-0.05021 -2.649019,-0.156802 -0.979952,-0.11895 -1.99939,-0.161725 -2.912276,-0.537352 -1.573861,-0.647601 -3.20286,-1.371252 -4.218918,-2.875512 -0.623061,-0.82047 -1.261452,-1.84994 -1.891116,-2.78975 1.444392,-0.7345 3.071358,-1.07493 4.663907,-1.32804 1.359179,-0.25687 2.644158,0.68718 3.984665,0.35839 1.093693,-0.48757 0.880742,-1.89647 1.096583,-2.86421 0.172685,-0.75506 0.161793,-1.63016 0.551345,-2.29342 0.749678,-0.011 1.770514,-0.50146 1.51877,-1.40017 -0.443538,-1.09775 -1.700843,-1.60261 -2.775383,-1.87705 -2.190909,-0.3205 -4.162092,0.96607 -6.148604,1.66789 -0.876737,0.33833 -1.756668,0.67466 -2.660886,0.93299 1.002468,-1.53516 2.56369,-2.81348 2.851674,-4.72424 0.178927,-0.88403 0.212233,-2.25778 -0.878116,-2.52966 -1.245834,0.0275 -1.54332,1.46969 -2.031462,2.35495 -0.477198,1.08386 -1.791058,1.28941 -2.814997,0.95752 -2.288751,-0.54575 -4.452874,-1.94903 -5.869866,-3.66293 -2.068776,-2.393303 -3.045467,-5.878021 -2.24604,-9.026893 0.748087,-3.171355 2.219883,-6.26095 4.53987,-8.582214 0.542206,-0.500832 1.149257,-0.925849 1.782513,-1.303018 z m 13.886342,16.43163 c -0.02783,0.0126 -0.05365,0.02867 -0.07724,0.04921 -0.963871,0.918247 -1.550898,2.258031 -1.682128,3.581171 -0.225934,1.65825 1.847868,3.141 3.279298,2.11837 1.137755,-0.69291 1.936371,-2.16893 1.335928,-3.46663 -0.431498,-1.094192 -1.253448,-2.420151 -2.592134,-2.368903 -0.08346,0.03664 -0.18074,0.04835 -0.263844,0.08663 z M 54.350687,65.196681 c 0.523475,-0.0451 1.047138,-0.0901 1.570618,-0.13525 0.404078,0.0299 1.197686,-0.19372 1.382554,0.0372 -0.323989,0.68923 -0.193204,1.46804 -0.0556,2.18263 -0.943098,0.22159 -1.926109,0.28743 -2.894826,0.30248 -0.3033,-0.75548 -0.29006,-1.62704 -0.0027,-2.38704 z m 5.772535,-0.67801 1.395045,-0.36805 c 0.554612,-0.14211 1.112867,-0.27456 1.679814,-0.35642 0.119984,0.52272 0.354922,1.38276 -0.375893,1.54827 -0.999874,0.48479 -2.038289,0.89954 -3.10772,1.20291 0.06195,-0.688 0.265242,-1.35312 0.408754,-2.02671 z M 84.87665,50.941524 c -0.0441,0.02639 -0.0862,0.05557 -0.12597,0.08878 -1.14101,1.299029 -2.016887,3.223789 -1.339221,4.942999 0.414451,1.14641 2.004881,1.89763 2.982941,0.96119 0.86252,-0.84793 1.60527,-2.02033 1.57949,-3.26594 -0.21538,-1.32866 -1.13727,-2.914615 -2.65835,-2.862929 -0.15602,0.0092 -0.30636,0.05703 -0.43892,0.135859 z M 66.185531,62.901791 c 0.04691,-0.0262 0.09377,-0.0507 0.137152,-0.0746 0.740237,-0.33627 1.513565,-0.52671 2.266248,-0.73081 -0.06053,1.14343 -1.214404,1.5859 -2.14092,1.88528 -0.552589,0.36823 -0.620694,-0.35597 -0.578521,-0.74365 0.03557,-0.1613 0.175632,-0.25721 0.316231,-0.33593 z m 5.194923,-1.93893 c 0.09283,-0.0411 0.185657,-0.0821 0.2785,-0.12326 0.725588,-0.2905 1.54088,-0.65362 2.268746,-0.8319 -0.04921,0.97249 -0.171431,1.95842 -0.514152,2.87463 -0.770873,0.045 -1.508998,-0.25154 -2.276612,-0.27523 0.04827,-0.53124 -0.05289,-1.21996 0.243493,-1.64428 z m 6.515706,1.87526 c -0.934443,0.7478 -0.518108,2.15971 -0.07507,3.07701 0.620991,1.28961 2.4123,1.9069 3.657437,1.18996 0.89191,-0.83792 1.745093,-1.92203 1.865288,-3.1833 0.01237,-0.94296 -0.240782,-2.28347 -1.343151,-2.47421 -1.072576,0.0733 -1.155415,1.37746 -1.054975,2.20349 0.109273,0.50207 -0.465878,0.75416 -0.818705,0.8671 -0.411317,-0.82762 -1.065872,-2.26192 -2.23082,-1.68005 z m -0.383244,12.78138 c 0.664083,0.004 1.32821,0.009 1.992335,0.0133 2.548566,0.0605 5.125339,-0.19402 7.529079,-1.09069 2.65836,-0.75801 4.89716,-2.44554 7.35799,-3.62875 0.56414,-0.2211 0.6167,0.6867 0.82235,1.01817 0.90818,2.466 1.76675,5.22923 0.9522,7.83699 -0.19525,0.47278 -0.42335,1.00008 -0.80953,1.32843 -1.05556,-0.91557 -1.31018,-2.56653 -2.58124,-3.25953 -0.9137,-0.35851 -1.43471,0.70746 -1.58531,1.44098 -0.24968,1.08271 -1.09005,2.07954 -2.18097,2.34819 -0.99596,-0.87561 -0.93673,-2.2682 -1.16191,-3.4584 -0.13734,-0.82903 -1.09741,-1.6622 -1.89644,-1.06576 -0.98248,1.00257 -1.14641,2.54128 -2.12749,3.56322 -0.24637,0.26042 -0.855053,1.10869 -0.982557,0.35902 -0.410491,-1.17347 0.348771,-2.41825 -0.08664,-3.56483 -0.456279,-0.6601 -1.695722,-1.22954 -2.238197,-0.35647 -0.908631,1.46482 -1.689851,3.11779 -3.067786,4.19799 -0.498175,-0.579 -0.325637,-1.48102 -0.417268,-2.19963 -0.014,-1.1772 0.09062,-2.36432 0.481381,-3.48224 z"
       sodipodi:nodetypes="ccccccccccccccccccccccccccccccccccccccccccccccccccccccccccccccccccccccccccccaaaacccccccccccccccccccccccccccccccccccccccccccccccccccccccccccccsccccccssscccccccccccccccccss" />
  </g>
</svg>
