%TF.GenerationSoftware,KiCad,Pcbnew,(6.0.10-0)*%
%TF.CreationDate,2023-02-04T09:28:37-08:00*%
%TF.ProjectId,ElephantKeyboard,456c6570-6861-46e7-944b-6579626f6172,rev?*%
%TF.SameCoordinates,Original*%
%TF.FileFunction,Legend,Bot*%
%TF.FilePolarity,Positive*%
%FSLAX46Y46*%
G04 Gerber Fmt 4.6, Leading zero omitted, Abs format (unit mm)*
G04 Created by KiCad (PCBNEW (6.0.10-0)) date 2023-02-04 09:28:37*
%MOMM*%
%LPD*%
G01*
G04 APERTURE LIST*
G04 Aperture macros list*
%AMRoundRect*
0 Rectangle with rounded corners*
0 $1 Rounding radius*
0 $2 $3 $4 $5 $6 $7 $8 $9 X,Y pos of 4 corners*
0 Add a 4 corners polygon primitive as box body*
4,1,4,$2,$3,$4,$5,$6,$7,$8,$9,$2,$3,0*
0 Add four circle primitives for the rounded corners*
1,1,$1+$1,$2,$3*
1,1,$1+$1,$4,$5*
1,1,$1+$1,$6,$7*
1,1,$1+$1,$8,$9*
0 Add four rect primitives between the rounded corners*
20,1,$1+$1,$2,$3,$4,$5,0*
20,1,$1+$1,$4,$5,$6,$7,0*
20,1,$1+$1,$6,$7,$8,$9,0*
20,1,$1+$1,$8,$9,$2,$3,0*%
%AMFreePoly0*
4,1,18,-0.410000,0.593000,-0.403758,0.624380,-0.385983,0.650983,-0.359380,0.668758,-0.328000,0.675000,0.328000,0.675000,0.359380,0.668758,0.385983,0.650983,0.403758,0.624380,0.410000,0.593000,0.410000,-0.593000,0.403758,-0.624380,0.385983,-0.650983,0.359380,-0.668758,0.328000,-0.675000,0.000000,-0.675000,-0.410000,-0.265000,-0.410000,0.593000,-0.410000,0.593000,$1*%
G04 Aperture macros list end*
%ADD10C,0.150000*%
%ADD11C,0.120000*%
%ADD12C,3.000000*%
%ADD13C,3.987800*%
%ADD14C,1.701800*%
%ADD15RoundRect,0.200000X-1.075000X-1.050000X1.075000X-1.050000X1.075000X1.050000X-1.075000X1.050000X0*%
%ADD16C,3.048000*%
%ADD17R,1.600000X1.600000*%
%ADD18C,1.600000*%
%ADD19R,1.200000X0.900000*%
%ADD20RoundRect,0.250000X0.250000X0.475000X-0.250000X0.475000X-0.250000X-0.475000X0.250000X-0.475000X0*%
%ADD21RoundRect,0.082000X0.593000X-0.328000X0.593000X0.328000X-0.593000X0.328000X-0.593000X-0.328000X0*%
%ADD22FreePoly0,90.000000*%
%ADD23R,0.400000X0.650000*%
%ADD24RoundRect,0.250000X-0.475000X0.250000X-0.475000X-0.250000X0.475000X-0.250000X0.475000X0.250000X0*%
%ADD25RoundRect,0.250000X-0.450000X0.262500X-0.450000X-0.262500X0.450000X-0.262500X0.450000X0.262500X0*%
G04 APERTURE END LIST*
D10*
%TO.C,D13*%
X101385380Y-134167714D02*
X100385380Y-134167714D01*
X100385380Y-134405809D01*
X100433000Y-134548666D01*
X100528238Y-134643904D01*
X100623476Y-134691523D01*
X100813952Y-134739142D01*
X100956809Y-134739142D01*
X101147285Y-134691523D01*
X101242523Y-134643904D01*
X101337761Y-134548666D01*
X101385380Y-134405809D01*
X101385380Y-134167714D01*
X101385380Y-135691523D02*
X101385380Y-135120095D01*
X101385380Y-135405809D02*
X100385380Y-135405809D01*
X100528238Y-135310571D01*
X100623476Y-135215333D01*
X100671095Y-135120095D01*
X100385380Y-136024857D02*
X100385380Y-136643904D01*
X100766333Y-136310571D01*
X100766333Y-136453428D01*
X100813952Y-136548666D01*
X100861571Y-136596285D01*
X100956809Y-136643904D01*
X101194904Y-136643904D01*
X101290142Y-136596285D01*
X101337761Y-136548666D01*
X101385380Y-136453428D01*
X101385380Y-136167714D01*
X101337761Y-136072476D01*
X101290142Y-136024857D01*
%TO.C,D11*%
X139485380Y-105592714D02*
X138485380Y-105592714D01*
X138485380Y-105830809D01*
X138533000Y-105973666D01*
X138628238Y-106068904D01*
X138723476Y-106116523D01*
X138913952Y-106164142D01*
X139056809Y-106164142D01*
X139247285Y-106116523D01*
X139342523Y-106068904D01*
X139437761Y-105973666D01*
X139485380Y-105830809D01*
X139485380Y-105592714D01*
X139485380Y-107116523D02*
X139485380Y-106545095D01*
X139485380Y-106830809D02*
X138485380Y-106830809D01*
X138628238Y-106735571D01*
X138723476Y-106640333D01*
X138771095Y-106545095D01*
X139485380Y-108068904D02*
X139485380Y-107497476D01*
X139485380Y-107783190D02*
X138485380Y-107783190D01*
X138628238Y-107687952D01*
X138723476Y-107592714D01*
X138771095Y-107497476D01*
%TO.C,C17*%
X124213857Y-141933142D02*
X124261476Y-141980761D01*
X124404333Y-142028380D01*
X124499571Y-142028380D01*
X124642428Y-141980761D01*
X124737666Y-141885523D01*
X124785285Y-141790285D01*
X124832904Y-141599809D01*
X124832904Y-141456952D01*
X124785285Y-141266476D01*
X124737666Y-141171238D01*
X124642428Y-141076000D01*
X124499571Y-141028380D01*
X124404333Y-141028380D01*
X124261476Y-141076000D01*
X124213857Y-141123619D01*
X123261476Y-142028380D02*
X123832904Y-142028380D01*
X123547190Y-142028380D02*
X123547190Y-141028380D01*
X123642428Y-141171238D01*
X123737666Y-141266476D01*
X123832904Y-141314095D01*
X122928142Y-141028380D02*
X122261476Y-141028380D01*
X122690047Y-142028380D01*
%TO.C,LED15*%
X78001714Y-154884380D02*
X78477904Y-154884380D01*
X78477904Y-153884380D01*
X77668380Y-154360571D02*
X77335047Y-154360571D01*
X77192190Y-154884380D02*
X77668380Y-154884380D01*
X77668380Y-153884380D01*
X77192190Y-153884380D01*
X76763619Y-154884380D02*
X76763619Y-153884380D01*
X76525523Y-153884380D01*
X76382666Y-153932000D01*
X76287428Y-154027238D01*
X76239809Y-154122476D01*
X76192190Y-154312952D01*
X76192190Y-154455809D01*
X76239809Y-154646285D01*
X76287428Y-154741523D01*
X76382666Y-154836761D01*
X76525523Y-154884380D01*
X76763619Y-154884380D01*
X75239809Y-154884380D02*
X75811238Y-154884380D01*
X75525523Y-154884380D02*
X75525523Y-153884380D01*
X75620761Y-154027238D01*
X75716000Y-154122476D01*
X75811238Y-154170095D01*
X74335047Y-153884380D02*
X74811238Y-153884380D01*
X74858857Y-154360571D01*
X74811238Y-154312952D01*
X74716000Y-154265333D01*
X74477904Y-154265333D01*
X74382666Y-154312952D01*
X74335047Y-154360571D01*
X74287428Y-154455809D01*
X74287428Y-154693904D01*
X74335047Y-154789142D01*
X74382666Y-154836761D01*
X74477904Y-154884380D01*
X74716000Y-154884380D01*
X74811238Y-154836761D01*
X74858857Y-154789142D01*
%TO.C,D7*%
X120435380Y-96543904D02*
X119435380Y-96543904D01*
X119435380Y-96782000D01*
X119483000Y-96924857D01*
X119578238Y-97020095D01*
X119673476Y-97067714D01*
X119863952Y-97115333D01*
X120006809Y-97115333D01*
X120197285Y-97067714D01*
X120292523Y-97020095D01*
X120387761Y-96924857D01*
X120435380Y-96782000D01*
X120435380Y-96543904D01*
X119435380Y-97448666D02*
X119435380Y-98115333D01*
X120435380Y-97686761D01*
%TO.C,C11*%
X124213857Y-103833142D02*
X124261476Y-103880761D01*
X124404333Y-103928380D01*
X124499571Y-103928380D01*
X124642428Y-103880761D01*
X124737666Y-103785523D01*
X124785285Y-103690285D01*
X124832904Y-103499809D01*
X124832904Y-103356952D01*
X124785285Y-103166476D01*
X124737666Y-103071238D01*
X124642428Y-102976000D01*
X124499571Y-102928380D01*
X124404333Y-102928380D01*
X124261476Y-102976000D01*
X124213857Y-103023619D01*
X123261476Y-103928380D02*
X123832904Y-103928380D01*
X123547190Y-103928380D02*
X123547190Y-102928380D01*
X123642428Y-103071238D01*
X123737666Y-103166476D01*
X123832904Y-103214095D01*
X122309095Y-103928380D02*
X122880523Y-103928380D01*
X122594809Y-103928380D02*
X122594809Y-102928380D01*
X122690047Y-103071238D01*
X122785285Y-103166476D01*
X122880523Y-103214095D01*
%TO.C,D17*%
X139485380Y-143692714D02*
X138485380Y-143692714D01*
X138485380Y-143930809D01*
X138533000Y-144073666D01*
X138628238Y-144168904D01*
X138723476Y-144216523D01*
X138913952Y-144264142D01*
X139056809Y-144264142D01*
X139247285Y-144216523D01*
X139342523Y-144168904D01*
X139437761Y-144073666D01*
X139485380Y-143930809D01*
X139485380Y-143692714D01*
X139485380Y-145216523D02*
X139485380Y-144645095D01*
X139485380Y-144930809D02*
X138485380Y-144930809D01*
X138628238Y-144835571D01*
X138723476Y-144740333D01*
X138771095Y-144645095D01*
X138485380Y-145549857D02*
X138485380Y-146216523D01*
X139485380Y-145787952D01*
%TO.C,LED5*%
X68476714Y-97734380D02*
X68952904Y-97734380D01*
X68952904Y-96734380D01*
X68143380Y-97210571D02*
X67810047Y-97210571D01*
X67667190Y-97734380D02*
X68143380Y-97734380D01*
X68143380Y-96734380D01*
X67667190Y-96734380D01*
X67238619Y-97734380D02*
X67238619Y-96734380D01*
X67000523Y-96734380D01*
X66857666Y-96782000D01*
X66762428Y-96877238D01*
X66714809Y-96972476D01*
X66667190Y-97162952D01*
X66667190Y-97305809D01*
X66714809Y-97496285D01*
X66762428Y-97591523D01*
X66857666Y-97686761D01*
X67000523Y-97734380D01*
X67238619Y-97734380D01*
X65762428Y-96734380D02*
X66238619Y-96734380D01*
X66286238Y-97210571D01*
X66238619Y-97162952D01*
X66143380Y-97115333D01*
X65905285Y-97115333D01*
X65810047Y-97162952D01*
X65762428Y-97210571D01*
X65714809Y-97305809D01*
X65714809Y-97543904D01*
X65762428Y-97639142D01*
X65810047Y-97686761D01*
X65905285Y-97734380D01*
X66143380Y-97734380D01*
X66238619Y-97686761D01*
X66286238Y-97639142D01*
%TO.C,LED3*%
X106576714Y-78684380D02*
X107052904Y-78684380D01*
X107052904Y-77684380D01*
X106243380Y-78160571D02*
X105910047Y-78160571D01*
X105767190Y-78684380D02*
X106243380Y-78684380D01*
X106243380Y-77684380D01*
X105767190Y-77684380D01*
X105338619Y-78684380D02*
X105338619Y-77684380D01*
X105100523Y-77684380D01*
X104957666Y-77732000D01*
X104862428Y-77827238D01*
X104814809Y-77922476D01*
X104767190Y-78112952D01*
X104767190Y-78255809D01*
X104814809Y-78446285D01*
X104862428Y-78541523D01*
X104957666Y-78636761D01*
X105100523Y-78684380D01*
X105338619Y-78684380D01*
X104433857Y-77684380D02*
X103814809Y-77684380D01*
X104148142Y-78065333D01*
X104005285Y-78065333D01*
X103910047Y-78112952D01*
X103862428Y-78160571D01*
X103814809Y-78255809D01*
X103814809Y-78493904D01*
X103862428Y-78589142D01*
X103910047Y-78636761D01*
X104005285Y-78684380D01*
X104291000Y-78684380D01*
X104386238Y-78636761D01*
X104433857Y-78589142D01*
%TO.C,D5*%
X82335380Y-96543904D02*
X81335380Y-96543904D01*
X81335380Y-96782000D01*
X81383000Y-96924857D01*
X81478238Y-97020095D01*
X81573476Y-97067714D01*
X81763952Y-97115333D01*
X81906809Y-97115333D01*
X82097285Y-97067714D01*
X82192523Y-97020095D01*
X82287761Y-96924857D01*
X82335380Y-96782000D01*
X82335380Y-96543904D01*
X81335380Y-98020095D02*
X81335380Y-97543904D01*
X81811571Y-97496285D01*
X81763952Y-97543904D01*
X81716333Y-97639142D01*
X81716333Y-97877238D01*
X81763952Y-97972476D01*
X81811571Y-98020095D01*
X81906809Y-98067714D01*
X82144904Y-98067714D01*
X82240142Y-98020095D01*
X82287761Y-97972476D01*
X82335380Y-97877238D01*
X82335380Y-97639142D01*
X82287761Y-97543904D01*
X82240142Y-97496285D01*
%TO.C,LED13*%
X87526714Y-135834380D02*
X88002904Y-135834380D01*
X88002904Y-134834380D01*
X87193380Y-135310571D02*
X86860047Y-135310571D01*
X86717190Y-135834380D02*
X87193380Y-135834380D01*
X87193380Y-134834380D01*
X86717190Y-134834380D01*
X86288619Y-135834380D02*
X86288619Y-134834380D01*
X86050523Y-134834380D01*
X85907666Y-134882000D01*
X85812428Y-134977238D01*
X85764809Y-135072476D01*
X85717190Y-135262952D01*
X85717190Y-135405809D01*
X85764809Y-135596285D01*
X85812428Y-135691523D01*
X85907666Y-135786761D01*
X86050523Y-135834380D01*
X86288619Y-135834380D01*
X84764809Y-135834380D02*
X85336238Y-135834380D01*
X85050523Y-135834380D02*
X85050523Y-134834380D01*
X85145761Y-134977238D01*
X85241000Y-135072476D01*
X85336238Y-135120095D01*
X84431476Y-134834380D02*
X83812428Y-134834380D01*
X84145761Y-135215333D01*
X84002904Y-135215333D01*
X83907666Y-135262952D01*
X83860047Y-135310571D01*
X83812428Y-135405809D01*
X83812428Y-135643904D01*
X83860047Y-135739142D01*
X83907666Y-135786761D01*
X84002904Y-135834380D01*
X84288619Y-135834380D01*
X84383857Y-135786761D01*
X84431476Y-135739142D01*
%TO.C,D6*%
X101385380Y-96543904D02*
X100385380Y-96543904D01*
X100385380Y-96782000D01*
X100433000Y-96924857D01*
X100528238Y-97020095D01*
X100623476Y-97067714D01*
X100813952Y-97115333D01*
X100956809Y-97115333D01*
X101147285Y-97067714D01*
X101242523Y-97020095D01*
X101337761Y-96924857D01*
X101385380Y-96782000D01*
X101385380Y-96543904D01*
X100385380Y-97972476D02*
X100385380Y-97782000D01*
X100433000Y-97686761D01*
X100480619Y-97639142D01*
X100623476Y-97543904D01*
X100813952Y-97496285D01*
X101194904Y-97496285D01*
X101290142Y-97543904D01*
X101337761Y-97591523D01*
X101385380Y-97686761D01*
X101385380Y-97877238D01*
X101337761Y-97972476D01*
X101290142Y-98020095D01*
X101194904Y-98067714D01*
X100956809Y-98067714D01*
X100861571Y-98020095D01*
X100813952Y-97972476D01*
X100766333Y-97877238D01*
X100766333Y-97686761D01*
X100813952Y-97591523D01*
X100861571Y-97543904D01*
X100956809Y-97496285D01*
%TO.C,LED17*%
X125626714Y-145359380D02*
X126102904Y-145359380D01*
X126102904Y-144359380D01*
X125293380Y-144835571D02*
X124960047Y-144835571D01*
X124817190Y-145359380D02*
X125293380Y-145359380D01*
X125293380Y-144359380D01*
X124817190Y-144359380D01*
X124388619Y-145359380D02*
X124388619Y-144359380D01*
X124150523Y-144359380D01*
X124007666Y-144407000D01*
X123912428Y-144502238D01*
X123864809Y-144597476D01*
X123817190Y-144787952D01*
X123817190Y-144930809D01*
X123864809Y-145121285D01*
X123912428Y-145216523D01*
X124007666Y-145311761D01*
X124150523Y-145359380D01*
X124388619Y-145359380D01*
X122864809Y-145359380D02*
X123436238Y-145359380D01*
X123150523Y-145359380D02*
X123150523Y-144359380D01*
X123245761Y-144502238D01*
X123341000Y-144597476D01*
X123436238Y-144645095D01*
X122531476Y-144359380D02*
X121864809Y-144359380D01*
X122293380Y-145359380D01*
%TO.C,C6*%
X85637666Y-94308142D02*
X85685285Y-94355761D01*
X85828142Y-94403380D01*
X85923380Y-94403380D01*
X86066238Y-94355761D01*
X86161476Y-94260523D01*
X86209095Y-94165285D01*
X86256714Y-93974809D01*
X86256714Y-93831952D01*
X86209095Y-93641476D01*
X86161476Y-93546238D01*
X86066238Y-93451000D01*
X85923380Y-93403380D01*
X85828142Y-93403380D01*
X85685285Y-93451000D01*
X85637666Y-93498619D01*
X84780523Y-93403380D02*
X84971000Y-93403380D01*
X85066238Y-93451000D01*
X85113857Y-93498619D01*
X85209095Y-93641476D01*
X85256714Y-93831952D01*
X85256714Y-94212904D01*
X85209095Y-94308142D01*
X85161476Y-94355761D01*
X85066238Y-94403380D01*
X84875761Y-94403380D01*
X84780523Y-94355761D01*
X84732904Y-94308142D01*
X84685285Y-94212904D01*
X84685285Y-93974809D01*
X84732904Y-93879571D01*
X84780523Y-93831952D01*
X84875761Y-93784333D01*
X85066238Y-93784333D01*
X85161476Y-93831952D01*
X85209095Y-93879571D01*
X85256714Y-93974809D01*
%TO.C,D3*%
X120435380Y-77620904D02*
X119435380Y-77620904D01*
X119435380Y-77859000D01*
X119483000Y-78001857D01*
X119578238Y-78097095D01*
X119673476Y-78144714D01*
X119863952Y-78192333D01*
X120006809Y-78192333D01*
X120197285Y-78144714D01*
X120292523Y-78097095D01*
X120387761Y-78001857D01*
X120435380Y-77859000D01*
X120435380Y-77620904D01*
X119435380Y-78525666D02*
X119435380Y-79144714D01*
X119816333Y-78811380D01*
X119816333Y-78954238D01*
X119863952Y-79049476D01*
X119911571Y-79097095D01*
X120006809Y-79144714D01*
X120244904Y-79144714D01*
X120340142Y-79097095D01*
X120387761Y-79049476D01*
X120435380Y-78954238D01*
X120435380Y-78668523D01*
X120387761Y-78573285D01*
X120340142Y-78525666D01*
%TO.C,D2*%
X101385380Y-77493904D02*
X100385380Y-77493904D01*
X100385380Y-77732000D01*
X100433000Y-77874857D01*
X100528238Y-77970095D01*
X100623476Y-78017714D01*
X100813952Y-78065333D01*
X100956809Y-78065333D01*
X101147285Y-78017714D01*
X101242523Y-77970095D01*
X101337761Y-77874857D01*
X101385380Y-77732000D01*
X101385380Y-77493904D01*
X100480619Y-78446285D02*
X100433000Y-78493904D01*
X100385380Y-78589142D01*
X100385380Y-78827238D01*
X100433000Y-78922476D01*
X100480619Y-78970095D01*
X100575857Y-79017714D01*
X100671095Y-79017714D01*
X100813952Y-78970095D01*
X101385380Y-78398666D01*
X101385380Y-79017714D01*
%TO.C,LED6*%
X87526714Y-97734380D02*
X88002904Y-97734380D01*
X88002904Y-96734380D01*
X87193380Y-97210571D02*
X86860047Y-97210571D01*
X86717190Y-97734380D02*
X87193380Y-97734380D01*
X87193380Y-96734380D01*
X86717190Y-96734380D01*
X86288619Y-97734380D02*
X86288619Y-96734380D01*
X86050523Y-96734380D01*
X85907666Y-96782000D01*
X85812428Y-96877238D01*
X85764809Y-96972476D01*
X85717190Y-97162952D01*
X85717190Y-97305809D01*
X85764809Y-97496285D01*
X85812428Y-97591523D01*
X85907666Y-97686761D01*
X86050523Y-97734380D01*
X86288619Y-97734380D01*
X84860047Y-96734380D02*
X85050523Y-96734380D01*
X85145761Y-96782000D01*
X85193380Y-96829619D01*
X85288619Y-96972476D01*
X85336238Y-97162952D01*
X85336238Y-97543904D01*
X85288619Y-97639142D01*
X85241000Y-97686761D01*
X85145761Y-97734380D01*
X84955285Y-97734380D01*
X84860047Y-97686761D01*
X84812428Y-97639142D01*
X84764809Y-97543904D01*
X84764809Y-97305809D01*
X84812428Y-97210571D01*
X84860047Y-97162952D01*
X84955285Y-97115333D01*
X85145761Y-97115333D01*
X85241000Y-97162952D01*
X85288619Y-97210571D01*
X85336238Y-97305809D01*
%TO.C,C1*%
X66587666Y-75258142D02*
X66635285Y-75305761D01*
X66778142Y-75353380D01*
X66873380Y-75353380D01*
X67016238Y-75305761D01*
X67111476Y-75210523D01*
X67159095Y-75115285D01*
X67206714Y-74924809D01*
X67206714Y-74781952D01*
X67159095Y-74591476D01*
X67111476Y-74496238D01*
X67016238Y-74401000D01*
X66873380Y-74353380D01*
X66778142Y-74353380D01*
X66635285Y-74401000D01*
X66587666Y-74448619D01*
X65635285Y-75353380D02*
X66206714Y-75353380D01*
X65921000Y-75353380D02*
X65921000Y-74353380D01*
X66016238Y-74496238D01*
X66111476Y-74591476D01*
X66206714Y-74639095D01*
%TO.C,LED16*%
X106576714Y-154884380D02*
X107052904Y-154884380D01*
X107052904Y-153884380D01*
X106243380Y-154360571D02*
X105910047Y-154360571D01*
X105767190Y-154884380D02*
X106243380Y-154884380D01*
X106243380Y-153884380D01*
X105767190Y-153884380D01*
X105338619Y-154884380D02*
X105338619Y-153884380D01*
X105100523Y-153884380D01*
X104957666Y-153932000D01*
X104862428Y-154027238D01*
X104814809Y-154122476D01*
X104767190Y-154312952D01*
X104767190Y-154455809D01*
X104814809Y-154646285D01*
X104862428Y-154741523D01*
X104957666Y-154836761D01*
X105100523Y-154884380D01*
X105338619Y-154884380D01*
X103814809Y-154884380D02*
X104386238Y-154884380D01*
X104100523Y-154884380D02*
X104100523Y-153884380D01*
X104195761Y-154027238D01*
X104291000Y-154122476D01*
X104386238Y-154170095D01*
X102957666Y-153884380D02*
X103148142Y-153884380D01*
X103243380Y-153932000D01*
X103291000Y-153979619D01*
X103386238Y-154122476D01*
X103433857Y-154312952D01*
X103433857Y-154693904D01*
X103386238Y-154789142D01*
X103338619Y-154836761D01*
X103243380Y-154884380D01*
X103052904Y-154884380D01*
X102957666Y-154836761D01*
X102910047Y-154789142D01*
X102862428Y-154693904D01*
X102862428Y-154455809D01*
X102910047Y-154360571D01*
X102957666Y-154312952D01*
X103052904Y-154265333D01*
X103243380Y-154265333D01*
X103338619Y-154312952D01*
X103386238Y-154360571D01*
X103433857Y-154455809D01*
%TO.C,C8*%
X66587666Y-113358142D02*
X66635285Y-113405761D01*
X66778142Y-113453380D01*
X66873380Y-113453380D01*
X67016238Y-113405761D01*
X67111476Y-113310523D01*
X67159095Y-113215285D01*
X67206714Y-113024809D01*
X67206714Y-112881952D01*
X67159095Y-112691476D01*
X67111476Y-112596238D01*
X67016238Y-112501000D01*
X66873380Y-112453380D01*
X66778142Y-112453380D01*
X66635285Y-112501000D01*
X66587666Y-112548619D01*
X66016238Y-112881952D02*
X66111476Y-112834333D01*
X66159095Y-112786714D01*
X66206714Y-112691476D01*
X66206714Y-112643857D01*
X66159095Y-112548619D01*
X66111476Y-112501000D01*
X66016238Y-112453380D01*
X65825761Y-112453380D01*
X65730523Y-112501000D01*
X65682904Y-112548619D01*
X65635285Y-112643857D01*
X65635285Y-112691476D01*
X65682904Y-112786714D01*
X65730523Y-112834333D01*
X65825761Y-112881952D01*
X66016238Y-112881952D01*
X66111476Y-112929571D01*
X66159095Y-112977190D01*
X66206714Y-113072428D01*
X66206714Y-113262904D01*
X66159095Y-113358142D01*
X66111476Y-113405761D01*
X66016238Y-113453380D01*
X65825761Y-113453380D01*
X65730523Y-113405761D01*
X65682904Y-113358142D01*
X65635285Y-113262904D01*
X65635285Y-113072428D01*
X65682904Y-112977190D01*
X65730523Y-112929571D01*
X65825761Y-112881952D01*
%TO.C,C16*%
X105163857Y-151458142D02*
X105211476Y-151505761D01*
X105354333Y-151553380D01*
X105449571Y-151553380D01*
X105592428Y-151505761D01*
X105687666Y-151410523D01*
X105735285Y-151315285D01*
X105782904Y-151124809D01*
X105782904Y-150981952D01*
X105735285Y-150791476D01*
X105687666Y-150696238D01*
X105592428Y-150601000D01*
X105449571Y-150553380D01*
X105354333Y-150553380D01*
X105211476Y-150601000D01*
X105163857Y-150648619D01*
X104211476Y-151553380D02*
X104782904Y-151553380D01*
X104497190Y-151553380D02*
X104497190Y-150553380D01*
X104592428Y-150696238D01*
X104687666Y-150791476D01*
X104782904Y-150839095D01*
X103354333Y-150553380D02*
X103544809Y-150553380D01*
X103640047Y-150601000D01*
X103687666Y-150648619D01*
X103782904Y-150791476D01*
X103830523Y-150981952D01*
X103830523Y-151362904D01*
X103782904Y-151458142D01*
X103735285Y-151505761D01*
X103640047Y-151553380D01*
X103449571Y-151553380D01*
X103354333Y-151505761D01*
X103306714Y-151458142D01*
X103259095Y-151362904D01*
X103259095Y-151124809D01*
X103306714Y-151029571D01*
X103354333Y-150981952D01*
X103449571Y-150934333D01*
X103640047Y-150934333D01*
X103735285Y-150981952D01*
X103782904Y-151029571D01*
X103830523Y-151124809D01*
%TO.C,D9*%
X101385380Y-115593904D02*
X100385380Y-115593904D01*
X100385380Y-115832000D01*
X100433000Y-115974857D01*
X100528238Y-116070095D01*
X100623476Y-116117714D01*
X100813952Y-116165333D01*
X100956809Y-116165333D01*
X101147285Y-116117714D01*
X101242523Y-116070095D01*
X101337761Y-115974857D01*
X101385380Y-115832000D01*
X101385380Y-115593904D01*
X101385380Y-116641523D02*
X101385380Y-116832000D01*
X101337761Y-116927238D01*
X101290142Y-116974857D01*
X101147285Y-117070095D01*
X100956809Y-117117714D01*
X100575857Y-117117714D01*
X100480619Y-117070095D01*
X100433000Y-117022476D01*
X100385380Y-116927238D01*
X100385380Y-116736761D01*
X100433000Y-116641523D01*
X100480619Y-116593904D01*
X100575857Y-116546285D01*
X100813952Y-116546285D01*
X100909190Y-116593904D01*
X100956809Y-116641523D01*
X101004428Y-116736761D01*
X101004428Y-116927238D01*
X100956809Y-117022476D01*
X100909190Y-117070095D01*
X100813952Y-117117714D01*
%TO.C,C13*%
X86113857Y-132408142D02*
X86161476Y-132455761D01*
X86304333Y-132503380D01*
X86399571Y-132503380D01*
X86542428Y-132455761D01*
X86637666Y-132360523D01*
X86685285Y-132265285D01*
X86732904Y-132074809D01*
X86732904Y-131931952D01*
X86685285Y-131741476D01*
X86637666Y-131646238D01*
X86542428Y-131551000D01*
X86399571Y-131503380D01*
X86304333Y-131503380D01*
X86161476Y-131551000D01*
X86113857Y-131598619D01*
X85161476Y-132503380D02*
X85732904Y-132503380D01*
X85447190Y-132503380D02*
X85447190Y-131503380D01*
X85542428Y-131646238D01*
X85637666Y-131741476D01*
X85732904Y-131789095D01*
X84828142Y-131503380D02*
X84209095Y-131503380D01*
X84542428Y-131884333D01*
X84399571Y-131884333D01*
X84304333Y-131931952D01*
X84256714Y-131979571D01*
X84209095Y-132074809D01*
X84209095Y-132312904D01*
X84256714Y-132408142D01*
X84304333Y-132455761D01*
X84399571Y-132503380D01*
X84685285Y-132503380D01*
X84780523Y-132455761D01*
X84828142Y-132408142D01*
%TO.C,LED4*%
X125626714Y-78684380D02*
X126102904Y-78684380D01*
X126102904Y-77684380D01*
X125293380Y-78160571D02*
X124960047Y-78160571D01*
X124817190Y-78684380D02*
X125293380Y-78684380D01*
X125293380Y-77684380D01*
X124817190Y-77684380D01*
X124388619Y-78684380D02*
X124388619Y-77684380D01*
X124150523Y-77684380D01*
X124007666Y-77732000D01*
X123912428Y-77827238D01*
X123864809Y-77922476D01*
X123817190Y-78112952D01*
X123817190Y-78255809D01*
X123864809Y-78446285D01*
X123912428Y-78541523D01*
X124007666Y-78636761D01*
X124150523Y-78684380D01*
X124388619Y-78684380D01*
X122960047Y-78017714D02*
X122960047Y-78684380D01*
X123198142Y-77636761D02*
X123436238Y-78351047D01*
X122817190Y-78351047D01*
%TO.C,D12*%
X82335380Y-134167714D02*
X81335380Y-134167714D01*
X81335380Y-134405809D01*
X81383000Y-134548666D01*
X81478238Y-134643904D01*
X81573476Y-134691523D01*
X81763952Y-134739142D01*
X81906809Y-134739142D01*
X82097285Y-134691523D01*
X82192523Y-134643904D01*
X82287761Y-134548666D01*
X82335380Y-134405809D01*
X82335380Y-134167714D01*
X82335380Y-135691523D02*
X82335380Y-135120095D01*
X82335380Y-135405809D02*
X81335380Y-135405809D01*
X81478238Y-135310571D01*
X81573476Y-135215333D01*
X81621095Y-135120095D01*
X81430619Y-136072476D02*
X81383000Y-136120095D01*
X81335380Y-136215333D01*
X81335380Y-136453428D01*
X81383000Y-136548666D01*
X81430619Y-136596285D01*
X81525857Y-136643904D01*
X81621095Y-136643904D01*
X81763952Y-136596285D01*
X82335380Y-136024857D01*
X82335380Y-136643904D01*
%TO.C,LED10*%
X106576714Y-116784380D02*
X107052904Y-116784380D01*
X107052904Y-115784380D01*
X106243380Y-116260571D02*
X105910047Y-116260571D01*
X105767190Y-116784380D02*
X106243380Y-116784380D01*
X106243380Y-115784380D01*
X105767190Y-115784380D01*
X105338619Y-116784380D02*
X105338619Y-115784380D01*
X105100523Y-115784380D01*
X104957666Y-115832000D01*
X104862428Y-115927238D01*
X104814809Y-116022476D01*
X104767190Y-116212952D01*
X104767190Y-116355809D01*
X104814809Y-116546285D01*
X104862428Y-116641523D01*
X104957666Y-116736761D01*
X105100523Y-116784380D01*
X105338619Y-116784380D01*
X103814809Y-116784380D02*
X104386238Y-116784380D01*
X104100523Y-116784380D02*
X104100523Y-115784380D01*
X104195761Y-115927238D01*
X104291000Y-116022476D01*
X104386238Y-116070095D01*
X103195761Y-115784380D02*
X103100523Y-115784380D01*
X103005285Y-115832000D01*
X102957666Y-115879619D01*
X102910047Y-115974857D01*
X102862428Y-116165333D01*
X102862428Y-116403428D01*
X102910047Y-116593904D01*
X102957666Y-116689142D01*
X103005285Y-116736761D01*
X103100523Y-116784380D01*
X103195761Y-116784380D01*
X103291000Y-116736761D01*
X103338619Y-116689142D01*
X103386238Y-116593904D01*
X103433857Y-116403428D01*
X103433857Y-116165333D01*
X103386238Y-115974857D01*
X103338619Y-115879619D01*
X103291000Y-115832000D01*
X103195761Y-115784380D01*
%TO.C,C2*%
X85637666Y-75258142D02*
X85685285Y-75305761D01*
X85828142Y-75353380D01*
X85923380Y-75353380D01*
X86066238Y-75305761D01*
X86161476Y-75210523D01*
X86209095Y-75115285D01*
X86256714Y-74924809D01*
X86256714Y-74781952D01*
X86209095Y-74591476D01*
X86161476Y-74496238D01*
X86066238Y-74401000D01*
X85923380Y-74353380D01*
X85828142Y-74353380D01*
X85685285Y-74401000D01*
X85637666Y-74448619D01*
X85256714Y-74448619D02*
X85209095Y-74401000D01*
X85113857Y-74353380D01*
X84875761Y-74353380D01*
X84780523Y-74401000D01*
X84732904Y-74448619D01*
X84685285Y-74543857D01*
X84685285Y-74639095D01*
X84732904Y-74781952D01*
X85304333Y-75353380D01*
X84685285Y-75353380D01*
%TO.C,LED9*%
X87526714Y-116784380D02*
X88002904Y-116784380D01*
X88002904Y-115784380D01*
X87193380Y-116260571D02*
X86860047Y-116260571D01*
X86717190Y-116784380D02*
X87193380Y-116784380D01*
X87193380Y-115784380D01*
X86717190Y-115784380D01*
X86288619Y-116784380D02*
X86288619Y-115784380D01*
X86050523Y-115784380D01*
X85907666Y-115832000D01*
X85812428Y-115927238D01*
X85764809Y-116022476D01*
X85717190Y-116212952D01*
X85717190Y-116355809D01*
X85764809Y-116546285D01*
X85812428Y-116641523D01*
X85907666Y-116736761D01*
X86050523Y-116784380D01*
X86288619Y-116784380D01*
X85241000Y-116784380D02*
X85050523Y-116784380D01*
X84955285Y-116736761D01*
X84907666Y-116689142D01*
X84812428Y-116546285D01*
X84764809Y-116355809D01*
X84764809Y-115974857D01*
X84812428Y-115879619D01*
X84860047Y-115832000D01*
X84955285Y-115784380D01*
X85145761Y-115784380D01*
X85241000Y-115832000D01*
X85288619Y-115879619D01*
X85336238Y-115974857D01*
X85336238Y-116212952D01*
X85288619Y-116308190D01*
X85241000Y-116355809D01*
X85145761Y-116403428D01*
X84955285Y-116403428D01*
X84860047Y-116355809D01*
X84812428Y-116308190D01*
X84764809Y-116212952D01*
%TO.C,C15*%
X76588857Y-151458142D02*
X76636476Y-151505761D01*
X76779333Y-151553380D01*
X76874571Y-151553380D01*
X77017428Y-151505761D01*
X77112666Y-151410523D01*
X77160285Y-151315285D01*
X77207904Y-151124809D01*
X77207904Y-150981952D01*
X77160285Y-150791476D01*
X77112666Y-150696238D01*
X77017428Y-150601000D01*
X76874571Y-150553380D01*
X76779333Y-150553380D01*
X76636476Y-150601000D01*
X76588857Y-150648619D01*
X75636476Y-151553380D02*
X76207904Y-151553380D01*
X75922190Y-151553380D02*
X75922190Y-150553380D01*
X76017428Y-150696238D01*
X76112666Y-150791476D01*
X76207904Y-150839095D01*
X74731714Y-150553380D02*
X75207904Y-150553380D01*
X75255523Y-151029571D01*
X75207904Y-150981952D01*
X75112666Y-150934333D01*
X74874571Y-150934333D01*
X74779333Y-150981952D01*
X74731714Y-151029571D01*
X74684095Y-151124809D01*
X74684095Y-151362904D01*
X74731714Y-151458142D01*
X74779333Y-151505761D01*
X74874571Y-151553380D01*
X75112666Y-151553380D01*
X75207904Y-151505761D01*
X75255523Y-151458142D01*
%TO.C,LED1*%
X68476714Y-78684380D02*
X68952904Y-78684380D01*
X68952904Y-77684380D01*
X68143380Y-78160571D02*
X67810047Y-78160571D01*
X67667190Y-78684380D02*
X68143380Y-78684380D01*
X68143380Y-77684380D01*
X67667190Y-77684380D01*
X67238619Y-78684380D02*
X67238619Y-77684380D01*
X67000523Y-77684380D01*
X66857666Y-77732000D01*
X66762428Y-77827238D01*
X66714809Y-77922476D01*
X66667190Y-78112952D01*
X66667190Y-78255809D01*
X66714809Y-78446285D01*
X66762428Y-78541523D01*
X66857666Y-78636761D01*
X67000523Y-78684380D01*
X67238619Y-78684380D01*
X65714809Y-78684380D02*
X66286238Y-78684380D01*
X66000523Y-78684380D02*
X66000523Y-77684380D01*
X66095761Y-77827238D01*
X66191000Y-77922476D01*
X66286238Y-77970095D01*
%TO.C,LED12*%
X68476714Y-135834380D02*
X68952904Y-135834380D01*
X68952904Y-134834380D01*
X68143380Y-135310571D02*
X67810047Y-135310571D01*
X67667190Y-135834380D02*
X68143380Y-135834380D01*
X68143380Y-134834380D01*
X67667190Y-134834380D01*
X67238619Y-135834380D02*
X67238619Y-134834380D01*
X67000523Y-134834380D01*
X66857666Y-134882000D01*
X66762428Y-134977238D01*
X66714809Y-135072476D01*
X66667190Y-135262952D01*
X66667190Y-135405809D01*
X66714809Y-135596285D01*
X66762428Y-135691523D01*
X66857666Y-135786761D01*
X67000523Y-135834380D01*
X67238619Y-135834380D01*
X65714809Y-135834380D02*
X66286238Y-135834380D01*
X66000523Y-135834380D02*
X66000523Y-134834380D01*
X66095761Y-134977238D01*
X66191000Y-135072476D01*
X66286238Y-135120095D01*
X65333857Y-134929619D02*
X65286238Y-134882000D01*
X65191000Y-134834380D01*
X64952904Y-134834380D01*
X64857666Y-134882000D01*
X64810047Y-134929619D01*
X64762428Y-135024857D01*
X64762428Y-135120095D01*
X64810047Y-135262952D01*
X65381476Y-135834380D01*
X64762428Y-135834380D01*
%TO.C,D15*%
X91860380Y-153217714D02*
X90860380Y-153217714D01*
X90860380Y-153455809D01*
X90908000Y-153598666D01*
X91003238Y-153693904D01*
X91098476Y-153741523D01*
X91288952Y-153789142D01*
X91431809Y-153789142D01*
X91622285Y-153741523D01*
X91717523Y-153693904D01*
X91812761Y-153598666D01*
X91860380Y-153455809D01*
X91860380Y-153217714D01*
X91860380Y-154741523D02*
X91860380Y-154170095D01*
X91860380Y-154455809D02*
X90860380Y-154455809D01*
X91003238Y-154360571D01*
X91098476Y-154265333D01*
X91146095Y-154170095D01*
X90860380Y-155646285D02*
X90860380Y-155170095D01*
X91336571Y-155122476D01*
X91288952Y-155170095D01*
X91241333Y-155265333D01*
X91241333Y-155503428D01*
X91288952Y-155598666D01*
X91336571Y-155646285D01*
X91431809Y-155693904D01*
X91669904Y-155693904D01*
X91765142Y-155646285D01*
X91812761Y-155598666D01*
X91860380Y-155503428D01*
X91860380Y-155265333D01*
X91812761Y-155170095D01*
X91765142Y-155122476D01*
%TO.C,C14*%
X105163857Y-132408142D02*
X105211476Y-132455761D01*
X105354333Y-132503380D01*
X105449571Y-132503380D01*
X105592428Y-132455761D01*
X105687666Y-132360523D01*
X105735285Y-132265285D01*
X105782904Y-132074809D01*
X105782904Y-131931952D01*
X105735285Y-131741476D01*
X105687666Y-131646238D01*
X105592428Y-131551000D01*
X105449571Y-131503380D01*
X105354333Y-131503380D01*
X105211476Y-131551000D01*
X105163857Y-131598619D01*
X104211476Y-132503380D02*
X104782904Y-132503380D01*
X104497190Y-132503380D02*
X104497190Y-131503380D01*
X104592428Y-131646238D01*
X104687666Y-131741476D01*
X104782904Y-131789095D01*
X103354333Y-131836714D02*
X103354333Y-132503380D01*
X103592428Y-131455761D02*
X103830523Y-132170047D01*
X103211476Y-132170047D01*
%TO.C,LED14*%
X106576714Y-135834380D02*
X107052904Y-135834380D01*
X107052904Y-134834380D01*
X106243380Y-135310571D02*
X105910047Y-135310571D01*
X105767190Y-135834380D02*
X106243380Y-135834380D01*
X106243380Y-134834380D01*
X105767190Y-134834380D01*
X105338619Y-135834380D02*
X105338619Y-134834380D01*
X105100523Y-134834380D01*
X104957666Y-134882000D01*
X104862428Y-134977238D01*
X104814809Y-135072476D01*
X104767190Y-135262952D01*
X104767190Y-135405809D01*
X104814809Y-135596285D01*
X104862428Y-135691523D01*
X104957666Y-135786761D01*
X105100523Y-135834380D01*
X105338619Y-135834380D01*
X103814809Y-135834380D02*
X104386238Y-135834380D01*
X104100523Y-135834380D02*
X104100523Y-134834380D01*
X104195761Y-134977238D01*
X104291000Y-135072476D01*
X104386238Y-135120095D01*
X102957666Y-135167714D02*
X102957666Y-135834380D01*
X103195761Y-134786761D02*
X103433857Y-135501047D01*
X102814809Y-135501047D01*
%TO.C,U2*%
X97782380Y-46228095D02*
X98591904Y-46228095D01*
X98687142Y-46275714D01*
X98734761Y-46323333D01*
X98782380Y-46418571D01*
X98782380Y-46609047D01*
X98734761Y-46704285D01*
X98687142Y-46751904D01*
X98591904Y-46799523D01*
X97782380Y-46799523D01*
X97877619Y-47228095D02*
X97830000Y-47275714D01*
X97782380Y-47370952D01*
X97782380Y-47609047D01*
X97830000Y-47704285D01*
X97877619Y-47751904D01*
X97972857Y-47799523D01*
X98068095Y-47799523D01*
X98210952Y-47751904D01*
X98782380Y-47180476D01*
X98782380Y-47799523D01*
%TO.C,C18*%
X96467142Y-50792142D02*
X96514761Y-50744523D01*
X96562380Y-50601666D01*
X96562380Y-50506428D01*
X96514761Y-50363571D01*
X96419523Y-50268333D01*
X96324285Y-50220714D01*
X96133809Y-50173095D01*
X95990952Y-50173095D01*
X95800476Y-50220714D01*
X95705238Y-50268333D01*
X95610000Y-50363571D01*
X95562380Y-50506428D01*
X95562380Y-50601666D01*
X95610000Y-50744523D01*
X95657619Y-50792142D01*
X96562380Y-51744523D02*
X96562380Y-51173095D01*
X96562380Y-51458809D02*
X95562380Y-51458809D01*
X95705238Y-51363571D01*
X95800476Y-51268333D01*
X95848095Y-51173095D01*
X95990952Y-52315952D02*
X95943333Y-52220714D01*
X95895714Y-52173095D01*
X95800476Y-52125476D01*
X95752857Y-52125476D01*
X95657619Y-52173095D01*
X95610000Y-52220714D01*
X95562380Y-52315952D01*
X95562380Y-52506428D01*
X95610000Y-52601666D01*
X95657619Y-52649285D01*
X95752857Y-52696904D01*
X95800476Y-52696904D01*
X95895714Y-52649285D01*
X95943333Y-52601666D01*
X95990952Y-52506428D01*
X95990952Y-52315952D01*
X96038571Y-52220714D01*
X96086190Y-52173095D01*
X96181428Y-52125476D01*
X96371904Y-52125476D01*
X96467142Y-52173095D01*
X96514761Y-52220714D01*
X96562380Y-52315952D01*
X96562380Y-52506428D01*
X96514761Y-52601666D01*
X96467142Y-52649285D01*
X96371904Y-52696904D01*
X96181428Y-52696904D01*
X96086190Y-52649285D01*
X96038571Y-52601666D01*
X95990952Y-52506428D01*
%TO.C,C10*%
X105163857Y-113358142D02*
X105211476Y-113405761D01*
X105354333Y-113453380D01*
X105449571Y-113453380D01*
X105592428Y-113405761D01*
X105687666Y-113310523D01*
X105735285Y-113215285D01*
X105782904Y-113024809D01*
X105782904Y-112881952D01*
X105735285Y-112691476D01*
X105687666Y-112596238D01*
X105592428Y-112501000D01*
X105449571Y-112453380D01*
X105354333Y-112453380D01*
X105211476Y-112501000D01*
X105163857Y-112548619D01*
X104211476Y-113453380D02*
X104782904Y-113453380D01*
X104497190Y-113453380D02*
X104497190Y-112453380D01*
X104592428Y-112596238D01*
X104687666Y-112691476D01*
X104782904Y-112739095D01*
X103592428Y-112453380D02*
X103497190Y-112453380D01*
X103401952Y-112501000D01*
X103354333Y-112548619D01*
X103306714Y-112643857D01*
X103259095Y-112834333D01*
X103259095Y-113072428D01*
X103306714Y-113262904D01*
X103354333Y-113358142D01*
X103401952Y-113405761D01*
X103497190Y-113453380D01*
X103592428Y-113453380D01*
X103687666Y-113405761D01*
X103735285Y-113358142D01*
X103782904Y-113262904D01*
X103830523Y-113072428D01*
X103830523Y-112834333D01*
X103782904Y-112643857D01*
X103735285Y-112548619D01*
X103687666Y-112501000D01*
X103592428Y-112453380D01*
%TO.C,C9*%
X85637666Y-113358142D02*
X85685285Y-113405761D01*
X85828142Y-113453380D01*
X85923380Y-113453380D01*
X86066238Y-113405761D01*
X86161476Y-113310523D01*
X86209095Y-113215285D01*
X86256714Y-113024809D01*
X86256714Y-112881952D01*
X86209095Y-112691476D01*
X86161476Y-112596238D01*
X86066238Y-112501000D01*
X85923380Y-112453380D01*
X85828142Y-112453380D01*
X85685285Y-112501000D01*
X85637666Y-112548619D01*
X85161476Y-113453380D02*
X84971000Y-113453380D01*
X84875761Y-113405761D01*
X84828142Y-113358142D01*
X84732904Y-113215285D01*
X84685285Y-113024809D01*
X84685285Y-112643857D01*
X84732904Y-112548619D01*
X84780523Y-112501000D01*
X84875761Y-112453380D01*
X85066238Y-112453380D01*
X85161476Y-112501000D01*
X85209095Y-112548619D01*
X85256714Y-112643857D01*
X85256714Y-112881952D01*
X85209095Y-112977190D01*
X85161476Y-113024809D01*
X85066238Y-113072428D01*
X84875761Y-113072428D01*
X84780523Y-113024809D01*
X84732904Y-112977190D01*
X84685285Y-112881952D01*
%TO.C,C5*%
X66587666Y-94308142D02*
X66635285Y-94355761D01*
X66778142Y-94403380D01*
X66873380Y-94403380D01*
X67016238Y-94355761D01*
X67111476Y-94260523D01*
X67159095Y-94165285D01*
X67206714Y-93974809D01*
X67206714Y-93831952D01*
X67159095Y-93641476D01*
X67111476Y-93546238D01*
X67016238Y-93451000D01*
X66873380Y-93403380D01*
X66778142Y-93403380D01*
X66635285Y-93451000D01*
X66587666Y-93498619D01*
X65682904Y-93403380D02*
X66159095Y-93403380D01*
X66206714Y-93879571D01*
X66159095Y-93831952D01*
X66063857Y-93784333D01*
X65825761Y-93784333D01*
X65730523Y-93831952D01*
X65682904Y-93879571D01*
X65635285Y-93974809D01*
X65635285Y-94212904D01*
X65682904Y-94308142D01*
X65730523Y-94355761D01*
X65825761Y-94403380D01*
X66063857Y-94403380D01*
X66159095Y-94355761D01*
X66206714Y-94308142D01*
%TO.C,LED8*%
X68476714Y-116784380D02*
X68952904Y-116784380D01*
X68952904Y-115784380D01*
X68143380Y-116260571D02*
X67810047Y-116260571D01*
X67667190Y-116784380D02*
X68143380Y-116784380D01*
X68143380Y-115784380D01*
X67667190Y-115784380D01*
X67238619Y-116784380D02*
X67238619Y-115784380D01*
X67000523Y-115784380D01*
X66857666Y-115832000D01*
X66762428Y-115927238D01*
X66714809Y-116022476D01*
X66667190Y-116212952D01*
X66667190Y-116355809D01*
X66714809Y-116546285D01*
X66762428Y-116641523D01*
X66857666Y-116736761D01*
X67000523Y-116784380D01*
X67238619Y-116784380D01*
X66095761Y-116212952D02*
X66191000Y-116165333D01*
X66238619Y-116117714D01*
X66286238Y-116022476D01*
X66286238Y-115974857D01*
X66238619Y-115879619D01*
X66191000Y-115832000D01*
X66095761Y-115784380D01*
X65905285Y-115784380D01*
X65810047Y-115832000D01*
X65762428Y-115879619D01*
X65714809Y-115974857D01*
X65714809Y-116022476D01*
X65762428Y-116117714D01*
X65810047Y-116165333D01*
X65905285Y-116212952D01*
X66095761Y-116212952D01*
X66191000Y-116260571D01*
X66238619Y-116308190D01*
X66286238Y-116403428D01*
X66286238Y-116593904D01*
X66238619Y-116689142D01*
X66191000Y-116736761D01*
X66095761Y-116784380D01*
X65905285Y-116784380D01*
X65810047Y-116736761D01*
X65762428Y-116689142D01*
X65714809Y-116593904D01*
X65714809Y-116403428D01*
X65762428Y-116308190D01*
X65810047Y-116260571D01*
X65905285Y-116212952D01*
%TO.C,C3*%
X104687666Y-75258142D02*
X104735285Y-75305761D01*
X104878142Y-75353380D01*
X104973380Y-75353380D01*
X105116238Y-75305761D01*
X105211476Y-75210523D01*
X105259095Y-75115285D01*
X105306714Y-74924809D01*
X105306714Y-74781952D01*
X105259095Y-74591476D01*
X105211476Y-74496238D01*
X105116238Y-74401000D01*
X104973380Y-74353380D01*
X104878142Y-74353380D01*
X104735285Y-74401000D01*
X104687666Y-74448619D01*
X104354333Y-74353380D02*
X103735285Y-74353380D01*
X104068619Y-74734333D01*
X103925761Y-74734333D01*
X103830523Y-74781952D01*
X103782904Y-74829571D01*
X103735285Y-74924809D01*
X103735285Y-75162904D01*
X103782904Y-75258142D01*
X103830523Y-75305761D01*
X103925761Y-75353380D01*
X104211476Y-75353380D01*
X104306714Y-75305761D01*
X104354333Y-75258142D01*
%TO.C,D14*%
X120435380Y-134167714D02*
X119435380Y-134167714D01*
X119435380Y-134405809D01*
X119483000Y-134548666D01*
X119578238Y-134643904D01*
X119673476Y-134691523D01*
X119863952Y-134739142D01*
X120006809Y-134739142D01*
X120197285Y-134691523D01*
X120292523Y-134643904D01*
X120387761Y-134548666D01*
X120435380Y-134405809D01*
X120435380Y-134167714D01*
X120435380Y-135691523D02*
X120435380Y-135120095D01*
X120435380Y-135405809D02*
X119435380Y-135405809D01*
X119578238Y-135310571D01*
X119673476Y-135215333D01*
X119721095Y-135120095D01*
X119768714Y-136548666D02*
X120435380Y-136548666D01*
X119387761Y-136310571D02*
X120102047Y-136072476D01*
X120102047Y-136691523D01*
%TO.C,C4*%
X123737666Y-75258142D02*
X123785285Y-75305761D01*
X123928142Y-75353380D01*
X124023380Y-75353380D01*
X124166238Y-75305761D01*
X124261476Y-75210523D01*
X124309095Y-75115285D01*
X124356714Y-74924809D01*
X124356714Y-74781952D01*
X124309095Y-74591476D01*
X124261476Y-74496238D01*
X124166238Y-74401000D01*
X124023380Y-74353380D01*
X123928142Y-74353380D01*
X123785285Y-74401000D01*
X123737666Y-74448619D01*
X122880523Y-74686714D02*
X122880523Y-75353380D01*
X123118619Y-74305761D02*
X123356714Y-75020047D01*
X122737666Y-75020047D01*
%TO.C,C7*%
X104626666Y-94308142D02*
X104674285Y-94355761D01*
X104817142Y-94403380D01*
X104912380Y-94403380D01*
X105055238Y-94355761D01*
X105150476Y-94260523D01*
X105198095Y-94165285D01*
X105245714Y-93974809D01*
X105245714Y-93831952D01*
X105198095Y-93641476D01*
X105150476Y-93546238D01*
X105055238Y-93451000D01*
X104912380Y-93403380D01*
X104817142Y-93403380D01*
X104674285Y-93451000D01*
X104626666Y-93498619D01*
X104293333Y-93403380D02*
X103626666Y-93403380D01*
X104055238Y-94403380D01*
%TO.C,D8*%
X82335380Y-115593904D02*
X81335380Y-115593904D01*
X81335380Y-115832000D01*
X81383000Y-115974857D01*
X81478238Y-116070095D01*
X81573476Y-116117714D01*
X81763952Y-116165333D01*
X81906809Y-116165333D01*
X82097285Y-116117714D01*
X82192523Y-116070095D01*
X82287761Y-115974857D01*
X82335380Y-115832000D01*
X82335380Y-115593904D01*
X81763952Y-116736761D02*
X81716333Y-116641523D01*
X81668714Y-116593904D01*
X81573476Y-116546285D01*
X81525857Y-116546285D01*
X81430619Y-116593904D01*
X81383000Y-116641523D01*
X81335380Y-116736761D01*
X81335380Y-116927238D01*
X81383000Y-117022476D01*
X81430619Y-117070095D01*
X81525857Y-117117714D01*
X81573476Y-117117714D01*
X81668714Y-117070095D01*
X81716333Y-117022476D01*
X81763952Y-116927238D01*
X81763952Y-116736761D01*
X81811571Y-116641523D01*
X81859190Y-116593904D01*
X81954428Y-116546285D01*
X82144904Y-116546285D01*
X82240142Y-116593904D01*
X82287761Y-116641523D01*
X82335380Y-116736761D01*
X82335380Y-116927238D01*
X82287761Y-117022476D01*
X82240142Y-117070095D01*
X82144904Y-117117714D01*
X81954428Y-117117714D01*
X81859190Y-117070095D01*
X81811571Y-117022476D01*
X81763952Y-116927238D01*
%TO.C,R1*%
X101672380Y-51268333D02*
X101196190Y-50935000D01*
X101672380Y-50696904D02*
X100672380Y-50696904D01*
X100672380Y-51077857D01*
X100720000Y-51173095D01*
X100767619Y-51220714D01*
X100862857Y-51268333D01*
X101005714Y-51268333D01*
X101100952Y-51220714D01*
X101148571Y-51173095D01*
X101196190Y-51077857D01*
X101196190Y-50696904D01*
X101672380Y-52220714D02*
X101672380Y-51649285D01*
X101672380Y-51935000D02*
X100672380Y-51935000D01*
X100815238Y-51839761D01*
X100910476Y-51744523D01*
X100958095Y-51649285D01*
%TO.C,LED7*%
X106576714Y-97734380D02*
X107052904Y-97734380D01*
X107052904Y-96734380D01*
X106243380Y-97210571D02*
X105910047Y-97210571D01*
X105767190Y-97734380D02*
X106243380Y-97734380D01*
X106243380Y-96734380D01*
X105767190Y-96734380D01*
X105338619Y-97734380D02*
X105338619Y-96734380D01*
X105100523Y-96734380D01*
X104957666Y-96782000D01*
X104862428Y-96877238D01*
X104814809Y-96972476D01*
X104767190Y-97162952D01*
X104767190Y-97305809D01*
X104814809Y-97496285D01*
X104862428Y-97591523D01*
X104957666Y-97686761D01*
X105100523Y-97734380D01*
X105338619Y-97734380D01*
X104433857Y-96734380D02*
X103767190Y-96734380D01*
X104195761Y-97734380D01*
%TO.C,D4*%
X139485380Y-77620904D02*
X138485380Y-77620904D01*
X138485380Y-77859000D01*
X138533000Y-78001857D01*
X138628238Y-78097095D01*
X138723476Y-78144714D01*
X138913952Y-78192333D01*
X139056809Y-78192333D01*
X139247285Y-78144714D01*
X139342523Y-78097095D01*
X139437761Y-78001857D01*
X139485380Y-77859000D01*
X139485380Y-77620904D01*
X138818714Y-79049476D02*
X139485380Y-79049476D01*
X138437761Y-78811380D02*
X139152047Y-78573285D01*
X139152047Y-79192333D01*
%TO.C,D1*%
X82335380Y-77493904D02*
X81335380Y-77493904D01*
X81335380Y-77732000D01*
X81383000Y-77874857D01*
X81478238Y-77970095D01*
X81573476Y-78017714D01*
X81763952Y-78065333D01*
X81906809Y-78065333D01*
X82097285Y-78017714D01*
X82192523Y-77970095D01*
X82287761Y-77874857D01*
X82335380Y-77732000D01*
X82335380Y-77493904D01*
X82335380Y-79017714D02*
X82335380Y-78446285D01*
X82335380Y-78732000D02*
X81335380Y-78732000D01*
X81478238Y-78636761D01*
X81573476Y-78541523D01*
X81621095Y-78446285D01*
%TO.C,LED2*%
X87526714Y-78684380D02*
X88002904Y-78684380D01*
X88002904Y-77684380D01*
X87193380Y-78160571D02*
X86860047Y-78160571D01*
X86717190Y-78684380D02*
X87193380Y-78684380D01*
X87193380Y-77684380D01*
X86717190Y-77684380D01*
X86288619Y-78684380D02*
X86288619Y-77684380D01*
X86050523Y-77684380D01*
X85907666Y-77732000D01*
X85812428Y-77827238D01*
X85764809Y-77922476D01*
X85717190Y-78112952D01*
X85717190Y-78255809D01*
X85764809Y-78446285D01*
X85812428Y-78541523D01*
X85907666Y-78636761D01*
X86050523Y-78684380D01*
X86288619Y-78684380D01*
X85336238Y-77779619D02*
X85288619Y-77732000D01*
X85193380Y-77684380D01*
X84955285Y-77684380D01*
X84860047Y-77732000D01*
X84812428Y-77779619D01*
X84764809Y-77874857D01*
X84764809Y-77970095D01*
X84812428Y-78112952D01*
X85383857Y-78684380D01*
X84764809Y-78684380D01*
%TO.C,LED11*%
X125626714Y-107259380D02*
X126102904Y-107259380D01*
X126102904Y-106259380D01*
X125293380Y-106735571D02*
X124960047Y-106735571D01*
X124817190Y-107259380D02*
X125293380Y-107259380D01*
X125293380Y-106259380D01*
X124817190Y-106259380D01*
X124388619Y-107259380D02*
X124388619Y-106259380D01*
X124150523Y-106259380D01*
X124007666Y-106307000D01*
X123912428Y-106402238D01*
X123864809Y-106497476D01*
X123817190Y-106687952D01*
X123817190Y-106830809D01*
X123864809Y-107021285D01*
X123912428Y-107116523D01*
X124007666Y-107211761D01*
X124150523Y-107259380D01*
X124388619Y-107259380D01*
X122864809Y-107259380D02*
X123436238Y-107259380D01*
X123150523Y-107259380D02*
X123150523Y-106259380D01*
X123245761Y-106402238D01*
X123341000Y-106497476D01*
X123436238Y-106545095D01*
X121912428Y-107259380D02*
X122483857Y-107259380D01*
X122198142Y-107259380D02*
X122198142Y-106259380D01*
X122293380Y-106402238D01*
X122388619Y-106497476D01*
X122483857Y-106545095D01*
%TO.C,D10*%
X120435380Y-115117714D02*
X119435380Y-115117714D01*
X119435380Y-115355809D01*
X119483000Y-115498666D01*
X119578238Y-115593904D01*
X119673476Y-115641523D01*
X119863952Y-115689142D01*
X120006809Y-115689142D01*
X120197285Y-115641523D01*
X120292523Y-115593904D01*
X120387761Y-115498666D01*
X120435380Y-115355809D01*
X120435380Y-115117714D01*
X120435380Y-116641523D02*
X120435380Y-116070095D01*
X120435380Y-116355809D02*
X119435380Y-116355809D01*
X119578238Y-116260571D01*
X119673476Y-116165333D01*
X119721095Y-116070095D01*
X119435380Y-117260571D02*
X119435380Y-117355809D01*
X119483000Y-117451047D01*
X119530619Y-117498666D01*
X119625857Y-117546285D01*
X119816333Y-117593904D01*
X120054428Y-117593904D01*
X120244904Y-117546285D01*
X120340142Y-117498666D01*
X120387761Y-117451047D01*
X120435380Y-117355809D01*
X120435380Y-117260571D01*
X120387761Y-117165333D01*
X120340142Y-117117714D01*
X120244904Y-117070095D01*
X120054428Y-117022476D01*
X119816333Y-117022476D01*
X119625857Y-117070095D01*
X119530619Y-117117714D01*
X119483000Y-117165333D01*
X119435380Y-117260571D01*
%TO.C,C12*%
X67063857Y-132408142D02*
X67111476Y-132455761D01*
X67254333Y-132503380D01*
X67349571Y-132503380D01*
X67492428Y-132455761D01*
X67587666Y-132360523D01*
X67635285Y-132265285D01*
X67682904Y-132074809D01*
X67682904Y-131931952D01*
X67635285Y-131741476D01*
X67587666Y-131646238D01*
X67492428Y-131551000D01*
X67349571Y-131503380D01*
X67254333Y-131503380D01*
X67111476Y-131551000D01*
X67063857Y-131598619D01*
X66111476Y-132503380D02*
X66682904Y-132503380D01*
X66397190Y-132503380D02*
X66397190Y-131503380D01*
X66492428Y-131646238D01*
X66587666Y-131741476D01*
X66682904Y-131789095D01*
X65730523Y-131598619D02*
X65682904Y-131551000D01*
X65587666Y-131503380D01*
X65349571Y-131503380D01*
X65254333Y-131551000D01*
X65206714Y-131598619D01*
X65159095Y-131693857D01*
X65159095Y-131789095D01*
X65206714Y-131931952D01*
X65778142Y-132503380D01*
X65159095Y-132503380D01*
%TO.C,D16*%
X120435380Y-153217714D02*
X119435380Y-153217714D01*
X119435380Y-153455809D01*
X119483000Y-153598666D01*
X119578238Y-153693904D01*
X119673476Y-153741523D01*
X119863952Y-153789142D01*
X120006809Y-153789142D01*
X120197285Y-153741523D01*
X120292523Y-153693904D01*
X120387761Y-153598666D01*
X120435380Y-153455809D01*
X120435380Y-153217714D01*
X120435380Y-154741523D02*
X120435380Y-154170095D01*
X120435380Y-154455809D02*
X119435380Y-154455809D01*
X119578238Y-154360571D01*
X119673476Y-154265333D01*
X119721095Y-154170095D01*
X119435380Y-155598666D02*
X119435380Y-155408190D01*
X119483000Y-155312952D01*
X119530619Y-155265333D01*
X119673476Y-155170095D01*
X119863952Y-155122476D01*
X120244904Y-155122476D01*
X120340142Y-155170095D01*
X120387761Y-155217714D01*
X120435380Y-155312952D01*
X120435380Y-155503428D01*
X120387761Y-155598666D01*
X120340142Y-155646285D01*
X120244904Y-155693904D01*
X120006809Y-155693904D01*
X119911571Y-155646285D01*
X119863952Y-155598666D01*
X119816333Y-155503428D01*
X119816333Y-155312952D01*
X119863952Y-155217714D01*
X119911571Y-155170095D01*
X120006809Y-155122476D01*
%TO.C,U1*%
X93980000Y-38100000D02*
X93980000Y-55880000D01*
X93980000Y-55880000D02*
X63500000Y-55880000D01*
X63500000Y-38100000D02*
X93980000Y-38100000D01*
X63500000Y-55880000D02*
X63500000Y-50800000D01*
X60960000Y-50800000D02*
X60960000Y-43180000D01*
X60960000Y-43180000D02*
X63500000Y-43180000D01*
X63500000Y-43180000D02*
X63500000Y-38100000D01*
X63500000Y-50800000D02*
X60960000Y-50800000D01*
D11*
%TO.C,D13*%
X97933000Y-137632000D02*
X97933000Y-133732000D01*
X99933000Y-137632000D02*
X97933000Y-137632000D01*
X99933000Y-137632000D02*
X99933000Y-133732000D01*
%TO.C,D11*%
X136033000Y-109057000D02*
X136033000Y-105157000D01*
X138033000Y-109057000D02*
X138033000Y-105157000D01*
X138033000Y-109057000D02*
X136033000Y-109057000D01*
%TO.C,C17*%
X123832252Y-143991000D02*
X123309748Y-143991000D01*
X123832252Y-142521000D02*
X123309748Y-142521000D01*
%TO.C,LED15*%
X86413500Y-155932000D02*
X85513500Y-155932000D01*
X86413500Y-154932000D02*
X86413500Y-155932000D01*
%TO.C,D7*%
X116983000Y-99532000D02*
X116983000Y-95632000D01*
X118983000Y-99532000D02*
X118983000Y-95632000D01*
X118983000Y-99532000D02*
X116983000Y-99532000D01*
%TO.C,C11*%
X123832252Y-104421000D02*
X123309748Y-104421000D01*
X123832252Y-105891000D02*
X123309748Y-105891000D01*
%TO.C,D17*%
X136033000Y-147157000D02*
X136033000Y-143257000D01*
X138033000Y-147157000D02*
X138033000Y-143257000D01*
X138033000Y-147157000D02*
X136033000Y-147157000D01*
%TO.C,LED5*%
X76888500Y-97782000D02*
X76888500Y-98782000D01*
X76888500Y-98782000D02*
X75988500Y-98782000D01*
%TO.C,LED3*%
X114988500Y-78732000D02*
X114988500Y-79732000D01*
X114988500Y-79732000D02*
X114088500Y-79732000D01*
%TO.C,D5*%
X78883000Y-99532000D02*
X78883000Y-95632000D01*
X80883000Y-99532000D02*
X80883000Y-95632000D01*
X80883000Y-99532000D02*
X78883000Y-99532000D01*
%TO.C,LED13*%
X95938500Y-135882000D02*
X95938500Y-136882000D01*
X95938500Y-136882000D02*
X95038500Y-136882000D01*
%TO.C,D6*%
X99933000Y-99532000D02*
X99933000Y-95632000D01*
X97933000Y-99532000D02*
X97933000Y-95632000D01*
X99933000Y-99532000D02*
X97933000Y-99532000D01*
%TO.C,LED17*%
X134038500Y-146407000D02*
X133138500Y-146407000D01*
X134038500Y-145407000D02*
X134038500Y-146407000D01*
%TO.C,C6*%
X85732252Y-94896000D02*
X85209748Y-94896000D01*
X85732252Y-96366000D02*
X85209748Y-96366000D01*
%TO.C,D3*%
X118983000Y-80609000D02*
X118983000Y-76709000D01*
X118983000Y-80609000D02*
X116983000Y-80609000D01*
X116983000Y-80609000D02*
X116983000Y-76709000D01*
%TO.C,D2*%
X97933000Y-80482000D02*
X97933000Y-76582000D01*
X99933000Y-80482000D02*
X99933000Y-76582000D01*
X99933000Y-80482000D02*
X97933000Y-80482000D01*
%TO.C,LED6*%
X95938500Y-97782000D02*
X95938500Y-98782000D01*
X95938500Y-98782000D02*
X95038500Y-98782000D01*
%TO.C,C1*%
X66682252Y-75846000D02*
X66159748Y-75846000D01*
X66682252Y-77316000D02*
X66159748Y-77316000D01*
%TO.C,LED16*%
X114988500Y-154932000D02*
X114988500Y-155932000D01*
X114988500Y-155932000D02*
X114088500Y-155932000D01*
%TO.C,C8*%
X66682252Y-115416000D02*
X66159748Y-115416000D01*
X66682252Y-113946000D02*
X66159748Y-113946000D01*
%TO.C,C16*%
X104782252Y-153516000D02*
X104259748Y-153516000D01*
X104782252Y-152046000D02*
X104259748Y-152046000D01*
%TO.C,D9*%
X97933000Y-118582000D02*
X97933000Y-114682000D01*
X99933000Y-118582000D02*
X99933000Y-114682000D01*
X99933000Y-118582000D02*
X97933000Y-118582000D01*
%TO.C,C13*%
X85732252Y-132996000D02*
X85209748Y-132996000D01*
X85732252Y-134466000D02*
X85209748Y-134466000D01*
%TO.C,LED4*%
X134038500Y-79732000D02*
X133138500Y-79732000D01*
X134038500Y-78732000D02*
X134038500Y-79732000D01*
%TO.C,D12*%
X78883000Y-137632000D02*
X78883000Y-133732000D01*
X80883000Y-137632000D02*
X80883000Y-133732000D01*
X80883000Y-137632000D02*
X78883000Y-137632000D01*
%TO.C,LED10*%
X114988500Y-117832000D02*
X114088500Y-117832000D01*
X114988500Y-116832000D02*
X114988500Y-117832000D01*
%TO.C,C2*%
X85732252Y-75846000D02*
X85209748Y-75846000D01*
X85732252Y-77316000D02*
X85209748Y-77316000D01*
%TO.C,LED9*%
X95938500Y-117832000D02*
X95038500Y-117832000D01*
X95938500Y-116832000D02*
X95938500Y-117832000D01*
%TO.C,C15*%
X76207252Y-152046000D02*
X75684748Y-152046000D01*
X76207252Y-153516000D02*
X75684748Y-153516000D01*
%TO.C,LED1*%
X76888500Y-79732000D02*
X75988500Y-79732000D01*
X76888500Y-78732000D02*
X76888500Y-79732000D01*
%TO.C,LED12*%
X76888500Y-135882000D02*
X76888500Y-136882000D01*
X76888500Y-136882000D02*
X75988500Y-136882000D01*
%TO.C,D15*%
X88408000Y-156682000D02*
X88408000Y-152782000D01*
X90408000Y-156682000D02*
X90408000Y-152782000D01*
X90408000Y-156682000D02*
X88408000Y-156682000D01*
%TO.C,C14*%
X104782252Y-132996000D02*
X104259748Y-132996000D01*
X104782252Y-134466000D02*
X104259748Y-134466000D01*
%TO.C,LED14*%
X114988500Y-136882000D02*
X114088500Y-136882000D01*
X114988500Y-135882000D02*
X114988500Y-136882000D01*
%TO.C,U2*%
X99170000Y-47690000D02*
X99170000Y-45790000D01*
X101490000Y-46290000D02*
X101490000Y-47690000D01*
%TO.C,C18*%
X97055000Y-51173748D02*
X97055000Y-51696252D01*
X98525000Y-51173748D02*
X98525000Y-51696252D01*
%TO.C,C10*%
X104782252Y-113946000D02*
X104259748Y-113946000D01*
X104782252Y-115416000D02*
X104259748Y-115416000D01*
%TO.C,C9*%
X85732252Y-113946000D02*
X85209748Y-113946000D01*
X85732252Y-115416000D02*
X85209748Y-115416000D01*
%TO.C,C5*%
X66682252Y-94896000D02*
X66159748Y-94896000D01*
X66682252Y-96366000D02*
X66159748Y-96366000D01*
%TO.C,LED8*%
X76888500Y-117832000D02*
X75988500Y-117832000D01*
X76888500Y-116832000D02*
X76888500Y-117832000D01*
%TO.C,C3*%
X104782252Y-75846000D02*
X104259748Y-75846000D01*
X104782252Y-77316000D02*
X104259748Y-77316000D01*
%TO.C,D14*%
X118983000Y-137632000D02*
X116983000Y-137632000D01*
X116983000Y-137632000D02*
X116983000Y-133732000D01*
X118983000Y-137632000D02*
X118983000Y-133732000D01*
%TO.C,C4*%
X123832252Y-75846000D02*
X123309748Y-75846000D01*
X123832252Y-77316000D02*
X123309748Y-77316000D01*
%TO.C,C7*%
X104721252Y-94896000D02*
X104198748Y-94896000D01*
X104721252Y-96366000D02*
X104198748Y-96366000D01*
%TO.C,D8*%
X80883000Y-118582000D02*
X78883000Y-118582000D01*
X80883000Y-118582000D02*
X80883000Y-114682000D01*
X78883000Y-118582000D02*
X78883000Y-114682000D01*
%TO.C,R1*%
X103605000Y-51207936D02*
X103605000Y-51662064D01*
X102135000Y-51207936D02*
X102135000Y-51662064D01*
%TO.C,LED7*%
X114988500Y-98782000D02*
X114088500Y-98782000D01*
X114988500Y-97782000D02*
X114988500Y-98782000D01*
%TO.C,D4*%
X138033000Y-80609000D02*
X138033000Y-76709000D01*
X138033000Y-80609000D02*
X136033000Y-80609000D01*
X136033000Y-80609000D02*
X136033000Y-76709000D01*
%TO.C,D1*%
X80883000Y-80482000D02*
X80883000Y-76582000D01*
X80883000Y-80482000D02*
X78883000Y-80482000D01*
X78883000Y-80482000D02*
X78883000Y-76582000D01*
%TO.C,LED2*%
X95938500Y-79732000D02*
X95038500Y-79732000D01*
X95938500Y-78732000D02*
X95938500Y-79732000D01*
%TO.C,LED11*%
X134038500Y-107307000D02*
X134038500Y-108307000D01*
X134038500Y-108307000D02*
X133138500Y-108307000D01*
%TO.C,D10*%
X118983000Y-118582000D02*
X116983000Y-118582000D01*
X118983000Y-118582000D02*
X118983000Y-114682000D01*
X116983000Y-118582000D02*
X116983000Y-114682000D01*
%TO.C,C12*%
X66682252Y-134466000D02*
X66159748Y-134466000D01*
X66682252Y-132996000D02*
X66159748Y-132996000D01*
%TO.C,D16*%
X118983000Y-156682000D02*
X118983000Y-152782000D01*
X118983000Y-156682000D02*
X116983000Y-156682000D01*
X116983000Y-156682000D02*
X116983000Y-152782000D01*
%TD*%
%LPC*%
D12*
%TO.C,MX7*%
X113728500Y-87122000D03*
D13*
X111188500Y-92202000D03*
D12*
X107378500Y-89662000D03*
D14*
X116268500Y-92202000D03*
X106108500Y-92202000D03*
D15*
X104103500Y-89662000D03*
X117030500Y-87122000D03*
%TD*%
D14*
%TO.C,MX10*%
X106108500Y-111252000D03*
D12*
X107378500Y-108712000D03*
D13*
X111188500Y-111252000D03*
D14*
X116268500Y-111252000D03*
D12*
X113728500Y-106172000D03*
D15*
X104103500Y-108712000D03*
X117030500Y-106172000D03*
%TD*%
D12*
%TO.C,MX8*%
X75628500Y-106172000D03*
X69278500Y-108712000D03*
D14*
X68008500Y-111252000D03*
D13*
X73088500Y-111252000D03*
D14*
X78168500Y-111252000D03*
D15*
X66003500Y-108712000D03*
X78930500Y-106172000D03*
%TD*%
D12*
%TO.C,MX13*%
X88328500Y-127762000D03*
D13*
X92138500Y-130302000D03*
D14*
X87058500Y-130302000D03*
D12*
X94678500Y-125222000D03*
D14*
X97218500Y-130302000D03*
D15*
X85053500Y-127762000D03*
X97980500Y-125222000D03*
%TD*%
D14*
%TO.C,MX6*%
X87058500Y-92202000D03*
D13*
X92138500Y-92202000D03*
D12*
X88328500Y-89662000D03*
D14*
X97218500Y-92202000D03*
D12*
X94678500Y-87122000D03*
D15*
X85053500Y-89662000D03*
X97980500Y-87122000D03*
%TD*%
D16*
%TO.C,MX17*%
X137223500Y-127889000D03*
D14*
X125158500Y-139827000D03*
D16*
X137223500Y-151765000D03*
D12*
X132778500Y-134747000D03*
D14*
X135318500Y-139827000D03*
D13*
X121983500Y-127889000D03*
X121983500Y-151765000D03*
D12*
X126428500Y-137287000D03*
D13*
X130238500Y-139827000D03*
D15*
X123153500Y-137287000D03*
X136080500Y-134747000D03*
%TD*%
D17*
%TO.C,U1*%
X64770000Y-54610000D03*
D18*
X67310000Y-54610000D03*
X69850000Y-54610000D03*
X72390000Y-54610000D03*
X74930000Y-54610000D03*
X77470000Y-54610000D03*
X80010000Y-54610000D03*
X82550000Y-54610000D03*
X85090000Y-54610000D03*
X87630000Y-54610000D03*
X90170000Y-54610000D03*
X92710000Y-54610000D03*
X92710000Y-39370000D03*
X90170000Y-39370000D03*
X87630000Y-39370000D03*
X85090000Y-39370000D03*
X82550000Y-39370000D03*
X80010000Y-39370000D03*
X77470000Y-39370000D03*
X74930000Y-39370000D03*
X72390000Y-39370000D03*
X69850000Y-39370000D03*
X67310000Y-39370000D03*
X64770000Y-39370000D03*
%TD*%
D13*
%TO.C,MX11*%
X121983500Y-113665000D03*
D16*
X137223500Y-113665000D03*
D13*
X121983500Y-89789000D03*
D16*
X137223500Y-89789000D03*
D14*
X125158500Y-101727000D03*
D13*
X130238500Y-101727000D03*
D12*
X132778500Y-96647000D03*
X126428500Y-99187000D03*
D14*
X135318500Y-101727000D03*
D15*
X123153500Y-99187000D03*
X136080500Y-96647000D03*
%TD*%
D14*
%TO.C,MX3*%
X106108500Y-73152000D03*
X116268500Y-73152000D03*
D13*
X111188500Y-73152000D03*
D12*
X113728500Y-68072000D03*
X107378500Y-70612000D03*
D15*
X104103500Y-70612000D03*
X117030500Y-68072000D03*
%TD*%
D13*
%TO.C,MX5*%
X73088500Y-92202000D03*
D12*
X69278500Y-89662000D03*
D14*
X68008500Y-92202000D03*
D12*
X75628500Y-87122000D03*
D14*
X78168500Y-92202000D03*
D15*
X66003500Y-89662000D03*
X78930500Y-87122000D03*
%TD*%
D12*
%TO.C,MX4*%
X126428500Y-70612000D03*
D14*
X125158500Y-73152000D03*
D12*
X132778500Y-68072000D03*
D14*
X135318500Y-73152000D03*
D13*
X130238500Y-73152000D03*
D15*
X123153500Y-70612000D03*
X136080500Y-68072000D03*
%TD*%
D12*
%TO.C,MX14*%
X113728500Y-125222000D03*
D14*
X106108500Y-130302000D03*
D13*
X111188500Y-130302000D03*
D12*
X107378500Y-127762000D03*
D14*
X116268500Y-130302000D03*
D15*
X104103500Y-127762000D03*
X117030500Y-125222000D03*
%TD*%
D13*
%TO.C,MX2*%
X92138500Y-73152000D03*
D14*
X97218500Y-73152000D03*
D12*
X88328500Y-70612000D03*
X94678500Y-68072000D03*
D14*
X87058500Y-73152000D03*
D15*
X85053500Y-70612000D03*
X97980500Y-68072000D03*
%TD*%
D13*
%TO.C,MX15*%
X70675500Y-157607000D03*
D12*
X85153500Y-144272000D03*
D16*
X94551500Y-142367000D03*
X70675500Y-142367000D03*
D13*
X94551500Y-157607000D03*
D14*
X87693500Y-149352000D03*
X77533500Y-149352000D03*
D13*
X82613500Y-149352000D03*
D12*
X78803500Y-146812000D03*
D15*
X75528500Y-146812000D03*
X88455500Y-144272000D03*
%TD*%
D12*
%TO.C,MX9*%
X94678500Y-106172000D03*
D14*
X87058500Y-111252000D03*
D12*
X88328500Y-108712000D03*
D13*
X92138500Y-111252000D03*
D14*
X97218500Y-111252000D03*
D15*
X85053500Y-108712000D03*
X97980500Y-106172000D03*
%TD*%
D12*
%TO.C,MX16*%
X113728500Y-144272000D03*
D14*
X116268500Y-149352000D03*
X106108500Y-149352000D03*
D12*
X107378500Y-146812000D03*
D13*
X111188500Y-149352000D03*
D15*
X104103500Y-146812000D03*
X117030500Y-144272000D03*
%TD*%
D12*
%TO.C,MX12*%
X75628500Y-125222000D03*
X69278500Y-127762000D03*
D14*
X78168500Y-130302000D03*
X68008500Y-130302000D03*
D13*
X73088500Y-130302000D03*
D15*
X66003500Y-127762000D03*
X78930500Y-125222000D03*
%TD*%
D14*
%TO.C,MX1*%
X78168500Y-73152000D03*
D13*
X73088500Y-73152000D03*
D12*
X69278500Y-70612000D03*
D14*
X68008500Y-73152000D03*
D12*
X75628500Y-68072000D03*
D15*
X66003500Y-70612000D03*
X78930500Y-68072000D03*
%TD*%
D19*
%TO.C,D13*%
X98933000Y-137032000D03*
X98933000Y-133732000D03*
%TD*%
%TO.C,D11*%
X137033000Y-108457000D03*
X137033000Y-105157000D03*
%TD*%
D20*
%TO.C,C17*%
X124521000Y-143256000D03*
X122621000Y-143256000D03*
%TD*%
D21*
%TO.C,LED15*%
X79888500Y-153682000D03*
X79888500Y-155182000D03*
X85338500Y-153682000D03*
D22*
X85338500Y-155182000D03*
%TD*%
D19*
%TO.C,D7*%
X117983000Y-98932000D03*
X117983000Y-95632000D03*
%TD*%
D20*
%TO.C,C11*%
X124521000Y-105156000D03*
X122621000Y-105156000D03*
%TD*%
D19*
%TO.C,D17*%
X137033000Y-146557000D03*
X137033000Y-143257000D03*
%TD*%
D21*
%TO.C,LED5*%
X70363500Y-96532000D03*
X70363500Y-98032000D03*
X75813500Y-96532000D03*
D22*
X75813500Y-98032000D03*
%TD*%
D21*
%TO.C,LED3*%
X108463500Y-77482000D03*
X108463500Y-78982000D03*
X113913500Y-77482000D03*
D22*
X113913500Y-78982000D03*
%TD*%
D19*
%TO.C,D5*%
X79883000Y-98932000D03*
X79883000Y-95632000D03*
%TD*%
D21*
%TO.C,LED13*%
X89413500Y-134632000D03*
X89413500Y-136132000D03*
X94863500Y-134632000D03*
D22*
X94863500Y-136132000D03*
%TD*%
D19*
%TO.C,D6*%
X98933000Y-98932000D03*
X98933000Y-95632000D03*
%TD*%
D21*
%TO.C,LED17*%
X127513500Y-144157000D03*
X127513500Y-145657000D03*
X132963500Y-144157000D03*
D22*
X132963500Y-145657000D03*
%TD*%
D20*
%TO.C,C6*%
X86421000Y-95631000D03*
X84521000Y-95631000D03*
%TD*%
D19*
%TO.C,D3*%
X117983000Y-80009000D03*
X117983000Y-76709000D03*
%TD*%
%TO.C,D2*%
X98933000Y-79882000D03*
X98933000Y-76582000D03*
%TD*%
D21*
%TO.C,LED6*%
X89413500Y-96532000D03*
X89413500Y-98032000D03*
X94863500Y-96532000D03*
D22*
X94863500Y-98032000D03*
%TD*%
D20*
%TO.C,C1*%
X67371000Y-76581000D03*
X65471000Y-76581000D03*
%TD*%
D21*
%TO.C,LED16*%
X108463500Y-153682000D03*
X108463500Y-155182000D03*
X113913500Y-153682000D03*
D22*
X113913500Y-155182000D03*
%TD*%
D20*
%TO.C,C8*%
X67371000Y-114681000D03*
X65471000Y-114681000D03*
%TD*%
%TO.C,C16*%
X105471000Y-152781000D03*
X103571000Y-152781000D03*
%TD*%
D19*
%TO.C,D9*%
X98933000Y-117982000D03*
X98933000Y-114682000D03*
%TD*%
D20*
%TO.C,C13*%
X86421000Y-133731000D03*
X84521000Y-133731000D03*
%TD*%
D21*
%TO.C,LED4*%
X127513500Y-77482000D03*
X127513500Y-78982000D03*
X132963500Y-77482000D03*
D22*
X132963500Y-78982000D03*
%TD*%
D19*
%TO.C,D12*%
X79883000Y-137032000D03*
X79883000Y-133732000D03*
%TD*%
D21*
%TO.C,LED10*%
X108463500Y-115582000D03*
X108463500Y-117082000D03*
X113913500Y-115582000D03*
D22*
X113913500Y-117082000D03*
%TD*%
D20*
%TO.C,C2*%
X86421000Y-76581000D03*
X84521000Y-76581000D03*
%TD*%
D21*
%TO.C,LED9*%
X89413500Y-115582000D03*
X89413500Y-117082000D03*
X94863500Y-115582000D03*
D22*
X94863500Y-117082000D03*
%TD*%
D20*
%TO.C,C15*%
X76896000Y-152781000D03*
X74996000Y-152781000D03*
%TD*%
D21*
%TO.C,LED1*%
X70363500Y-77482000D03*
X70363500Y-78982000D03*
X75813500Y-77482000D03*
D22*
X75813500Y-78982000D03*
%TD*%
D21*
%TO.C,LED12*%
X70363500Y-134632000D03*
X70363500Y-136132000D03*
X75813500Y-134632000D03*
D22*
X75813500Y-136132000D03*
%TD*%
D19*
%TO.C,D15*%
X89408000Y-156082000D03*
X89408000Y-152782000D03*
%TD*%
D20*
%TO.C,C14*%
X105471000Y-133731000D03*
X103571000Y-133731000D03*
%TD*%
D21*
%TO.C,LED14*%
X108463500Y-134632000D03*
X108463500Y-136132000D03*
X113913500Y-134632000D03*
D22*
X113913500Y-136132000D03*
%TD*%
D23*
%TO.C,U2*%
X99680000Y-46040000D03*
X100330000Y-46040000D03*
X100980000Y-46040000D03*
X100980000Y-47940000D03*
X99680000Y-47940000D03*
%TD*%
D24*
%TO.C,C18*%
X97790000Y-50485000D03*
X97790000Y-52385000D03*
%TD*%
D20*
%TO.C,C10*%
X105471000Y-114681000D03*
X103571000Y-114681000D03*
%TD*%
%TO.C,C9*%
X86421000Y-114681000D03*
X84521000Y-114681000D03*
%TD*%
%TO.C,C5*%
X67371000Y-95631000D03*
X65471000Y-95631000D03*
%TD*%
D21*
%TO.C,LED8*%
X70363500Y-115582000D03*
X70363500Y-117082000D03*
X75813500Y-115582000D03*
D22*
X75813500Y-117082000D03*
%TD*%
D20*
%TO.C,C3*%
X105471000Y-76581000D03*
X103571000Y-76581000D03*
%TD*%
D19*
%TO.C,D14*%
X117983000Y-137032000D03*
X117983000Y-133732000D03*
%TD*%
D20*
%TO.C,C4*%
X124521000Y-76581000D03*
X122621000Y-76581000D03*
%TD*%
%TO.C,C7*%
X105410000Y-95631000D03*
X103510000Y-95631000D03*
%TD*%
D19*
%TO.C,D8*%
X79883000Y-117982000D03*
X79883000Y-114682000D03*
%TD*%
D25*
%TO.C,R1*%
X102870000Y-50522500D03*
X102870000Y-52347500D03*
%TD*%
D21*
%TO.C,LED7*%
X108463500Y-96532000D03*
X108463500Y-98032000D03*
X113913500Y-96532000D03*
D22*
X113913500Y-98032000D03*
%TD*%
D19*
%TO.C,D4*%
X137033000Y-80009000D03*
X137033000Y-76709000D03*
%TD*%
%TO.C,D1*%
X79883000Y-79882000D03*
X79883000Y-76582000D03*
%TD*%
D21*
%TO.C,LED2*%
X89413500Y-77482000D03*
X89413500Y-78982000D03*
X94863500Y-77482000D03*
D22*
X94863500Y-78982000D03*
%TD*%
D21*
%TO.C,LED11*%
X127513500Y-106057000D03*
X127513500Y-107557000D03*
X132963500Y-106057000D03*
D22*
X132963500Y-107557000D03*
%TD*%
D19*
%TO.C,D10*%
X117983000Y-117982000D03*
X117983000Y-114682000D03*
%TD*%
D20*
%TO.C,C12*%
X67371000Y-133731000D03*
X65471000Y-133731000D03*
%TD*%
D19*
%TO.C,D16*%
X117983000Y-156082000D03*
X117983000Y-152782000D03*
%TD*%
M02*
