%TF.GenerationSoftware,KiCad,Pcbnew,(6.0.10-0)*%
%TF.CreationDate,2023-02-04T09:28:37-08:00*%
%TF.ProjectId,ElephantKeyboard,456c6570-6861-46e7-944b-6579626f6172,rev?*%
%TF.SameCoordinates,Original*%
%TF.FileFunction,Paste,Bot*%
%TF.FilePolarity,Positive*%
%FSLAX46Y46*%
G04 Gerber Fmt 4.6, Leading zero omitted, Abs format (unit mm)*
G04 Created by KiCad (PCBNEW (6.0.10-0)) date 2023-02-04 09:28:37*
%MOMM*%
%LPD*%
G01*
G04 APERTURE LIST*
G04 Aperture macros list*
%AMRoundRect*
0 Rectangle with rounded corners*
0 $1 Rounding radius*
0 $2 $3 $4 $5 $6 $7 $8 $9 X,Y pos of 4 corners*
0 Add a 4 corners polygon primitive as box body*
4,1,4,$2,$3,$4,$5,$6,$7,$8,$9,$2,$3,0*
0 Add four circle primitives for the rounded corners*
1,1,$1+$1,$2,$3*
1,1,$1+$1,$4,$5*
1,1,$1+$1,$6,$7*
1,1,$1+$1,$8,$9*
0 Add four rect primitives between the rounded corners*
20,1,$1+$1,$2,$3,$4,$5,0*
20,1,$1+$1,$4,$5,$6,$7,0*
20,1,$1+$1,$6,$7,$8,$9,0*
20,1,$1+$1,$8,$9,$2,$3,0*%
%AMFreePoly0*
4,1,18,-0.410000,0.593000,-0.403758,0.624380,-0.385983,0.650983,-0.359380,0.668758,-0.328000,0.675000,0.328000,0.675000,0.359380,0.668758,0.385983,0.650983,0.403758,0.624380,0.410000,0.593000,0.410000,-0.593000,0.403758,-0.624380,0.385983,-0.650983,0.359380,-0.668758,0.328000,-0.675000,0.000000,-0.675000,-0.410000,-0.265000,-0.410000,0.593000,-0.410000,0.593000,$1*%
G04 Aperture macros list end*
%ADD10RoundRect,0.200000X-1.075000X-1.050000X1.075000X-1.050000X1.075000X1.050000X-1.075000X1.050000X0*%
%ADD11R,1.200000X0.900000*%
%ADD12RoundRect,0.250000X0.250000X0.475000X-0.250000X0.475000X-0.250000X-0.475000X0.250000X-0.475000X0*%
%ADD13RoundRect,0.082000X0.593000X-0.328000X0.593000X0.328000X-0.593000X0.328000X-0.593000X-0.328000X0*%
%ADD14FreePoly0,90.000000*%
%ADD15R,0.400000X0.650000*%
%ADD16RoundRect,0.250000X-0.475000X0.250000X-0.475000X-0.250000X0.475000X-0.250000X0.475000X0.250000X0*%
%ADD17RoundRect,0.250000X-0.450000X0.262500X-0.450000X-0.262500X0.450000X-0.262500X0.450000X0.262500X0*%
G04 APERTURE END LIST*
D10*
%TO.C,MX7*%
X104103500Y-89662000D03*
X117030500Y-87122000D03*
%TD*%
%TO.C,MX10*%
X104103500Y-108712000D03*
X117030500Y-106172000D03*
%TD*%
%TO.C,MX8*%
X66003500Y-108712000D03*
X78930500Y-106172000D03*
%TD*%
%TO.C,MX13*%
X85053500Y-127762000D03*
X97980500Y-125222000D03*
%TD*%
%TO.C,MX6*%
X85053500Y-89662000D03*
X97980500Y-87122000D03*
%TD*%
%TO.C,MX17*%
X123153500Y-137287000D03*
X136080500Y-134747000D03*
%TD*%
%TO.C,MX11*%
X123153500Y-99187000D03*
X136080500Y-96647000D03*
%TD*%
%TO.C,MX3*%
X104103500Y-70612000D03*
X117030500Y-68072000D03*
%TD*%
%TO.C,MX5*%
X66003500Y-89662000D03*
X78930500Y-87122000D03*
%TD*%
%TO.C,MX4*%
X123153500Y-70612000D03*
X136080500Y-68072000D03*
%TD*%
%TO.C,MX14*%
X104103500Y-127762000D03*
X117030500Y-125222000D03*
%TD*%
%TO.C,MX2*%
X85053500Y-70612000D03*
X97980500Y-68072000D03*
%TD*%
%TO.C,MX15*%
X75528500Y-146812000D03*
X88455500Y-144272000D03*
%TD*%
%TO.C,MX9*%
X85053500Y-108712000D03*
X97980500Y-106172000D03*
%TD*%
%TO.C,MX16*%
X104103500Y-146812000D03*
X117030500Y-144272000D03*
%TD*%
%TO.C,MX12*%
X66003500Y-127762000D03*
X78930500Y-125222000D03*
%TD*%
%TO.C,MX1*%
X66003500Y-70612000D03*
X78930500Y-68072000D03*
%TD*%
D11*
%TO.C,D13*%
X98933000Y-137032000D03*
X98933000Y-133732000D03*
%TD*%
%TO.C,D11*%
X137033000Y-108457000D03*
X137033000Y-105157000D03*
%TD*%
D12*
%TO.C,C17*%
X124521000Y-143256000D03*
X122621000Y-143256000D03*
%TD*%
D13*
%TO.C,LED15*%
X79888500Y-153682000D03*
X79888500Y-155182000D03*
X85338500Y-153682000D03*
D14*
X85338500Y-155182000D03*
%TD*%
D11*
%TO.C,D7*%
X117983000Y-98932000D03*
X117983000Y-95632000D03*
%TD*%
D12*
%TO.C,C11*%
X124521000Y-105156000D03*
X122621000Y-105156000D03*
%TD*%
D11*
%TO.C,D17*%
X137033000Y-146557000D03*
X137033000Y-143257000D03*
%TD*%
D13*
%TO.C,LED5*%
X70363500Y-96532000D03*
X70363500Y-98032000D03*
X75813500Y-96532000D03*
D14*
X75813500Y-98032000D03*
%TD*%
D13*
%TO.C,LED3*%
X108463500Y-77482000D03*
X108463500Y-78982000D03*
X113913500Y-77482000D03*
D14*
X113913500Y-78982000D03*
%TD*%
D11*
%TO.C,D5*%
X79883000Y-98932000D03*
X79883000Y-95632000D03*
%TD*%
D13*
%TO.C,LED13*%
X89413500Y-134632000D03*
X89413500Y-136132000D03*
X94863500Y-134632000D03*
D14*
X94863500Y-136132000D03*
%TD*%
D11*
%TO.C,D6*%
X98933000Y-98932000D03*
X98933000Y-95632000D03*
%TD*%
D13*
%TO.C,LED17*%
X127513500Y-144157000D03*
X127513500Y-145657000D03*
X132963500Y-144157000D03*
D14*
X132963500Y-145657000D03*
%TD*%
D12*
%TO.C,C6*%
X86421000Y-95631000D03*
X84521000Y-95631000D03*
%TD*%
D11*
%TO.C,D3*%
X117983000Y-80009000D03*
X117983000Y-76709000D03*
%TD*%
%TO.C,D2*%
X98933000Y-79882000D03*
X98933000Y-76582000D03*
%TD*%
D13*
%TO.C,LED6*%
X89413500Y-96532000D03*
X89413500Y-98032000D03*
X94863500Y-96532000D03*
D14*
X94863500Y-98032000D03*
%TD*%
D12*
%TO.C,C1*%
X67371000Y-76581000D03*
X65471000Y-76581000D03*
%TD*%
D13*
%TO.C,LED16*%
X108463500Y-153682000D03*
X108463500Y-155182000D03*
X113913500Y-153682000D03*
D14*
X113913500Y-155182000D03*
%TD*%
D12*
%TO.C,C8*%
X67371000Y-114681000D03*
X65471000Y-114681000D03*
%TD*%
%TO.C,C16*%
X105471000Y-152781000D03*
X103571000Y-152781000D03*
%TD*%
D11*
%TO.C,D9*%
X98933000Y-117982000D03*
X98933000Y-114682000D03*
%TD*%
D12*
%TO.C,C13*%
X86421000Y-133731000D03*
X84521000Y-133731000D03*
%TD*%
D13*
%TO.C,LED4*%
X127513500Y-77482000D03*
X127513500Y-78982000D03*
X132963500Y-77482000D03*
D14*
X132963500Y-78982000D03*
%TD*%
D11*
%TO.C,D12*%
X79883000Y-137032000D03*
X79883000Y-133732000D03*
%TD*%
D13*
%TO.C,LED10*%
X108463500Y-115582000D03*
X108463500Y-117082000D03*
X113913500Y-115582000D03*
D14*
X113913500Y-117082000D03*
%TD*%
D12*
%TO.C,C2*%
X86421000Y-76581000D03*
X84521000Y-76581000D03*
%TD*%
D13*
%TO.C,LED9*%
X89413500Y-115582000D03*
X89413500Y-117082000D03*
X94863500Y-115582000D03*
D14*
X94863500Y-117082000D03*
%TD*%
D12*
%TO.C,C15*%
X76896000Y-152781000D03*
X74996000Y-152781000D03*
%TD*%
D13*
%TO.C,LED1*%
X70363500Y-77482000D03*
X70363500Y-78982000D03*
X75813500Y-77482000D03*
D14*
X75813500Y-78982000D03*
%TD*%
D13*
%TO.C,LED12*%
X70363500Y-134632000D03*
X70363500Y-136132000D03*
X75813500Y-134632000D03*
D14*
X75813500Y-136132000D03*
%TD*%
D11*
%TO.C,D15*%
X89408000Y-156082000D03*
X89408000Y-152782000D03*
%TD*%
D12*
%TO.C,C14*%
X105471000Y-133731000D03*
X103571000Y-133731000D03*
%TD*%
D13*
%TO.C,LED14*%
X108463500Y-134632000D03*
X108463500Y-136132000D03*
X113913500Y-134632000D03*
D14*
X113913500Y-136132000D03*
%TD*%
D15*
%TO.C,U2*%
X99680000Y-46040000D03*
X100330000Y-46040000D03*
X100980000Y-46040000D03*
X100980000Y-47940000D03*
X99680000Y-47940000D03*
%TD*%
D16*
%TO.C,C18*%
X97790000Y-50485000D03*
X97790000Y-52385000D03*
%TD*%
D12*
%TO.C,C10*%
X105471000Y-114681000D03*
X103571000Y-114681000D03*
%TD*%
%TO.C,C9*%
X86421000Y-114681000D03*
X84521000Y-114681000D03*
%TD*%
%TO.C,C5*%
X67371000Y-95631000D03*
X65471000Y-95631000D03*
%TD*%
D13*
%TO.C,LED8*%
X70363500Y-115582000D03*
X70363500Y-117082000D03*
X75813500Y-115582000D03*
D14*
X75813500Y-117082000D03*
%TD*%
D12*
%TO.C,C3*%
X105471000Y-76581000D03*
X103571000Y-76581000D03*
%TD*%
D11*
%TO.C,D14*%
X117983000Y-137032000D03*
X117983000Y-133732000D03*
%TD*%
D12*
%TO.C,C4*%
X124521000Y-76581000D03*
X122621000Y-76581000D03*
%TD*%
%TO.C,C7*%
X105410000Y-95631000D03*
X103510000Y-95631000D03*
%TD*%
D11*
%TO.C,D8*%
X79883000Y-117982000D03*
X79883000Y-114682000D03*
%TD*%
D17*
%TO.C,R1*%
X102870000Y-50522500D03*
X102870000Y-52347500D03*
%TD*%
D13*
%TO.C,LED7*%
X108463500Y-96532000D03*
X108463500Y-98032000D03*
X113913500Y-96532000D03*
D14*
X113913500Y-98032000D03*
%TD*%
D11*
%TO.C,D4*%
X137033000Y-80009000D03*
X137033000Y-76709000D03*
%TD*%
%TO.C,D1*%
X79883000Y-79882000D03*
X79883000Y-76582000D03*
%TD*%
D13*
%TO.C,LED2*%
X89413500Y-77482000D03*
X89413500Y-78982000D03*
X94863500Y-77482000D03*
D14*
X94863500Y-78982000D03*
%TD*%
D13*
%TO.C,LED11*%
X127513500Y-106057000D03*
X127513500Y-107557000D03*
X132963500Y-106057000D03*
D14*
X132963500Y-107557000D03*
%TD*%
D11*
%TO.C,D10*%
X117983000Y-117982000D03*
X117983000Y-114682000D03*
%TD*%
D12*
%TO.C,C12*%
X67371000Y-133731000D03*
X65471000Y-133731000D03*
%TD*%
D11*
%TO.C,D16*%
X117983000Y-156082000D03*
X117983000Y-152782000D03*
%TD*%
M02*
