M48
; DRILL file {KiCad (6.0.10-0)} date Saturday, 04 February 2023 at 09:28:37
; FORMAT={-:-/ absolute / inch / decimal}
; #@! TF.CreationDate,2023-02-04T09:28:37-08:00
; #@! TF.GenerationSoftware,Kicad,Pcbnew,(6.0.10-0)
; #@! TF.FileFunction,NonPlated,1,2,NPTH
FMAT,2
INCH
; #@! TA.AperFunction,NonPlated,NPTH,ComponentDrill
T1C0.0670
; #@! TA.AperFunction,NonPlated,NPTH,ComponentDrill
T2C0.1181
; #@! TA.AperFunction,NonPlated,NPTH,ComponentDrill
T3C0.1200
; #@! TA.AperFunction,NonPlated,NPTH,ComponentDrill
T4C0.1570
%
G90
G05
T1
X2.6775Y-2.88
X2.6775Y-3.63
X2.6775Y-4.38
X2.6775Y-5.13
X3.0525Y-5.88
X3.0775Y-2.88
X3.0775Y-3.63
X3.0775Y-4.38
X3.0775Y-5.13
X3.4275Y-2.88
X3.4275Y-3.63
X3.4275Y-4.38
X3.4275Y-5.13
X3.4525Y-5.88
X3.8275Y-2.88
X3.8275Y-3.63
X3.8275Y-4.38
X3.8275Y-5.13
X4.1775Y-2.88
X4.1775Y-3.63
X4.1775Y-4.38
X4.1775Y-5.13
X4.1775Y-5.88
X4.5775Y-2.88
X4.5775Y-3.63
X4.5775Y-4.38
X4.5775Y-5.13
X4.5775Y-5.88
X4.9275Y-2.88
X4.9275Y-4.005
X4.9275Y-5.505
X5.3275Y-2.88
X5.3275Y-4.005
X5.3275Y-5.505
T2
X2.7275Y-2.78
X2.7275Y-3.53
X2.7275Y-4.28
X2.7275Y-5.03
X2.9775Y-2.68
X2.9775Y-3.43
X2.9775Y-4.18
X2.9775Y-4.93
X3.1025Y-5.78
X3.3525Y-5.68
X3.4775Y-2.78
X3.4775Y-3.53
X3.4775Y-4.28
X3.4775Y-5.03
X3.7275Y-2.68
X3.7275Y-3.43
X3.7275Y-4.18
X3.7275Y-4.93
X4.2275Y-2.78
X4.2275Y-3.53
X4.2275Y-4.28
X4.2275Y-5.03
X4.2275Y-5.78
X4.4775Y-2.68
X4.4775Y-3.43
X4.4775Y-4.18
X4.4775Y-4.93
X4.4775Y-5.68
X4.9775Y-2.78
X4.9775Y-3.905
X4.9775Y-5.405
X5.2275Y-2.68
X5.2275Y-3.805
X5.2275Y-5.305
T3
X2.7825Y-5.605
X3.7225Y-5.605
X5.4025Y-3.535
X5.4025Y-4.475
X5.4025Y-5.035
X5.4025Y-5.975
T4
X2.7825Y-6.205
X2.8775Y-2.88
X2.8775Y-3.63
X2.8775Y-4.38
X2.8775Y-5.13
X3.2525Y-5.88
X3.6275Y-2.88
X3.6275Y-3.63
X3.6275Y-4.38
X3.6275Y-5.13
X3.7225Y-6.205
X4.3775Y-2.88
X4.3775Y-3.63
X4.3775Y-4.38
X4.3775Y-5.13
X4.3775Y-5.88
X4.8025Y-3.535
X4.8025Y-4.475
X4.8025Y-5.035
X4.8025Y-5.975
X5.1275Y-2.88
X5.1275Y-4.005
X5.1275Y-5.505
T0
M30
