M48
; DRILL file {KiCad (6.0.10-0)} date Saturday, 04 February 2023 at 09:28:37
; FORMAT={-:-/ absolute / inch / decimal}
; #@! TF.CreationDate,2023-02-04T09:28:37-08:00
; #@! TF.GenerationSoftware,Kicad,Pcbnew,(6.0.10-0)
; #@! TF.FileFunction,Plated,1,2,PTH
FMAT,2
INCH
; #@! TA.AperFunction,Plated,PTH,ViaDrill
T1C0.0157
; #@! TA.AperFunction,Plated,PTH,ComponentDrill
T2C0.0433
%
G90
G05
T1
X2.515Y-2.78
X2.515Y-3.53
X2.515Y-4.28
X2.515Y-5.03
X2.565Y-3.13
X2.565Y-3.88
X2.565Y-4.63
X2.565Y-5.38
X2.615Y-3.13
X2.615Y-3.88
X2.615Y-4.63
X2.615Y-5.38
X2.715Y-5.98
X2.865Y-5.955
X2.895Y-5.78
X2.91Y-5.475
X2.99Y-6.13
X3.065Y-2.405
X3.065Y-3.025
X3.065Y-3.215
X3.065Y-3.775
X3.065Y-3.965
X3.065Y-4.525
X3.065Y-4.715
X3.065Y-5.275
X3.095Y-5.955
X3.115Y-2.405
X3.165Y-2.405
X3.215Y-2.405
X3.23Y-3.94
X3.23Y-4.69
X3.23Y-5.44
X3.265Y-2.78
X3.265Y-3.53
X3.265Y-4.28
X3.265Y-5.03
X3.315Y-2.455
X3.315Y-3.23
X3.315Y-3.88
X3.315Y-4.63
X3.315Y-5.38
X3.365Y-3.13
X3.365Y-3.88
X3.365Y-4.63
X3.365Y-5.38
X3.435Y-6.025
X3.445Y-5.43
X3.455Y-3.18
X3.455Y-3.93
X3.455Y-4.68
X3.81Y-4.525
X3.815Y-3.025
X3.815Y-3.775
X3.815Y-5.275
X4.015Y-2.78
X4.015Y-3.53
X4.015Y-4.28
X4.015Y-5.03
X4.015Y-5.78
X4.065Y-3.13
X4.065Y-3.88
X4.065Y-4.63
X4.065Y-5.38
X4.065Y-6.18
X4.115Y-3.13
X4.115Y-3.88
X4.115Y-4.63
X4.115Y-5.38
X4.115Y-6.13
X4.2Y-3.18
X4.2Y-4.68
X4.205Y-3.93
X4.205Y-5.43
X4.24Y-6.18
X4.56Y-3.03
X4.56Y-4.525
X4.56Y-5.275
X4.56Y-6.025
X4.565Y-3.775
X4.765Y-2.78
X4.765Y-3.805
X4.765Y-5.305
X4.815Y-3.13
X4.815Y-4.255
X4.815Y-5.755
X4.865Y-3.13
X4.865Y-4.255
X4.865Y-5.755
X4.955Y-3.18
X4.96Y-4.305
X5.31Y-4.15
X5.31Y-5.65
X5.315Y-3.03
T2
X2.55Y-1.55
X2.55Y-2.15
X2.65Y-1.55
X2.65Y-2.15
X2.75Y-1.55
X2.75Y-2.15
X2.85Y-1.55
X2.85Y-2.15
X2.95Y-1.55
X2.95Y-2.15
X3.05Y-1.55
X3.05Y-2.15
X3.15Y-1.55
X3.15Y-2.15
X3.25Y-1.55
X3.25Y-2.15
X3.35Y-1.55
X3.35Y-2.15
X3.45Y-1.55
X3.45Y-2.15
X3.55Y-1.55
X3.55Y-2.15
X3.65Y-1.55
X3.65Y-2.15
T0
M30
