999
"DXF R12 Output" (www.mydxf.blogspot.com)
 0 
SECTION
 2 
HEADER
 9 
$ACADVER
 1 
AC1009
 9 
$EXTMIN
 10 
 0 
 20 
 0 
 9 
$EXTMAX
 10 
 8.5 
 20 
 11 
 0 
ENDSEC
 0 
SECTION
 2 
ENTITIES
0
LINE
8
Layer 1
10
17.000300
20
283.000000
11
15.830389
21
282.764969
0
LINE
8
Layer 1
10
15.830389
20
282.764969
11
14.876938
21
282.123250
0
LINE
8
Layer 1
10
14.876938
20
282.123250
11
14.235092
21
281.169906
0
LINE
8
Layer 1
10
14.235092
20
281.169906
11
14.000000
21
280.000000
0
LINE
8
Layer 1
10
14.000000
20
280.000000
11
14.000000
21
159.000000
0
LINE
8
Layer 1
10
14.000000
20
159.000000
11
14.235091
21
157.830068
0
LINE
8
Layer 1
10
14.235091
20
157.830068
11
14.876938
21
156.876608
0
LINE
8
Layer 1
10
14.876938
20
156.876608
11
15.830397
21
156.234761
0
LINE
8
Layer 1
10
15.830397
20
156.234761
11
17.000330
21
155.999670
0
LINE
8
Layer 1
10
17.000330
20
155.999670
11
93.000300
21
156.000000
0
LINE
8
Layer 1
10
93.000300
20
156.000000
11
94.170155
21
156.235091
0
LINE
8
Layer 1
10
94.170155
20
156.235091
11
95.123436
21
156.876937
0
LINE
8
Layer 1
10
95.123436
20
156.876937
11
95.765101
21
157.830398
0
LINE
8
Layer 1
10
95.765101
20
157.830398
11
96.000110
21
159.000330
0
LINE
8
Layer 1
10
96.000110
20
159.000330
11
96.000200
21
280.000000
0
LINE
8
Layer 1
10
96.000200
20
280.000000
11
95.765191
21
281.169874
0
LINE
8
Layer 1
10
95.765191
20
281.169874
11
95.123526
21
282.123156
0
LINE
8
Layer 1
10
95.123526
20
282.123156
11
94.170245
21
282.764815
0
LINE
8
Layer 1
10
94.170245
20
282.764815
11
93.000390
21
282.999820
0
LINE
8
Layer 1
10
93.000390
20
282.999820
11
17.000300
21
283.000000
0
LINE
8
Layer 1
10
18.000240
20
281.000120
11
92.000400
21
281.000000
0
LINE
8
Layer 1
10
92.000400
20
281.000000
11
92.780319
21
280.843331
0
LINE
8
Layer 1
10
92.780319
20
280.843331
11
93.415840
21
280.415560
0
LINE
8
Layer 1
10
93.415840
20
280.415560
11
93.843611
21
279.780039
0
LINE
8
Layer 1
10
93.843611
20
279.780039
11
94.000280
21
279.000120
0
LINE
8
Layer 1
10
94.000280
20
279.000120
11
94.000300
21
160.000000
0
LINE
8
Layer 1
10
94.000300
20
160.000000
11
93.843631
21
159.220085
0
LINE
8
Layer 1
10
93.843631
20
159.220085
11
93.415860
21
158.584564
0
LINE
8
Layer 1
10
93.415860
20
158.584564
11
92.780339
21
158.156790
0
LINE
8
Layer 1
10
92.780339
20
158.156790
11
92.000420
21
158.000120
0
LINE
8
Layer 1
10
92.000420
20
158.000120
11
18.000300
21
158.000000
0
LINE
8
Layer 1
10
18.000300
20
158.000000
11
17.220383
21
158.156670
0
LINE
8
Layer 1
10
17.220383
20
158.156670
11
16.584865
21
158.584444
0
LINE
8
Layer 1
10
16.584865
20
158.584444
11
16.157097
21
159.219965
0
LINE
8
Layer 1
10
16.157097
20
159.219965
11
16.000430
21
159.999880
0
LINE
8
Layer 1
10
16.000430
20
159.999880
11
16.000400
21
279.000000
0
LINE
8
Layer 1
10
16.000400
20
279.000000
11
16.157067
21
279.779919
0
LINE
8
Layer 1
10
16.157067
20
279.779919
11
16.584835
21
280.415440
0
LINE
8
Layer 1
10
16.584835
20
280.415440
11
17.220353
21
280.843211
0
LINE
8
Layer 1
10
17.220353
20
280.843211
11
18.000270
21
280.999880
0
LINE
8
Layer 1
10
18.000270
20
280.999880
11
18.000240
21
281.000120
 0 
ENDSEC
 0 
EOF