<?xml version="1.0" encoding="UTF-8" standalone="no"?>
<svg
   width="210mm"
   height="297mm"
   viewBox="0 0 210 297"
   version="1.1"
   id="svg7746"
   inkscape:version="1.2.2 (b0a8486, 2022-12-01)"
   sodipodi:docname="elephantkeyboard_case_layer1.svg"
   xmlns:inkscape="http://www.inkscape.org/namespaces/inkscape"
   xmlns:sodipodi="http://sodipodi.sourceforge.net/DTD/sodipodi-0.dtd"
   xmlns="http://www.w3.org/2000/svg"
   xmlns:svg="http://www.w3.org/2000/svg"
   xmlns:rdf="http://www.w3.org/1999/02/22-rdf-syntax-ns#"
   xmlns:cc="http://creativecommons.org/ns#"
   xmlns:dc="http://purl.org/dc/elements/1.1/">
  <defs
     id="defs7740" />
  <sodipodi:namedview
     id="base"
     pagecolor="#ffffff"
     bordercolor="#666666"
     borderopacity="1.0"
     inkscape:pageopacity="0.0"
     inkscape:pageshadow="2"
     inkscape:zoom="2"
     inkscape:cx="344"
     inkscape:cy="289.5"
     inkscape:document-units="mm"
     inkscape:current-layer="layer1"
     inkscape:document-rotation="0"
     showgrid="true"
     inkscape:window-width="2454"
     inkscape:window-height="1274"
     inkscape:window-x="2607"
     inkscape:window-y="25"
     inkscape:window-maximized="0"
     inkscape:snap-midpoints="false"
     inkscape:showpageshadow="2"
     inkscape:pagecheckerboard="0"
     inkscape:deskcolor="#d1d1d1">
    <inkscape:grid
       type="xygrid"
       id="grid19082"
       empspacing="10"
       spacingx="0.5"
       spacingy="0.5"
       snapvisiblegridlinesonly="false" />
  </sodipodi:namedview>
  <metadata
     id="metadata7743">
    <rdf:RDF>
      <cc:Work
         rdf:about="">
        <dc:format>image/svg+xml</dc:format>
        <dc:type
           rdf:resource="http://purl.org/dc/dcmitype/StillImage" />
      </cc:Work>
    </rdf:RDF>
  </metadata>
  <g
     inkscape:label="Layer 1"
     inkscape:groupmode="layer"
     id="layer1">
    <path
       id="rect4042-6"
       style="fill:#ff0000;stroke-width:0;stroke-dasharray:none"
       d="M 115.00022 7.0000895 C 110.56822 7.0000895 107.00019 10.568139 107.00019 15.000118 L 107.00019 140.00024 C 107.00019 144.43224 110.56822 147.99975 115.00022 147.99975 L 194.99998 147.99975 C 199.43198 147.99975 203.00001 144.43224 203.00001 140.00024 L 203.00001 15.000118 C 203.00001 10.568139 199.43198 7.0000895 194.99998 7.0000895 L 115.00022 7.0000895 z M 111.99988 10.500134 A 1.5 1.5 0 0 1 113.50005 11.999784 A 1.5 1.5 0 0 1 111.99988 13.499951 A 1.5 1.5 0 0 1 110.50023 11.999784 A 1.5 1.5 0 0 1 111.99988 10.500134 z M 197.9998 10.500134 A 1.5 1.5 0 0 1 199.49997 11.999784 A 1.5 1.5 0 0 1 197.9998 13.499951 A 1.5 1.5 0 0 1 196.50015 11.999784 A 1.5 1.5 0 0 1 197.9998 10.500134 z M 117.00009 14.000179 L 193.00011 14.000179 C 194.66206 14.000179 195.99992 15.338006 195.99992 16.999996 L 195.99992 137.99985 C 195.99992 139.6618 194.66206 141.00018 193.00011 141.00018 L 117.00009 141.00018 C 115.33814 141.00018 113.99976 139.6618 113.99976 137.99985 L 113.99976 16.999996 C 113.99976 15.338006 115.33814 14.000179 117.00009 14.000179 z M 111.99988 141.49989 A 1.5 1.5 0 0 1 113.50005 143.00006 A 1.5 1.5 0 0 1 111.99988 144.50022 A 1.5 1.5 0 0 1 110.50023 143.00006 A 1.5 1.5 0 0 1 111.99988 141.49989 z M 197.9998 141.49989 A 1.5 1.5 0 0 1 199.49997 143.00006 A 1.5 1.5 0 0 1 197.9998 144.50022 A 1.5 1.5 0 0 1 196.50015 143.00006 A 1.5 1.5 0 0 1 197.9998 141.49989 z " />
  </g>
</svg>
