<?xml version="1.0" encoding="UTF-8" standalone="no"?>
<svg
   width="210mm"
   height="297mm"
   viewBox="0 0 210 297"
   version="1.1"
   id="svg7746"
   inkscape:version="1.2.2 (b0a8486, 2022-12-01)"
   sodipodi:docname="elephantkeyboard_case_layer0.svg"
   xmlns:inkscape="http://www.inkscape.org/namespaces/inkscape"
   xmlns:sodipodi="http://sodipodi.sourceforge.net/DTD/sodipodi-0.dtd"
   xmlns="http://www.w3.org/2000/svg"
   xmlns:svg="http://www.w3.org/2000/svg"
   xmlns:rdf="http://www.w3.org/1999/02/22-rdf-syntax-ns#"
   xmlns:cc="http://creativecommons.org/ns#"
   xmlns:dc="http://purl.org/dc/elements/1.1/">
  <defs
     id="defs7740" />
  <sodipodi:namedview
     id="base"
     pagecolor="#ffffff"
     bordercolor="#666666"
     borderopacity="1.0"
     inkscape:pageopacity="0.0"
     inkscape:pageshadow="2"
     inkscape:zoom="2"
     inkscape:cx="344"
     inkscape:cy="289.5"
     inkscape:document-units="mm"
     inkscape:current-layer="layer1"
     inkscape:document-rotation="0"
     showgrid="true"
     inkscape:window-width="2454"
     inkscape:window-height="1274"
     inkscape:window-x="2607"
     inkscape:window-y="25"
     inkscape:window-maximized="0"
     inkscape:snap-midpoints="false"
     inkscape:showpageshadow="2"
     inkscape:pagecheckerboard="0"
     inkscape:deskcolor="#d1d1d1">
    <inkscape:grid
       type="xygrid"
       id="grid19082"
       empspacing="10"
       spacingx="0.5"
       spacingy="0.5"
       snapvisiblegridlinesonly="false" />
  </sodipodi:namedview>
  <metadata
     id="metadata7743">
    <rdf:RDF>
      <cc:Work
         rdf:about="">
        <dc:format>image/svg+xml</dc:format>
        <dc:type
           rdf:resource="http://purl.org/dc/dcmitype/StillImage" />
      </cc:Work>
    </rdf:RDF>
  </metadata>
  <g
     inkscape:label="Layer 1"
     inkscape:groupmode="layer"
     id="layer1">
    <path
       id="rect4042"
       style="fill:#ff0000;stroke-width:0;stroke-dasharray:none"
       d="M 15.000118 7.0000895 C 10.56815 7.0000895 7.0000895 10.568151 7.0000895 15.000118 L 7.0000895 140.00024 C 7.0000895 144.43224 10.56815 147.99975 15.000118 147.99975 L 94.999886 147.99975 C 99.431854 147.99975 102.99991 144.43224 102.99991 140.00024 L 102.99991 15.000118 C 102.99991 10.568151 99.431854 7.0000895 94.999886 7.0000895 L 15.000118 7.0000895 z M 11.999784 10.500134 A 1.5 1.5 0 0 1 13.499951 11.999784 A 1.5 1.5 0 0 1 11.999784 13.499951 A 1.5 1.5 0 0 1 10.500134 11.999784 A 1.5 1.5 0 0 1 11.999784 10.500134 z M 98.00022 10.500134 A 1.5 1.5 0 0 1 99.49987 11.999784 A 1.5 1.5 0 0 1 98.00022 13.499951 A 1.5 1.5 0 0 1 96.500053 11.999784 A 1.5 1.5 0 0 1 98.00022 10.500134 z M 17.999935 16.000057 L 59.000016 16.000057 C 60.108012 16.000057 60.999894 16.891939 60.999894 17.999935 L 60.999894 33.999992 C 60.999894 35.107988 60.108012 35.99987 59.000016 35.99987 L 17.999935 35.99987 C 16.891939 35.99987 16.000057 35.107988 16.000057 33.999992 L 16.000057 17.999935 C 16.000057 16.891939 16.891939 16.000057 17.999935 16.000057 z M 17.999935 44.500126 L 92.000069 44.500126 C 93.108066 44.500126 93.999947 45.392007 93.999947 46.500004 L 93.999947 58.499788 C 93.999947 59.607785 93.108066 60.500183 92.000069 60.500183 L 17.999935 60.500183 C 16.891938 60.500183 16.000057 59.607785 16.000057 58.499788 L 16.000057 46.500004 C 16.000057 45.392007 16.891938 44.500126 17.999935 44.500126 z M 17.999935 63.5 L 91.499841 63.5 C 92.607839 63.5 93.500236 64.39188 93.500236 65.499878 L 93.500236 96.500053 C 93.500236 97.608051 92.607839 98.499931 91.499841 98.499931 L 17.999935 98.499931 C 16.891937 98.499931 16.000057 97.608051 16.000057 96.500053 L 16.000057 65.499878 C 16.000057 64.39188 16.891937 63.5 17.999935 63.5 z M 17.999935 101.49975 L 91.499841 101.49975 C 92.607836 101.49975 93.500236 102.39214 93.500236 103.50014 L 93.500236 134.4998 C 93.500236 135.6078 92.607836 136.5002 91.499841 136.5002 L 60.282109 136.5002 L 60.250069 136.5002 L 58.499788 136.5002 L 57.250252 136.5002 C 56.557754 136.5002 56.000199 137.05775 56.000199 137.75025 C 56.000199 138.44275 55.442646 138.99978 54.750146 138.99978 L 54.500033 138.99978 L 51.749813 138.99978 L 48.000171 138.99978 L 43.500187 138.99978 L 17.999935 138.99978 C 16.89194 138.99978 16.000057 138.10791 16.000057 136.99991 L 16.000057 134.4998 L 16.000057 132.00021 L 16.000057 103.50014 C 16.000057 102.39214 16.89194 101.49975 17.999935 101.49975 z M 11.999784 141.49989 A 1.5 1.5 0 0 1 13.499951 143.00006 A 1.5 1.5 0 0 1 11.999784 144.50022 A 1.5 1.5 0 0 1 10.500134 143.00006 A 1.5 1.5 0 0 1 11.999784 141.49989 z M 98.00022 141.49989 A 1.5 1.5 0 0 1 99.49987 143.00006 A 1.5 1.5 0 0 1 98.00022 144.50022 A 1.5 1.5 0 0 1 96.500053 143.00006 A 1.5 1.5 0 0 1 98.00022 141.49989 z " />
  </g>
</svg>
