  0
SECTION
  2
HEADER
  9
$ACADVER
  1
AC1009
  9
$FILLMODE
 70
 0
  9
$SPLFRAME
 70
 1
  9
$EXTMIN
 10
0
 20
0
 30
0.0
  9
$EXTMAX
 10
1058.33
 20
1058.33
 30
0.0
  0
ENDSEC
  0
SECTION
  2
TABLES
  0
TABLE
  2
LAYER
 70
1
  0
LAYER
  2
0
 70
     0
 62
     7
  6
CONTINUOUS
  0
ENDTAB
  0
ENDSEC
  0
SECTION
  2
ENTITIES
  0
LINE
  8
0
 62
     0
 10
78.9464
 20
100.799
 30
0.0
 11
79.1422
 21
100.792
 31
0.0
  0
LINE
  8
0
 62
     0
 10
79.1422
 20
100.792
 30
0.0
 11
79.338
 21
100.769
 31
0.0
  0
LINE
  8
0
 62
     0
 10
79.338
 20
100.769
 30
0.0
 11
79.5295
 21
100.73
 31
0.0
  0
LINE
  8
0
 62
     0
 10
79.5295
 20
100.73
 30
0.0
 11
79.7183
 21
100.677
 31
0.0
  0
LINE
  8
0
 62
     0
 10
79.7183
 20
100.677
 30
0.0
 11
79.9028
 21
100.609
 31
0.0
  0
LINE
  8
0
 62
     0
 10
79.9028
 20
100.609
 30
0.0
 11
80.0806
 21
100.526
 31
0.0
  0
LINE
  8
0
 62
     0
 10
80.0806
 20
100.526
 30
0.0
 11
80.2527
 21
100.432
 31
0.0
  0
LINE
  8
0
 62
     0
 10
80.2527
 20
100.432
 30
0.0
 11
80.4153
 21
100.323
 31
0.0
  0
LINE
  8
0
 62
     0
 10
80.4153
 20
100.323
 30
0.0
 11
80.5699
 21
100.201
 31
0.0
  0
LINE
  8
0
 62
     0
 10
80.5699
 20
100.201
 30
0.0
 11
80.7131
 21
100.068
 31
0.0
  0
LINE
  8
0
 62
     0
 10
80.7131
 20
100.068
 30
0.0
 11
80.8482
 21
99.9229
 31
0.0
  0
LINE
  8
0
 62
     0
 10
80.8482
 20
99.9229
 30
0.0
 11
80.9681
 21
99.7687
 31
0.0
  0
LINE
  8
0
 62
     0
 10
80.9681
 20
99.7687
 30
0.0
 11
81.0768
 21
99.6061
 31
0.0
  0
LINE
  8
0
 62
     0
 10
81.0768
 20
99.6061
 30
0.0
 11
81.1735
 21
99.4336
 31
0.0
  0
LINE
  8
0
 62
     0
 10
81.1735
 20
99.4336
 30
0.0
 11
81.256
 21
99.2558
 31
0.0
  0
LINE
  8
0
 62
     0
 10
81.256
 20
99.2558
 30
0.0
 11
81.3234
 21
99.0713
 31
0.0
  0
LINE
  8
0
 62
     0
 10
81.3234
 20
99.0713
 30
0.0
 11
81.376
 21
98.8826
 31
0.0
  0
LINE
  8
0
 62
     0
 10
81.376
 20
98.8826
 30
0.0
 11
81.4158
 21
98.691
 31
0.0
  0
LINE
  8
0
 62
     0
 10
81.4158
 20
98.691
 30
0.0
 11
81.438
 21
98.4952
 31
0.0
  0
LINE
  8
0
 62
     0
 10
81.438
 20
98.4952
 30
0.0
 11
81.4462
 21
98.2998
 31
0.0
  0
LINE
  8
0
 62
     0
 10
81.4462
 20
98.2998
 30
0.0
 11
81.4462
 21
2.89801
 31
0.0
  0
LINE
  8
0
 62
     0
 10
81.4462
 20
2.89801
 30
0.0
 11
81.438
 21
2.70233
 31
0.0
  0
LINE
  8
0
 62
     0
 10
81.438
 20
2.70233
 30
0.0
 11
81.4158
 21
2.50665
 31
0.0
  0
LINE
  8
0
 62
     0
 10
81.4158
 20
2.50665
 30
0.0
 11
81.376
 21
2.3151
 31
0.0
  0
LINE
  8
0
 62
     0
 10
81.376
 20
2.3151
 30
0.0
 11
81.3234
 21
2.12631
 31
0.0
  0
LINE
  8
0
 62
     0
 10
81.3234
 20
2.12631
 30
0.0
 11
81.256
 21
1.94166
 31
0.0
  0
LINE
  8
0
 62
     0
 10
81.256
 20
1.94166
 30
0.0
 11
81.1735
 21
1.76389
 31
0.0
  0
LINE
  8
0
 62
     0
 10
81.1735
 20
1.76389
 30
0.0
 11
81.0768
 21
1.59163
 31
0.0
  0
LINE
  8
0
 62
     0
 10
81.0768
 20
1.59163
 30
0.0
 11
80.9681
 21
1.42903
 31
0.0
  0
LINE
  8
0
 62
     0
 10
80.9681
 20
1.42903
 30
0.0
 11
80.8482
 21
1.27468
 31
0.0
  0
LINE
  8
0
 62
     0
 10
80.8482
 20
1.27468
 30
0.0
 11
80.7131
 21
1.13137
 31
0.0
  0
LINE
  8
0
 62
     0
 10
80.7131
 20
1.13137
 30
0.0
 11
80.5699
 21
0.996322
 31
0.0
  0
LINE
  8
0
 62
     0
 10
80.5699
 20
0.996322
 30
0.0
 11
80.4153
 21
0.876434
 31
0.0
  0
LINE
  8
0
 62
     0
 10
80.4153
 20
0.876434
 30
0.0
 11
80.2527
 21
0.767567
 31
0.0
  0
LINE
  8
0
 62
     0
 10
80.2527
 20
0.767567
 30
0.0
 11
80.0806
 21
0.671103
 31
0.0
  0
LINE
  8
0
 62
     0
 10
80.0806
 20
0.671103
 30
0.0
 11
79.9028
 21
0.588423
 31
0.0
  0
LINE
  8
0
 62
     0
 10
79.9028
 20
0.588423
 30
0.0
 11
79.7183
 21
0.520898
 31
0.0
  0
LINE
  8
0
 62
     0
 10
79.7183
 20
0.520898
 30
0.0
 11
79.5295
 21
0.468535
 31
0.0
  0
LINE
  8
0
 62
     0
 10
79.5295
 20
0.468535
 30
0.0
 11
79.338
 21
0.428569
 31
0.0
  0
LINE
  8
0
 62
     0
 10
79.338
 20
0.428569
 30
0.0
 11
79.1422
 21
0.40652
 31
0.0
  0
LINE
  8
0
 62
     0
 10
79.1422
 20
0.40652
 30
0.0
 11
78.945
 21
0.398254
 31
0.0
  0
LINE
  8
0
 62
     0
 10
78.945
 20
0.398254
 30
0.0
 11
2.59485
 21
0.398254
 31
0.0
  0
LINE
  8
0
 62
     0
 10
2.59485
 20
0.398254
 30
0.0
 11
2.39916
 21
0.40652
 31
0.0
  0
LINE
  8
0
 62
     0
 10
2.39916
 20
0.40652
 30
0.0
 11
2.20348
 21
0.428569
 31
0.0
  0
LINE
  8
0
 62
     0
 10
2.20348
 20
0.428569
 30
0.0
 11
2.01194
 21
0.468535
 31
0.0
  0
LINE
  8
0
 62
     0
 10
2.01194
 20
0.468535
 30
0.0
 11
1.82315
 21
0.520898
 31
0.0
  0
LINE
  8
0
 62
     0
 10
1.82315
 20
0.520898
 30
0.0
 11
1.63849
 21
0.588423
 31
0.0
  0
LINE
  8
0
 62
     0
 10
1.63849
 20
0.588423
 30
0.0
 11
1.46072
 21
0.671103
 31
0.0
  0
LINE
  8
0
 62
     0
 10
1.46072
 20
0.671103
 30
0.0
 11
1.28846
 21
0.767567
 31
0.0
  0
LINE
  8
0
 62
     0
 10
1.28846
 20
0.767567
 30
0.0
 11
1.12586
 21
0.876434
 31
0.0
  0
LINE
  8
0
 62
     0
 10
1.12586
 20
0.876434
 30
0.0
 11
0.971518
 21
0.996322
 31
0.0
  0
LINE
  8
0
 62
     0
 10
0.971518
 20
0.996322
 30
0.0
 11
0.826823
 21
1.13137
 31
0.0
  0
LINE
  8
0
 62
     0
 10
0.826823
 20
1.13137
 30
0.0
 11
0.693152
 21
1.27468
 31
0.0
  0
LINE
  8
0
 62
     0
 10
0.693152
 20
1.27468
 30
0.0
 11
0.571885
 21
1.42903
 31
0.0
  0
LINE
  8
0
 62
     0
 10
0.571885
 20
1.42903
 30
0.0
 11
0.463021
 21
1.59163
 31
0.0
  0
LINE
  8
0
 62
     0
 10
0.463021
 20
1.59163
 30
0.0
 11
0.367937
 21
1.76389
 31
0.0
  0
LINE
  8
0
 62
     0
 10
0.367937
 20
1.76389
 30
0.0
 11
0.285254
 21
1.94166
 31
0.0
  0
LINE
  8
0
 62
     0
 10
0.285254
 20
1.94166
 30
0.0
 11
0.21773
 21
2.12631
 31
0.0
  0
LINE
  8
0
 62
     0
 10
0.21773
 20
2.12631
 30
0.0
 11
0.163987
 21
2.3151
 31
0.0
  0
LINE
  8
0
 62
     0
 10
0.163987
 20
2.3151
 30
0.0
 11
0.125402
 21
2.50665
 31
0.0
  0
LINE
  8
0
 62
     0
 10
0.125402
 20
2.50665
 30
0.0
 11
0.101975
 21
2.70233
 31
0.0
  0
LINE
  8
0
 62
     0
 10
0.101975
 20
2.70233
 30
0.0
 11
0.0950846
 21
2.89801
 31
0.0
  0
LINE
  8
0
 62
     0
 10
0.0950846
 20
2.89801
 30
0.0
 11
0.0950846
 21
98.2998
 31
0.0
  0
LINE
  8
0
 62
     0
 10
0.0950846
 20
98.2998
 30
0.0
 11
0.101975
 21
98.4952
 31
0.0
  0
LINE
  8
0
 62
     0
 10
0.101975
 20
98.4952
 30
0.0
 11
0.125402
 21
98.691
 31
0.0
  0
LINE
  8
0
 62
     0
 10
0.125402
 20
98.691
 30
0.0
 11
0.163987
 21
98.8826
 31
0.0
  0
LINE
  8
0
 62
     0
 10
0.163987
 20
98.8826
 30
0.0
 11
0.21773
 21
99.0713
 31
0.0
  0
LINE
  8
0
 62
     0
 10
0.21773
 20
99.0713
 30
0.0
 11
0.285254
 21
99.2558
 31
0.0
  0
LINE
  8
0
 62
     0
 10
0.285254
 20
99.2558
 30
0.0
 11
0.367937
 21
99.4336
 31
0.0
  0
LINE
  8
0
 62
     0
 10
0.367937
 20
99.4336
 30
0.0
 11
0.463021
 21
99.6061
 31
0.0
  0
LINE
  8
0
 62
     0
 10
0.463021
 20
99.6061
 30
0.0
 11
0.571885
 21
99.7687
 31
0.0
  0
LINE
  8
0
 62
     0
 10
0.571885
 20
99.7687
 30
0.0
 11
0.693152
 21
99.9229
 31
0.0
  0
LINE
  8
0
 62
     0
 10
0.693152
 20
99.9229
 30
0.0
 11
0.826823
 21
100.068
 31
0.0
  0
LINE
  8
0
 62
     0
 10
0.826823
 20
100.068
 30
0.0
 11
0.971518
 21
100.201
 31
0.0
  0
LINE
  8
0
 62
     0
 10
0.971518
 20
100.201
 30
0.0
 11
1.12586
 21
100.323
 31
0.0
  0
LINE
  8
0
 62
     0
 10
1.12586
 20
100.323
 30
0.0
 11
1.28846
 21
100.432
 31
0.0
  0
LINE
  8
0
 62
     0
 10
1.28846
 20
100.432
 30
0.0
 11
1.46072
 21
100.526
 31
0.0
  0
LINE
  8
0
 62
     0
 10
1.46072
 20
100.526
 30
0.0
 11
1.63849
 21
100.609
 31
0.0
  0
LINE
  8
0
 62
     0
 10
1.63849
 20
100.609
 30
0.0
 11
1.82315
 21
100.677
 31
0.0
  0
LINE
  8
0
 62
     0
 10
1.82315
 20
100.677
 30
0.0
 11
2.01194
 21
100.73
 31
0.0
  0
LINE
  8
0
 62
     0
 10
2.01194
 20
100.73
 30
0.0
 11
2.20348
 21
100.769
 31
0.0
  0
LINE
  8
0
 62
     0
 10
2.20348
 20
100.769
 30
0.0
 11
2.39916
 21
100.792
 31
0.0
  0
LINE
  8
0
 62
     0
 10
2.39916
 20
100.792
 30
0.0
 11
2.59485
 21
100.799
 31
0.0
  0
LINE
  8
0
 62
     0
 10
2.59485
 20
100.799
 30
0.0
 11
78.9464
 21
100.799
 31
0.0
  0
LINE
  8
0
 62
     0
 10
14.796
 20
19.4235
 30
0.0
 11
14.796
 21
18.4244
 31
0.0
  0
LINE
  8
0
 62
     0
 10
14.796
 20
18.4244
 30
0.0
 11
13.9954
 21
18.4244
 31
0.0
  0
LINE
  8
0
 62
     0
 10
13.9954
 20
18.4244
 30
0.0
 11
13.9954
 21
15.474
 31
0.0
  0
LINE
  8
0
 62
     0
 10
13.9954
 20
15.474
 30
0.0
 11
14.796
 21
15.474
 31
0.0
  0
LINE
  8
0
 62
     0
 10
14.796
 20
15.474
 30
0.0
 11
14.796
 21
14.7243
 31
0.0
  0
LINE
  8
0
 62
     0
 10
14.796
 20
14.7243
 30
0.0
 11
13.1203
 21
14.7243
 31
0.0
  0
LINE
  8
0
 62
     0
 10
13.1203
 20
14.7243
 30
0.0
 11
13.1203
 21
17.9544
 31
0.0
  0
LINE
  8
0
 62
     0
 10
13.1203
 20
17.9544
 30
0.0
 11
6.51951
 21
17.9544
 31
0.0
  0
LINE
  8
0
 62
     0
 10
6.51951
 20
17.9544
 30
0.0
 11
6.51951
 21
14.7243
 31
0.0
  0
LINE
  8
0
 62
     0
 10
6.51951
 20
14.7243
 30
0.0
 11
5.69405
 21
14.7243
 31
0.0
  0
LINE
  8
0
 62
     0
 10
5.69405
 20
14.7243
 30
0.0
 11
5.69405
 21
12.0744
 31
0.0
  0
LINE
  8
0
 62
     0
 10
5.69405
 20
12.0744
 30
0.0
 11
6.51951
 21
12.0744
 31
0.0
  0
LINE
  8
0
 62
     0
 10
6.51951
 20
12.0744
 30
0.0
 11
6.51951
 21
5.80429
 31
0.0
  0
LINE
  8
0
 62
     0
 10
6.51951
 20
5.80429
 30
0.0
 11
8.2448
 21
5.80429
 31
0.0
  0
LINE
  8
0
 62
     0
 10
8.2448
 20
5.80429
 30
0.0
 11
8.2448
 21
4.60403
 31
0.0
  0
LINE
  8
0
 62
     0
 10
8.2448
 20
4.60403
 30
0.0
 11
11.395
 21
4.60403
 31
0.0
  0
LINE
  8
0
 62
     0
 10
11.395
 20
4.60403
 30
0.0
 11
11.395
 21
5.80429
 31
0.0
  0
LINE
  8
0
 62
     0
 10
11.395
 20
5.80429
 30
0.0
 11
13.1203
 21
5.80429
 31
0.0
  0
LINE
  8
0
 62
     0
 10
13.1203
 20
5.80429
 30
0.0
 11
13.1203
 21
10.2733
 31
0.0
  0
LINE
  8
0
 62
     0
 10
13.1203
 20
10.2733
 30
0.0
 11
14.796
 21
10.2733
 31
0.0
  0
LINE
  8
0
 62
     0
 10
14.796
 20
10.2733
 30
0.0
 11
14.796
 21
9.52362
 31
0.0
  0
LINE
  8
0
 62
     0
 10
14.796
 20
9.52362
 30
0.0
 11
13.9954
 21
9.52362
 31
0.0
  0
LINE
  8
0
 62
     0
 10
13.9954
 20
9.52362
 30
0.0
 11
13.9954
 21
6.57461
 31
0.0
  0
LINE
  8
0
 62
     0
 10
13.9954
 20
6.57461
 30
0.0
 11
14.796
 21
6.57461
 31
0.0
  0
LINE
  8
0
 62
     0
 10
14.796
 20
6.57461
 30
0.0
 11
14.796
 21
5.57417
 31
0.0
  0
LINE
  8
0
 62
     0
 10
14.796
 20
5.57417
 30
0.0
 11
28.6453
 21
5.57417
 31
0.0
  0
LINE
  8
0
 62
     0
 10
28.6453
 20
5.57417
 30
0.0
 11
28.6453
 21
6.57461
 31
0.0
  0
LINE
  8
0
 62
     0
 10
28.6453
 20
6.57461
 30
0.0
 11
29.4459
 21
6.57461
 31
0.0
  0
LINE
  8
0
 62
     0
 10
29.4459
 20
6.57461
 30
0.0
 11
29.4459
 21
9.52362
 31
0.0
  0
LINE
  8
0
 62
     0
 10
29.4459
 20
9.52362
 30
0.0
 11
28.6453
 21
9.52362
 31
0.0
  0
LINE
  8
0
 62
     0
 10
28.6453
 20
9.52362
 30
0.0
 11
28.6453
 21
10.2733
 31
0.0
  0
LINE
  8
0
 62
     0
 10
28.6453
 20
10.2733
 30
0.0
 11
30.321
 21
10.2733
 31
0.0
  0
LINE
  8
0
 62
     0
 10
30.321
 20
10.2733
 30
0.0
 11
30.321
 21
5.80429
 31
0.0
  0
LINE
  8
0
 62
     0
 10
30.321
 20
5.80429
 30
0.0
 11
32.0449
 21
5.80429
 31
0.0
  0
LINE
  8
0
 62
     0
 10
32.0449
 20
5.80429
 30
0.0
 11
32.0449
 21
4.60403
 31
0.0
  0
LINE
  8
0
 62
     0
 10
32.0449
 20
4.60403
 30
0.0
 11
35.1951
 21
4.60403
 31
0.0
  0
LINE
  8
0
 62
     0
 10
35.1951
 20
4.60403
 30
0.0
 11
35.1951
 21
5.80429
 31
0.0
  0
LINE
  8
0
 62
     0
 10
35.1951
 20
5.80429
 30
0.0
 11
36.9203
 21
5.80429
 31
0.0
  0
LINE
  8
0
 62
     0
 10
36.9203
 20
5.80429
 30
0.0
 11
36.9203
 21
12.0744
 31
0.0
  0
LINE
  8
0
 62
     0
 10
36.9203
 20
12.0744
 30
0.0
 11
37.7458
 21
12.0744
 31
0.0
  0
LINE
  8
0
 62
     0
 10
37.7458
 20
12.0744
 30
0.0
 11
37.7458
 21
14.7243
 31
0.0
  0
LINE
  8
0
 62
     0
 10
37.7458
 20
14.7243
 30
0.0
 11
36.9203
 21
14.7243
 31
0.0
  0
LINE
  8
0
 62
     0
 10
36.9203
 20
14.7243
 30
0.0
 11
36.9203
 21
17.9544
 31
0.0
  0
LINE
  8
0
 62
     0
 10
36.9203
 20
17.9544
 30
0.0
 11
30.321
 21
17.9544
 31
0.0
  0
LINE
  8
0
 62
     0
 10
30.321
 20
17.9544
 30
0.0
 11
30.321
 21
14.7243
 31
0.0
  0
LINE
  8
0
 62
     0
 10
30.321
 20
14.7243
 30
0.0
 11
28.6453
 21
14.7243
 31
0.0
  0
LINE
  8
0
 62
     0
 10
28.6453
 20
14.7243
 30
0.0
 11
28.6453
 21
15.474
 31
0.0
  0
LINE
  8
0
 62
     0
 10
28.6453
 20
15.474
 30
0.0
 11
29.4459
 21
15.474
 31
0.0
  0
LINE
  8
0
 62
     0
 10
29.4459
 20
15.474
 30
0.0
 11
29.4459
 21
18.4244
 31
0.0
  0
LINE
  8
0
 62
     0
 10
29.4459
 20
18.4244
 30
0.0
 11
28.6453
 21
18.4244
 31
0.0
  0
LINE
  8
0
 62
     0
 10
28.6453
 20
18.4244
 30
0.0
 11
28.6453
 21
19.4235
 31
0.0
  0
LINE
  8
0
 62
     0
 10
28.6453
 20
19.4235
 30
0.0
 11
14.796
 21
19.4235
 31
0.0
  0
LINE
  8
0
 62
     0
 10
43.3709
 20
19.4235
 30
0.0
 11
43.3709
 21
18.4244
 31
0.0
  0
LINE
  8
0
 62
     0
 10
43.3709
 20
18.4244
 30
0.0
 11
42.5704
 21
18.4244
 31
0.0
  0
LINE
  8
0
 62
     0
 10
42.5704
 20
18.4244
 30
0.0
 11
42.5704
 21
15.474
 31
0.0
  0
LINE
  8
0
 62
     0
 10
42.5704
 20
15.474
 30
0.0
 11
43.3709
 21
15.474
 31
0.0
  0
LINE
  8
0
 62
     0
 10
43.3709
 20
15.474
 30
0.0
 11
43.3709
 21
9.52362
 31
0.0
  0
LINE
  8
0
 62
     0
 10
43.3709
 20
9.52362
 30
0.0
 11
42.5704
 21
9.52362
 31
0.0
  0
LINE
  8
0
 62
     0
 10
42.5704
 20
9.52362
 30
0.0
 11
42.5704
 21
6.57461
 31
0.0
  0
LINE
  8
0
 62
     0
 10
42.5704
 20
6.57461
 30
0.0
 11
43.3709
 21
6.57461
 31
0.0
  0
LINE
  8
0
 62
     0
 10
43.3709
 20
6.57461
 30
0.0
 11
43.3709
 21
5.57417
 31
0.0
  0
LINE
  8
0
 62
     0
 10
43.3709
 20
5.57417
 30
0.0
 11
57.2202
 21
5.57417
 31
0.0
  0
LINE
  8
0
 62
     0
 10
57.2202
 20
5.57417
 30
0.0
 11
57.2202
 21
6.57461
 31
0.0
  0
LINE
  8
0
 62
     0
 10
57.2202
 20
6.57461
 30
0.0
 11
58.021
 21
6.57461
 31
0.0
  0
LINE
  8
0
 62
     0
 10
58.021
 20
6.57461
 30
0.0
 11
58.021
 21
9.52362
 31
0.0
  0
LINE
  8
0
 62
     0
 10
58.021
 20
9.52362
 30
0.0
 11
57.2202
 21
9.52362
 31
0.0
  0
LINE
  8
0
 62
     0
 10
57.2202
 20
9.52362
 30
0.0
 11
57.2202
 21
15.474
 31
0.0
  0
LINE
  8
0
 62
     0
 10
57.2202
 20
15.474
 30
0.0
 11
58.021
 21
15.474
 31
0.0
  0
LINE
  8
0
 62
     0
 10
58.021
 20
15.474
 30
0.0
 11
58.021
 21
18.4244
 31
0.0
  0
LINE
  8
0
 62
     0
 10
58.021
 20
18.4244
 30
0.0
 11
57.2202
 21
18.4244
 31
0.0
  0
LINE
  8
0
 62
     0
 10
57.2202
 20
18.4244
 30
0.0
 11
57.2202
 21
19.4235
 31
0.0
  0
LINE
  8
0
 62
     0
 10
57.2202
 20
19.4235
 30
0.0
 11
43.3709
 21
19.4235
 31
0.0
  0
LINE
  8
0
 62
     0
 10
68.9197
 20
38.0488
 30
0.0
 11
68.9197
 21
37.2237
 31
0.0
  0
LINE
  8
0
 62
     0
 10
68.9197
 20
37.2237
 30
0.0
 11
62.6512
 21
37.2237
 31
0.0
  0
LINE
  8
0
 62
     0
 10
62.6512
 20
37.2237
 30
0.0
 11
62.6512
 21
35.4997
 31
0.0
  0
LINE
  8
0
 62
     0
 10
62.6512
 20
35.4997
 30
0.0
 11
61.4507
 21
35.4997
 31
0.0
  0
LINE
  8
0
 62
     0
 10
61.4507
 20
35.4997
 30
0.0
 11
61.4507
 21
32.3494
 31
0.0
  0
LINE
  8
0
 62
     0
 10
61.4507
 20
32.3494
 30
0.0
 11
62.6512
 21
32.3494
 31
0.0
  0
LINE
  8
0
 62
     0
 10
62.6512
 20
32.3494
 30
0.0
 11
62.6512
 21
30.6241
 31
0.0
  0
LINE
  8
0
 62
     0
 10
62.6512
 20
30.6241
 30
0.0
 11
67.1202
 21
30.6241
 31
0.0
  0
LINE
  8
0
 62
     0
 10
67.1202
 20
30.6241
 30
0.0
 11
67.1202
 21
28.9485
 31
0.0
  0
LINE
  8
0
 62
     0
 10
67.1202
 20
28.9485
 30
0.0
 11
66.3706
 21
28.9485
 31
0.0
  0
LINE
  8
0
 62
     0
 10
66.3706
 20
28.9485
 30
0.0
 11
66.3706
 21
29.7491
 31
0.0
  0
LINE
  8
0
 62
     0
 10
66.3706
 20
29.7491
 30
0.0
 11
63.4199
 21
29.7491
 31
0.0
  0
LINE
  8
0
 62
     0
 10
63.4199
 20
29.7491
 30
0.0
 11
63.4199
 21
28.9485
 31
0.0
  0
LINE
  8
0
 62
     0
 10
63.4199
 20
28.9485
 30
0.0
 11
62.4209
 21
28.9485
 31
0.0
  0
LINE
  8
0
 62
     0
 10
62.4209
 20
28.9485
 30
0.0
 11
62.4209
 21
15.0992
 31
0.0
  0
LINE
  8
0
 62
     0
 10
62.4209
 20
15.0992
 30
0.0
 11
63.4199
 21
15.0992
 31
0.0
  0
LINE
  8
0
 62
     0
 10
63.4199
 20
15.0992
 30
0.0
 11
63.4199
 21
14.2985
 31
0.0
  0
LINE
  8
0
 62
     0
 10
63.4199
 20
14.2985
 30
0.0
 11
66.3706
 21
14.2985
 31
0.0
  0
LINE
  8
0
 62
     0
 10
66.3706
 20
14.2985
 30
0.0
 11
66.3706
 21
15.0992
 31
0.0
  0
LINE
  8
0
 62
     0
 10
66.3706
 20
15.0992
 30
0.0
 11
67.1202
 21
15.0992
 31
0.0
  0
LINE
  8
0
 62
     0
 10
67.1202
 20
15.0992
 30
0.0
 11
67.1202
 21
13.4235
 31
0.0
  0
LINE
  8
0
 62
     0
 10
67.1202
 20
13.4235
 30
0.0
 11
62.6512
 21
13.4235
 31
0.0
  0
LINE
  8
0
 62
     0
 10
62.6512
 20
13.4235
 30
0.0
 11
62.6512
 21
11.6996
 31
0.0
  0
LINE
  8
0
 62
     0
 10
62.6512
 20
11.6996
 30
0.0
 11
61.4507
 21
11.6996
 31
0.0
  0
LINE
  8
0
 62
     0
 10
61.4507
 20
11.6996
 30
0.0
 11
61.4507
 21
8.54936
 31
0.0
  0
LINE
  8
0
 62
     0
 10
61.4507
 20
8.54936
 30
0.0
 11
62.6512
 21
8.54936
 31
0.0
  0
LINE
  8
0
 62
     0
 10
62.6512
 20
8.54936
 30
0.0
 11
62.6512
 21
6.82406
 31
0.0
  0
LINE
  8
0
 62
     0
 10
62.6512
 20
6.82406
 30
0.0
 11
68.9197
 21
6.82406
 31
0.0
  0
LINE
  8
0
 62
     0
 10
68.9197
 20
6.82406
 30
0.0
 11
68.9197
 21
5.9986
 31
0.0
  0
LINE
  8
0
 62
     0
 10
68.9197
 20
5.9986
 30
0.0
 11
71.5712
 21
5.9986
 31
0.0
  0
LINE
  8
0
 62
     0
 10
71.5712
 20
5.9986
 30
0.0
 11
71.5712
 21
6.82406
 31
0.0
  0
LINE
  8
0
 62
     0
 10
71.5712
 20
6.82406
 30
0.0
 11
74.7998
 21
6.82406
 31
0.0
  0
LINE
  8
0
 62
     0
 10
74.7998
 20
6.82406
 30
0.0
 11
74.7998
 21
13.4235
 31
0.0
  0
LINE
  8
0
 62
     0
 10
74.7998
 20
13.4235
 30
0.0
 11
71.5712
 21
13.4235
 31
0.0
  0
LINE
  8
0
 62
     0
 10
71.5712
 20
13.4235
 30
0.0
 11
71.5712
 21
15.0992
 31
0.0
  0
LINE
  8
0
 62
     0
 10
71.5712
 20
15.0992
 30
0.0
 11
72.3209
 21
15.0992
 31
0.0
  0
LINE
  8
0
 62
     0
 10
72.3209
 20
15.0992
 30
0.0
 11
72.3209
 21
14.2985
 31
0.0
  0
LINE
  8
0
 62
     0
 10
72.3209
 20
14.2985
 30
0.0
 11
75.2697
 21
14.2985
 31
0.0
  0
LINE
  8
0
 62
     0
 10
75.2697
 20
14.2985
 30
0.0
 11
75.2697
 21
15.0992
 31
0.0
  0
LINE
  8
0
 62
     0
 10
75.2697
 20
15.0992
 30
0.0
 11
76.2702
 21
15.0992
 31
0.0
  0
LINE
  8
0
 62
     0
 10
76.2702
 20
15.0992
 30
0.0
 11
76.2702
 21
28.9485
 31
0.0
  0
LINE
  8
0
 62
     0
 10
76.2702
 20
28.9485
 30
0.0
 11
75.2697
 21
28.9485
 31
0.0
  0
LINE
  8
0
 62
     0
 10
75.2697
 20
28.9485
 30
0.0
 11
75.2697
 21
29.7491
 31
0.0
  0
LINE
  8
0
 62
     0
 10
75.2697
 20
29.7491
 30
0.0
 11
72.3209
 21
29.7491
 31
0.0
  0
LINE
  8
0
 62
     0
 10
72.3209
 20
29.7491
 30
0.0
 11
72.3209
 21
28.9485
 31
0.0
  0
LINE
  8
0
 62
     0
 10
72.3209
 20
28.9485
 30
0.0
 11
71.5712
 21
28.9485
 31
0.0
  0
LINE
  8
0
 62
     0
 10
71.5712
 20
28.9485
 30
0.0
 11
71.5712
 21
30.6241
 31
0.0
  0
LINE
  8
0
 62
     0
 10
71.5712
 20
30.6241
 30
0.0
 11
74.7998
 21
30.6241
 31
0.0
  0
LINE
  8
0
 62
     0
 10
74.7998
 20
30.6241
 30
0.0
 11
74.7998
 21
37.2237
 31
0.0
  0
LINE
  8
0
 62
     0
 10
74.7998
 20
37.2237
 30
0.0
 11
71.5712
 21
37.2237
 31
0.0
  0
LINE
  8
0
 62
     0
 10
71.5712
 20
37.2237
 30
0.0
 11
71.5712
 21
38.0488
 31
0.0
  0
LINE
  8
0
 62
     0
 10
71.5712
 20
38.0488
 30
0.0
 11
68.9197
 21
38.0488
 31
0.0
  0
LINE
  8
0
 62
     0
 10
5.27099
 20
38.4736
 30
0.0
 11
5.27099
 21
37.4745
 31
0.0
  0
LINE
  8
0
 62
     0
 10
5.27099
 20
37.4745
 30
0.0
 11
4.47036
 21
37.4745
 31
0.0
  0
LINE
  8
0
 62
     0
 10
4.47036
 20
37.4745
 30
0.0
 11
4.47036
 21
34.524
 31
0.0
  0
LINE
  8
0
 62
     0
 10
4.47036
 20
34.524
 30
0.0
 11
5.27099
 21
34.524
 31
0.0
  0
LINE
  8
0
 62
     0
 10
5.27099
 20
34.524
 30
0.0
 11
5.27099
 21
28.5736
 31
0.0
  0
LINE
  8
0
 62
     0
 10
5.27099
 20
28.5736
 30
0.0
 11
4.47036
 21
28.5736
 31
0.0
  0
LINE
  8
0
 62
     0
 10
4.47036
 20
28.5736
 30
0.0
 11
4.47036
 21
25.6246
 31
0.0
  0
LINE
  8
0
 62
     0
 10
4.47036
 20
25.6246
 30
0.0
 11
5.27099
 21
25.6246
 31
0.0
  0
LINE
  8
0
 62
     0
 10
5.27099
 20
25.6246
 30
0.0
 11
5.27099
 21
24.6242
 31
0.0
  0
LINE
  8
0
 62
     0
 10
5.27099
 20
24.6242
 30
0.0
 11
19.1203
 21
24.6242
 31
0.0
  0
LINE
  8
0
 62
     0
 10
19.1203
 20
24.6242
 30
0.0
 11
19.1203
 21
25.6246
 31
0.0
  0
LINE
  8
0
 62
     0
 10
19.1203
 20
25.6246
 30
0.0
 11
19.9209
 21
25.6246
 31
0.0
  0
LINE
  8
0
 62
     0
 10
19.9209
 20
25.6246
 30
0.0
 11
19.9209
 21
28.5736
 31
0.0
  0
LINE
  8
0
 62
     0
 10
19.9209
 20
28.5736
 30
0.0
 11
19.1203
 21
28.5736
 31
0.0
  0
LINE
  8
0
 62
     0
 10
19.1203
 20
28.5736
 30
0.0
 11
19.1203
 21
34.524
 31
0.0
  0
LINE
  8
0
 62
     0
 10
19.1203
 20
34.524
 30
0.0
 11
19.9209
 21
34.524
 31
0.0
  0
LINE
  8
0
 62
     0
 10
19.9209
 20
34.524
 30
0.0
 11
19.9209
 21
37.4745
 31
0.0
  0
LINE
  8
0
 62
     0
 10
19.9209
 20
37.4745
 30
0.0
 11
19.1203
 21
37.4745
 31
0.0
  0
LINE
  8
0
 62
     0
 10
19.1203
 20
37.4745
 30
0.0
 11
19.1203
 21
38.4736
 31
0.0
  0
LINE
  8
0
 62
     0
 10
19.1203
 20
38.4736
 30
0.0
 11
5.27099
 21
38.4736
 31
0.0
  0
LINE
  8
0
 62
     0
 10
24.321
 20
38.4736
 30
0.0
 11
24.321
 21
37.4745
 31
0.0
  0
LINE
  8
0
 62
     0
 10
24.321
 20
37.4745
 30
0.0
 11
23.5204
 21
37.4745
 31
0.0
  0
LINE
  8
0
 62
     0
 10
23.5204
 20
37.4745
 30
0.0
 11
23.5204
 21
34.524
 31
0.0
  0
LINE
  8
0
 62
     0
 10
23.5204
 20
34.524
 30
0.0
 11
24.321
 21
34.524
 31
0.0
  0
LINE
  8
0
 62
     0
 10
24.321
 20
34.524
 30
0.0
 11
24.321
 21
28.5736
 31
0.0
  0
LINE
  8
0
 62
     0
 10
24.321
 20
28.5736
 30
0.0
 11
23.5204
 21
28.5736
 31
0.0
  0
LINE
  8
0
 62
     0
 10
23.5204
 20
28.5736
 30
0.0
 11
23.5204
 21
25.6246
 31
0.0
  0
LINE
  8
0
 62
     0
 10
23.5204
 20
25.6246
 30
0.0
 11
24.321
 21
25.6246
 31
0.0
  0
LINE
  8
0
 62
     0
 10
24.321
 20
25.6246
 30
0.0
 11
24.321
 21
24.6242
 31
0.0
  0
LINE
  8
0
 62
     0
 10
24.321
 20
24.6242
 30
0.0
 11
38.1702
 21
24.6242
 31
0.0
  0
LINE
  8
0
 62
     0
 10
38.1702
 20
24.6242
 30
0.0
 11
38.1702
 21
25.6246
 31
0.0
  0
LINE
  8
0
 62
     0
 10
38.1702
 20
25.6246
 30
0.0
 11
38.971
 21
25.6246
 31
0.0
  0
LINE
  8
0
 62
     0
 10
38.971
 20
25.6246
 30
0.0
 11
38.971
 21
28.5736
 31
0.0
  0
LINE
  8
0
 62
     0
 10
38.971
 20
28.5736
 30
0.0
 11
38.1702
 21
28.5736
 31
0.0
  0
LINE
  8
0
 62
     0
 10
38.1702
 20
28.5736
 30
0.0
 11
38.1702
 21
34.524
 31
0.0
  0
LINE
  8
0
 62
     0
 10
38.1702
 20
34.524
 30
0.0
 11
38.971
 21
34.524
 31
0.0
  0
LINE
  8
0
 62
     0
 10
38.971
 20
34.524
 30
0.0
 11
38.971
 21
37.4745
 31
0.0
  0
LINE
  8
0
 62
     0
 10
38.971
 20
37.4745
 30
0.0
 11
38.1702
 21
37.4745
 31
0.0
  0
LINE
  8
0
 62
     0
 10
38.1702
 20
37.4745
 30
0.0
 11
38.1702
 21
38.4736
 31
0.0
  0
LINE
  8
0
 62
     0
 10
38.1702
 20
38.4736
 30
0.0
 11
24.321
 21
38.4736
 31
0.0
  0
LINE
  8
0
 62
     0
 10
43.3709
 20
38.4736
 30
0.0
 11
43.3709
 21
37.4745
 31
0.0
  0
LINE
  8
0
 62
     0
 10
43.3709
 20
37.4745
 30
0.0
 11
42.5704
 21
37.4745
 31
0.0
  0
LINE
  8
0
 62
     0
 10
42.5704
 20
37.4745
 30
0.0
 11
42.5704
 21
34.524
 31
0.0
  0
LINE
  8
0
 62
     0
 10
42.5704
 20
34.524
 30
0.0
 11
43.3709
 21
34.524
 31
0.0
  0
LINE
  8
0
 62
     0
 10
43.3709
 20
34.524
 30
0.0
 11
43.3709
 21
28.5736
 31
0.0
  0
LINE
  8
0
 62
     0
 10
43.3709
 20
28.5736
 30
0.0
 11
42.5704
 21
28.5736
 31
0.0
  0
LINE
  8
0
 62
     0
 10
42.5704
 20
28.5736
 30
0.0
 11
42.5704
 21
25.6246
 31
0.0
  0
LINE
  8
0
 62
     0
 10
42.5704
 20
25.6246
 30
0.0
 11
43.3709
 21
25.6246
 31
0.0
  0
LINE
  8
0
 62
     0
 10
43.3709
 20
25.6246
 30
0.0
 11
43.3709
 21
24.6242
 31
0.0
  0
LINE
  8
0
 62
     0
 10
43.3709
 20
24.6242
 30
0.0
 11
57.2202
 21
24.6242
 31
0.0
  0
LINE
  8
0
 62
     0
 10
57.2202
 20
24.6242
 30
0.0
 11
57.2202
 21
25.6246
 31
0.0
  0
LINE
  8
0
 62
     0
 10
57.2202
 20
25.6246
 30
0.0
 11
58.021
 21
25.6246
 31
0.0
  0
LINE
  8
0
 62
     0
 10
58.021
 20
25.6246
 30
0.0
 11
58.021
 21
28.5736
 31
0.0
  0
LINE
  8
0
 62
     0
 10
58.021
 20
28.5736
 30
0.0
 11
57.2202
 21
28.5736
 31
0.0
  0
LINE
  8
0
 62
     0
 10
57.2202
 20
28.5736
 30
0.0
 11
57.2202
 21
34.524
 31
0.0
  0
LINE
  8
0
 62
     0
 10
57.2202
 20
34.524
 30
0.0
 11
58.021
 21
34.524
 31
0.0
  0
LINE
  8
0
 62
     0
 10
58.021
 20
34.524
 30
0.0
 11
58.021
 21
37.4745
 31
0.0
  0
LINE
  8
0
 62
     0
 10
58.021
 20
37.4745
 30
0.0
 11
57.2202
 21
37.4745
 31
0.0
  0
LINE
  8
0
 62
     0
 10
57.2202
 20
37.4745
 30
0.0
 11
57.2202
 21
38.4736
 31
0.0
  0
LINE
  8
0
 62
     0
 10
57.2202
 20
38.4736
 30
0.0
 11
43.3709
 21
38.4736
 31
0.0
  0
LINE
  8
0
 62
     0
 10
5.27099
 20
57.5236
 30
0.0
 11
5.27099
 21
56.5245
 31
0.0
  0
LINE
  8
0
 62
     0
 10
5.27099
 20
56.5245
 30
0.0
 11
4.47036
 21
56.5245
 31
0.0
  0
LINE
  8
0
 62
     0
 10
4.47036
 20
56.5245
 30
0.0
 11
4.47036
 21
53.5739
 31
0.0
  0
LINE
  8
0
 62
     0
 10
4.47036
 20
53.5739
 30
0.0
 11
5.27099
 21
53.5739
 31
0.0
  0
LINE
  8
0
 62
     0
 10
5.27099
 20
53.5739
 30
0.0
 11
5.27099
 21
47.6236
 31
0.0
  0
LINE
  8
0
 62
     0
 10
5.27099
 20
47.6236
 30
0.0
 11
4.47036
 21
47.6236
 31
0.0
  0
LINE
  8
0
 62
     0
 10
4.47036
 20
47.6236
 30
0.0
 11
4.47036
 21
44.6747
 31
0.0
  0
LINE
  8
0
 62
     0
 10
4.47036
 20
44.6747
 30
0.0
 11
5.27099
 21
44.6747
 31
0.0
  0
LINE
  8
0
 62
     0
 10
5.27099
 20
44.6747
 30
0.0
 11
5.27099
 21
43.6742
 31
0.0
  0
LINE
  8
0
 62
     0
 10
5.27099
 20
43.6742
 30
0.0
 11
19.1203
 21
43.6742
 31
0.0
  0
LINE
  8
0
 62
     0
 10
19.1203
 20
43.6742
 30
0.0
 11
19.1203
 21
44.6747
 31
0.0
  0
LINE
  8
0
 62
     0
 10
19.1203
 20
44.6747
 30
0.0
 11
19.9209
 21
44.6747
 31
0.0
  0
LINE
  8
0
 62
     0
 10
19.9209
 20
44.6747
 30
0.0
 11
19.9209
 21
47.6236
 31
0.0
  0
LINE
  8
0
 62
     0
 10
19.9209
 20
47.6236
 30
0.0
 11
19.1203
 21
47.6236
 31
0.0
  0
LINE
  8
0
 62
     0
 10
19.1203
 20
47.6236
 30
0.0
 11
19.1203
 21
53.5739
 31
0.0
  0
LINE
  8
0
 62
     0
 10
19.1203
 20
53.5739
 30
0.0
 11
19.9209
 21
53.5739
 31
0.0
  0
LINE
  8
0
 62
     0
 10
19.9209
 20
53.5739
 30
0.0
 11
19.9209
 21
56.5245
 31
0.0
  0
LINE
  8
0
 62
     0
 10
19.9209
 20
56.5245
 30
0.0
 11
19.1203
 21
56.5245
 31
0.0
  0
LINE
  8
0
 62
     0
 10
19.1203
 20
56.5245
 30
0.0
 11
19.1203
 21
57.5236
 31
0.0
  0
LINE
  8
0
 62
     0
 10
19.1203
 20
57.5236
 30
0.0
 11
5.27099
 21
57.5236
 31
0.0
  0
LINE
  8
0
 62
     0
 10
24.321
 20
57.5236
 30
0.0
 11
24.321
 21
56.5245
 31
0.0
  0
LINE
  8
0
 62
     0
 10
24.321
 20
56.5245
 30
0.0
 11
23.5204
 21
56.5245
 31
0.0
  0
LINE
  8
0
 62
     0
 10
23.5204
 20
56.5245
 30
0.0
 11
23.5204
 21
53.5739
 31
0.0
  0
LINE
  8
0
 62
     0
 10
23.5204
 20
53.5739
 30
0.0
 11
24.321
 21
53.5739
 31
0.0
  0
LINE
  8
0
 62
     0
 10
24.321
 20
53.5739
 30
0.0
 11
24.321
 21
47.6236
 31
0.0
  0
LINE
  8
0
 62
     0
 10
24.321
 20
47.6236
 30
0.0
 11
23.5204
 21
47.6236
 31
0.0
  0
LINE
  8
0
 62
     0
 10
23.5204
 20
47.6236
 30
0.0
 11
23.5204
 21
44.6747
 31
0.0
  0
LINE
  8
0
 62
     0
 10
23.5204
 20
44.6747
 30
0.0
 11
24.321
 21
44.6747
 31
0.0
  0
LINE
  8
0
 62
     0
 10
24.321
 20
44.6747
 30
0.0
 11
24.321
 21
43.6742
 31
0.0
  0
LINE
  8
0
 62
     0
 10
24.321
 20
43.6742
 30
0.0
 11
38.1702
 21
43.6742
 31
0.0
  0
LINE
  8
0
 62
     0
 10
38.1702
 20
43.6742
 30
0.0
 11
38.1702
 21
44.6747
 31
0.0
  0
LINE
  8
0
 62
     0
 10
38.1702
 20
44.6747
 30
0.0
 11
38.971
 21
44.6747
 31
0.0
  0
LINE
  8
0
 62
     0
 10
38.971
 20
44.6747
 30
0.0
 11
38.971
 21
47.6236
 31
0.0
  0
LINE
  8
0
 62
     0
 10
38.971
 20
47.6236
 30
0.0
 11
38.1702
 21
47.6236
 31
0.0
  0
LINE
  8
0
 62
     0
 10
38.1702
 20
47.6236
 30
0.0
 11
38.1702
 21
53.5739
 31
0.0
  0
LINE
  8
0
 62
     0
 10
38.1702
 20
53.5739
 30
0.0
 11
38.971
 21
53.5739
 31
0.0
  0
LINE
  8
0
 62
     0
 10
38.971
 20
53.5739
 30
0.0
 11
38.971
 21
56.5245
 31
0.0
  0
LINE
  8
0
 62
     0
 10
38.971
 20
56.5245
 30
0.0
 11
38.1702
 21
56.5245
 31
0.0
  0
LINE
  8
0
 62
     0
 10
38.1702
 20
56.5245
 30
0.0
 11
38.1702
 21
57.5236
 31
0.0
  0
LINE
  8
0
 62
     0
 10
38.1702
 20
57.5236
 30
0.0
 11
24.321
 21
57.5236
 31
0.0
  0
LINE
  8
0
 62
     0
 10
43.3709
 20
57.5236
 30
0.0
 11
43.3709
 21
56.5245
 31
0.0
  0
LINE
  8
0
 62
     0
 10
43.3709
 20
56.5245
 30
0.0
 11
42.5704
 21
56.5245
 31
0.0
  0
LINE
  8
0
 62
     0
 10
42.5704
 20
56.5245
 30
0.0
 11
42.5704
 21
53.5739
 31
0.0
  0
LINE
  8
0
 62
     0
 10
42.5704
 20
53.5739
 30
0.0
 11
43.3709
 21
53.5739
 31
0.0
  0
LINE
  8
0
 62
     0
 10
43.3709
 20
53.5739
 30
0.0
 11
43.3709
 21
47.6236
 31
0.0
  0
LINE
  8
0
 62
     0
 10
43.3709
 20
47.6236
 30
0.0
 11
42.5704
 21
47.6236
 31
0.0
  0
LINE
  8
0
 62
     0
 10
42.5704
 20
47.6236
 30
0.0
 11
42.5704
 21
44.6747
 31
0.0
  0
LINE
  8
0
 62
     0
 10
42.5704
 20
44.6747
 30
0.0
 11
43.3709
 21
44.6747
 31
0.0
  0
LINE
  8
0
 62
     0
 10
43.3709
 20
44.6747
 30
0.0
 11
43.3709
 21
43.6742
 31
0.0
  0
LINE
  8
0
 62
     0
 10
43.3709
 20
43.6742
 30
0.0
 11
57.2202
 21
43.6742
 31
0.0
  0
LINE
  8
0
 62
     0
 10
57.2202
 20
43.6742
 30
0.0
 11
57.2202
 21
44.6747
 31
0.0
  0
LINE
  8
0
 62
     0
 10
57.2202
 20
44.6747
 30
0.0
 11
58.021
 21
44.6747
 31
0.0
  0
LINE
  8
0
 62
     0
 10
58.021
 20
44.6747
 30
0.0
 11
58.021
 21
47.6236
 31
0.0
  0
LINE
  8
0
 62
     0
 10
58.021
 20
47.6236
 30
0.0
 11
57.2202
 21
47.6236
 31
0.0
  0
LINE
  8
0
 62
     0
 10
57.2202
 20
47.6236
 30
0.0
 11
57.2202
 21
53.5739
 31
0.0
  0
LINE
  8
0
 62
     0
 10
57.2202
 20
53.5739
 30
0.0
 11
58.021
 21
53.5739
 31
0.0
  0
LINE
  8
0
 62
     0
 10
58.021
 20
53.5739
 30
0.0
 11
58.021
 21
56.5245
 31
0.0
  0
LINE
  8
0
 62
     0
 10
58.021
 20
56.5245
 30
0.0
 11
57.2202
 21
56.5245
 31
0.0
  0
LINE
  8
0
 62
     0
 10
57.2202
 20
56.5245
 30
0.0
 11
57.2202
 21
57.5236
 31
0.0
  0
LINE
  8
0
 62
     0
 10
57.2202
 20
57.5236
 30
0.0
 11
43.3709
 21
57.5236
 31
0.0
  0
LINE
  8
0
 62
     0
 10
68.9197
 20
76.1488
 30
0.0
 11
68.9197
 21
75.3237
 31
0.0
  0
LINE
  8
0
 62
     0
 10
68.9197
 20
75.3237
 30
0.0
 11
62.6512
 21
75.3237
 31
0.0
  0
LINE
  8
0
 62
     0
 10
62.6512
 20
75.3237
 30
0.0
 11
62.6512
 21
73.5997
 31
0.0
  0
LINE
  8
0
 62
     0
 10
62.6512
 20
73.5997
 30
0.0
 11
61.4507
 21
73.5997
 31
0.0
  0
LINE
  8
0
 62
     0
 10
61.4507
 20
73.5997
 30
0.0
 11
61.4507
 21
70.4494
 31
0.0
  0
LINE
  8
0
 62
     0
 10
61.4507
 20
70.4494
 30
0.0
 11
62.6512
 21
70.4494
 31
0.0
  0
LINE
  8
0
 62
     0
 10
62.6512
 20
70.4494
 30
0.0
 11
62.6512
 21
68.7243
 31
0.0
  0
LINE
  8
0
 62
     0
 10
62.6512
 20
68.7243
 30
0.0
 11
67.1202
 21
68.7243
 31
0.0
  0
LINE
  8
0
 62
     0
 10
67.1202
 20
68.7243
 30
0.0
 11
67.1202
 21
67.0486
 31
0.0
  0
LINE
  8
0
 62
     0
 10
67.1202
 20
67.0486
 30
0.0
 11
66.3706
 21
67.0486
 31
0.0
  0
LINE
  8
0
 62
     0
 10
66.3706
 20
67.0486
 30
0.0
 11
66.3706
 21
67.849
 31
0.0
  0
LINE
  8
0
 62
     0
 10
66.3706
 20
67.849
 30
0.0
 11
63.4199
 21
67.849
 31
0.0
  0
LINE
  8
0
 62
     0
 10
63.4199
 20
67.849
 30
0.0
 11
63.4199
 21
67.0486
 31
0.0
  0
LINE
  8
0
 62
     0
 10
63.4199
 20
67.0486
 30
0.0
 11
62.4209
 21
67.0486
 31
0.0
  0
LINE
  8
0
 62
     0
 10
62.4209
 20
67.0486
 30
0.0
 11
62.4209
 21
53.1992
 31
0.0
  0
LINE
  8
0
 62
     0
 10
62.4209
 20
53.1992
 30
0.0
 11
63.4199
 21
53.1992
 31
0.0
  0
LINE
  8
0
 62
     0
 10
63.4199
 20
53.1992
 30
0.0
 11
63.4199
 21
52.3984
 31
0.0
  0
LINE
  8
0
 62
     0
 10
63.4199
 20
52.3984
 30
0.0
 11
66.3706
 21
52.3984
 31
0.0
  0
LINE
  8
0
 62
     0
 10
66.3706
 20
52.3984
 30
0.0
 11
66.3706
 21
53.1992
 31
0.0
  0
LINE
  8
0
 62
     0
 10
66.3706
 20
53.1992
 30
0.0
 11
67.1202
 21
53.1992
 31
0.0
  0
LINE
  8
0
 62
     0
 10
67.1202
 20
53.1992
 30
0.0
 11
67.1202
 21
51.5235
 31
0.0
  0
LINE
  8
0
 62
     0
 10
67.1202
 20
51.5235
 30
0.0
 11
62.6512
 21
51.5235
 31
0.0
  0
LINE
  8
0
 62
     0
 10
62.6512
 20
51.5235
 30
0.0
 11
62.6512
 21
49.7995
 31
0.0
  0
LINE
  8
0
 62
     0
 10
62.6512
 20
49.7995
 30
0.0
 11
61.4507
 21
49.7995
 31
0.0
  0
LINE
  8
0
 62
     0
 10
61.4507
 20
49.7995
 30
0.0
 11
61.4507
 21
46.6492
 31
0.0
  0
LINE
  8
0
 62
     0
 10
61.4507
 20
46.6492
 30
0.0
 11
62.6512
 21
46.6492
 31
0.0
  0
LINE
  8
0
 62
     0
 10
62.6512
 20
46.6492
 30
0.0
 11
62.6512
 21
44.9241
 31
0.0
  0
LINE
  8
0
 62
     0
 10
62.6512
 20
44.9241
 30
0.0
 11
68.9197
 21
44.9241
 31
0.0
  0
LINE
  8
0
 62
     0
 10
68.9197
 20
44.9241
 30
0.0
 11
68.9197
 21
44.0986
 31
0.0
  0
LINE
  8
0
 62
     0
 10
68.9197
 20
44.0986
 30
0.0
 11
71.5712
 21
44.0986
 31
0.0
  0
LINE
  8
0
 62
     0
 10
71.5712
 20
44.0986
 30
0.0
 11
71.5712
 21
44.9241
 31
0.0
  0
LINE
  8
0
 62
     0
 10
71.5712
 20
44.9241
 30
0.0
 11
74.7998
 21
44.9241
 31
0.0
  0
LINE
  8
0
 62
     0
 10
74.7998
 20
44.9241
 30
0.0
 11
74.7998
 21
51.5235
 31
0.0
  0
LINE
  8
0
 62
     0
 10
74.7998
 20
51.5235
 30
0.0
 11
71.5712
 21
51.5235
 31
0.0
  0
LINE
  8
0
 62
     0
 10
71.5712
 20
51.5235
 30
0.0
 11
71.5712
 21
53.1992
 31
0.0
  0
LINE
  8
0
 62
     0
 10
71.5712
 20
53.1992
 30
0.0
 11
72.3209
 21
53.1992
 31
0.0
  0
LINE
  8
0
 62
     0
 10
72.3209
 20
53.1992
 30
0.0
 11
72.3209
 21
52.3984
 31
0.0
  0
LINE
  8
0
 62
     0
 10
72.3209
 20
52.3984
 30
0.0
 11
75.2697
 21
52.3984
 31
0.0
  0
LINE
  8
0
 62
     0
 10
75.2697
 20
52.3984
 30
0.0
 11
75.2697
 21
53.1992
 31
0.0
  0
LINE
  8
0
 62
     0
 10
75.2697
 20
53.1992
 30
0.0
 11
76.2702
 21
53.1992
 31
0.0
  0
LINE
  8
0
 62
     0
 10
76.2702
 20
53.1992
 30
0.0
 11
76.2702
 21
67.0486
 31
0.0
  0
LINE
  8
0
 62
     0
 10
76.2702
 20
67.0486
 30
0.0
 11
75.2697
 21
67.0486
 31
0.0
  0
LINE
  8
0
 62
     0
 10
75.2697
 20
67.0486
 30
0.0
 11
75.2697
 21
67.849
 31
0.0
  0
LINE
  8
0
 62
     0
 10
75.2697
 20
67.849
 30
0.0
 11
72.3209
 21
67.849
 31
0.0
  0
LINE
  8
0
 62
     0
 10
72.3209
 20
67.849
 30
0.0
 11
72.3209
 21
67.0486
 31
0.0
  0
LINE
  8
0
 62
     0
 10
72.3209
 20
67.0486
 30
0.0
 11
71.5712
 21
67.0486
 31
0.0
  0
LINE
  8
0
 62
     0
 10
71.5712
 20
67.0486
 30
0.0
 11
71.5712
 21
68.7243
 31
0.0
  0
LINE
  8
0
 62
     0
 10
71.5712
 20
68.7243
 30
0.0
 11
74.7998
 21
68.7243
 31
0.0
  0
LINE
  8
0
 62
     0
 10
74.7998
 20
68.7243
 30
0.0
 11
74.7998
 21
75.3237
 31
0.0
  0
LINE
  8
0
 62
     0
 10
74.7998
 20
75.3237
 30
0.0
 11
71.5712
 21
75.3237
 31
0.0
  0
LINE
  8
0
 62
     0
 10
71.5712
 20
75.3237
 30
0.0
 11
71.5712
 21
76.1488
 31
0.0
  0
LINE
  8
0
 62
     0
 10
71.5712
 20
76.1488
 30
0.0
 11
68.9197
 21
76.1488
 31
0.0
  0
LINE
  8
0
 62
     0
 10
5.27099
 20
76.5736
 30
0.0
 11
5.27099
 21
75.5745
 31
0.0
  0
LINE
  8
0
 62
     0
 10
5.27099
 20
75.5745
 30
0.0
 11
4.47036
 21
75.5745
 31
0.0
  0
LINE
  8
0
 62
     0
 10
4.47036
 20
75.5745
 30
0.0
 11
4.47036
 21
72.6239
 31
0.0
  0
LINE
  8
0
 62
     0
 10
4.47036
 20
72.6239
 30
0.0
 11
5.27099
 21
72.6239
 31
0.0
  0
LINE
  8
0
 62
     0
 10
5.27099
 20
72.6239
 30
0.0
 11
5.27099
 21
66.6736
 31
0.0
  0
LINE
  8
0
 62
     0
 10
5.27099
 20
66.6736
 30
0.0
 11
4.47036
 21
66.6736
 31
0.0
  0
LINE
  8
0
 62
     0
 10
4.47036
 20
66.6736
 30
0.0
 11
4.47036
 21
63.7247
 31
0.0
  0
LINE
  8
0
 62
     0
 10
4.47036
 20
63.7247
 30
0.0
 11
5.27099
 21
63.7247
 31
0.0
  0
LINE
  8
0
 62
     0
 10
5.27099
 20
63.7247
 30
0.0
 11
5.27099
 21
62.7242
 31
0.0
  0
LINE
  8
0
 62
     0
 10
5.27099
 20
62.7242
 30
0.0
 11
19.1203
 21
62.7242
 31
0.0
  0
LINE
  8
0
 62
     0
 10
19.1203
 20
62.7242
 30
0.0
 11
19.1203
 21
63.7247
 31
0.0
  0
LINE
  8
0
 62
     0
 10
19.1203
 20
63.7247
 30
0.0
 11
19.9209
 21
63.7247
 31
0.0
  0
LINE
  8
0
 62
     0
 10
19.9209
 20
63.7247
 30
0.0
 11
19.9209
 21
66.6736
 31
0.0
  0
LINE
  8
0
 62
     0
 10
19.9209
 20
66.6736
 30
0.0
 11
19.1203
 21
66.6736
 31
0.0
  0
LINE
  8
0
 62
     0
 10
19.1203
 20
66.6736
 30
0.0
 11
19.1203
 21
72.6239
 31
0.0
  0
LINE
  8
0
 62
     0
 10
19.1203
 20
72.6239
 30
0.0
 11
19.9209
 21
72.6239
 31
0.0
  0
LINE
  8
0
 62
     0
 10
19.9209
 20
72.6239
 30
0.0
 11
19.9209
 21
75.5745
 31
0.0
  0
LINE
  8
0
 62
     0
 10
19.9209
 20
75.5745
 30
0.0
 11
19.1203
 21
75.5745
 31
0.0
  0
LINE
  8
0
 62
     0
 10
19.1203
 20
75.5745
 30
0.0
 11
19.1203
 21
76.5736
 31
0.0
  0
LINE
  8
0
 62
     0
 10
19.1203
 20
76.5736
 30
0.0
 11
5.27099
 21
76.5736
 31
0.0
  0
LINE
  8
0
 62
     0
 10
24.321
 20
76.5736
 30
0.0
 11
24.321
 21
75.5745
 31
0.0
  0
LINE
  8
0
 62
     0
 10
24.321
 20
75.5745
 30
0.0
 11
23.5204
 21
75.5745
 31
0.0
  0
LINE
  8
0
 62
     0
 10
23.5204
 20
75.5745
 30
0.0
 11
23.5204
 21
72.6239
 31
0.0
  0
LINE
  8
0
 62
     0
 10
23.5204
 20
72.6239
 30
0.0
 11
24.321
 21
72.6239
 31
0.0
  0
LINE
  8
0
 62
     0
 10
24.321
 20
72.6239
 30
0.0
 11
24.321
 21
66.6736
 31
0.0
  0
LINE
  8
0
 62
     0
 10
24.321
 20
66.6736
 30
0.0
 11
23.5204
 21
66.6736
 31
0.0
  0
LINE
  8
0
 62
     0
 10
23.5204
 20
66.6736
 30
0.0
 11
23.5204
 21
63.7247
 31
0.0
  0
LINE
  8
0
 62
     0
 10
23.5204
 20
63.7247
 30
0.0
 11
24.321
 21
63.7247
 31
0.0
  0
LINE
  8
0
 62
     0
 10
24.321
 20
63.7247
 30
0.0
 11
24.321
 21
62.7242
 31
0.0
  0
LINE
  8
0
 62
     0
 10
24.321
 20
62.7242
 30
0.0
 11
38.1702
 21
62.7242
 31
0.0
  0
LINE
  8
0
 62
     0
 10
38.1702
 20
62.7242
 30
0.0
 11
38.1702
 21
63.7247
 31
0.0
  0
LINE
  8
0
 62
     0
 10
38.1702
 20
63.7247
 30
0.0
 11
38.971
 21
63.7247
 31
0.0
  0
LINE
  8
0
 62
     0
 10
38.971
 20
63.7247
 30
0.0
 11
38.971
 21
66.6736
 31
0.0
  0
LINE
  8
0
 62
     0
 10
38.971
 20
66.6736
 30
0.0
 11
38.1702
 21
66.6736
 31
0.0
  0
LINE
  8
0
 62
     0
 10
38.1702
 20
66.6736
 30
0.0
 11
38.1702
 21
72.6239
 31
0.0
  0
LINE
  8
0
 62
     0
 10
38.1702
 20
72.6239
 30
0.0
 11
38.971
 21
72.6239
 31
0.0
  0
LINE
  8
0
 62
     0
 10
38.971
 20
72.6239
 30
0.0
 11
38.971
 21
75.5745
 31
0.0
  0
LINE
  8
0
 62
     0
 10
38.971
 20
75.5745
 30
0.0
 11
38.1702
 21
75.5745
 31
0.0
  0
LINE
  8
0
 62
     0
 10
38.1702
 20
75.5745
 30
0.0
 11
38.1702
 21
76.5736
 31
0.0
  0
LINE
  8
0
 62
     0
 10
38.1702
 20
76.5736
 30
0.0
 11
24.321
 21
76.5736
 31
0.0
  0
LINE
  8
0
 62
     0
 10
43.3709
 20
76.5736
 30
0.0
 11
43.3709
 21
75.5745
 31
0.0
  0
LINE
  8
0
 62
     0
 10
43.3709
 20
75.5745
 30
0.0
 11
42.5704
 21
75.5745
 31
0.0
  0
LINE
  8
0
 62
     0
 10
42.5704
 20
75.5745
 30
0.0
 11
42.5704
 21
72.6239
 31
0.0
  0
LINE
  8
0
 62
     0
 10
42.5704
 20
72.6239
 30
0.0
 11
43.3709
 21
72.6239
 31
0.0
  0
LINE
  8
0
 62
     0
 10
43.3709
 20
72.6239
 30
0.0
 11
43.3709
 21
66.6736
 31
0.0
  0
LINE
  8
0
 62
     0
 10
43.3709
 20
66.6736
 30
0.0
 11
42.5704
 21
66.6736
 31
0.0
  0
LINE
  8
0
 62
     0
 10
42.5704
 20
66.6736
 30
0.0
 11
42.5704
 21
63.7247
 31
0.0
  0
LINE
  8
0
 62
     0
 10
42.5704
 20
63.7247
 30
0.0
 11
43.3709
 21
63.7247
 31
0.0
  0
LINE
  8
0
 62
     0
 10
43.3709
 20
63.7247
 30
0.0
 11
43.3709
 21
62.7242
 31
0.0
  0
LINE
  8
0
 62
     0
 10
43.3709
 20
62.7242
 30
0.0
 11
57.2202
 21
62.7242
 31
0.0
  0
LINE
  8
0
 62
     0
 10
57.2202
 20
62.7242
 30
0.0
 11
57.2202
 21
63.7247
 31
0.0
  0
LINE
  8
0
 62
     0
 10
57.2202
 20
63.7247
 30
0.0
 11
58.021
 21
63.7247
 31
0.0
  0
LINE
  8
0
 62
     0
 10
58.021
 20
63.7247
 30
0.0
 11
58.021
 21
66.6736
 31
0.0
  0
LINE
  8
0
 62
     0
 10
58.021
 20
66.6736
 30
0.0
 11
57.2202
 21
66.6736
 31
0.0
  0
LINE
  8
0
 62
     0
 10
57.2202
 20
66.6736
 30
0.0
 11
57.2202
 21
72.6239
 31
0.0
  0
LINE
  8
0
 62
     0
 10
57.2202
 20
72.6239
 30
0.0
 11
58.021
 21
72.6239
 31
0.0
  0
LINE
  8
0
 62
     0
 10
58.021
 20
72.6239
 30
0.0
 11
58.021
 21
75.5745
 31
0.0
  0
LINE
  8
0
 62
     0
 10
58.021
 20
75.5745
 30
0.0
 11
57.2202
 21
75.5745
 31
0.0
  0
LINE
  8
0
 62
     0
 10
57.2202
 20
75.5745
 30
0.0
 11
57.2202
 21
76.5736
 31
0.0
  0
LINE
  8
0
 62
     0
 10
57.2202
 20
76.5736
 30
0.0
 11
43.3709
 21
76.5736
 31
0.0
  0
LINE
  8
0
 62
     0
 10
5.27099
 20
95.6236
 30
0.0
 11
5.27099
 21
94.6245
 31
0.0
  0
LINE
  8
0
 62
     0
 10
5.27099
 20
94.6245
 30
0.0
 11
4.47036
 21
94.6245
 31
0.0
  0
LINE
  8
0
 62
     0
 10
4.47036
 20
94.6245
 30
0.0
 11
4.47036
 21
91.6739
 31
0.0
  0
LINE
  8
0
 62
     0
 10
4.47036
 20
91.6739
 30
0.0
 11
5.27099
 21
91.6739
 31
0.0
  0
LINE
  8
0
 62
     0
 10
5.27099
 20
91.6739
 30
0.0
 11
5.27099
 21
85.7236
 31
0.0
  0
LINE
  8
0
 62
     0
 10
5.27099
 20
85.7236
 30
0.0
 11
4.47036
 21
85.7236
 31
0.0
  0
LINE
  8
0
 62
     0
 10
4.47036
 20
85.7236
 30
0.0
 11
4.47036
 21
82.7747
 31
0.0
  0
LINE
  8
0
 62
     0
 10
4.47036
 20
82.7747
 30
0.0
 11
5.27099
 21
82.7747
 31
0.0
  0
LINE
  8
0
 62
     0
 10
5.27099
 20
82.7747
 30
0.0
 11
5.27099
 21
81.7742
 31
0.0
  0
LINE
  8
0
 62
     0
 10
5.27099
 20
81.7742
 30
0.0
 11
19.1203
 21
81.7742
 31
0.0
  0
LINE
  8
0
 62
     0
 10
19.1203
 20
81.7742
 30
0.0
 11
19.1203
 21
82.7747
 31
0.0
  0
LINE
  8
0
 62
     0
 10
19.1203
 20
82.7747
 30
0.0
 11
19.9209
 21
82.7747
 31
0.0
  0
LINE
  8
0
 62
     0
 10
19.9209
 20
82.7747
 30
0.0
 11
19.9209
 21
85.7236
 31
0.0
  0
LINE
  8
0
 62
     0
 10
19.9209
 20
85.7236
 30
0.0
 11
19.1203
 21
85.7236
 31
0.0
  0
LINE
  8
0
 62
     0
 10
19.1203
 20
85.7236
 30
0.0
 11
19.1203
 21
91.6739
 31
0.0
  0
LINE
  8
0
 62
     0
 10
19.1203
 20
91.6739
 30
0.0
 11
19.9209
 21
91.6739
 31
0.0
  0
LINE
  8
0
 62
     0
 10
19.9209
 20
91.6739
 30
0.0
 11
19.9209
 21
94.6245
 31
0.0
  0
LINE
  8
0
 62
     0
 10
19.9209
 20
94.6245
 30
0.0
 11
19.1203
 21
94.6245
 31
0.0
  0
LINE
  8
0
 62
     0
 10
19.1203
 20
94.6245
 30
0.0
 11
19.1203
 21
95.6236
 31
0.0
  0
LINE
  8
0
 62
     0
 10
19.1203
 20
95.6236
 30
0.0
 11
5.27099
 21
95.6236
 31
0.0
  0
LINE
  8
0
 62
     0
 10
24.321
 20
95.6236
 30
0.0
 11
24.321
 21
94.6245
 31
0.0
  0
LINE
  8
0
 62
     0
 10
24.321
 20
94.6245
 30
0.0
 11
23.5204
 21
94.6245
 31
0.0
  0
LINE
  8
0
 62
     0
 10
23.5204
 20
94.6245
 30
0.0
 11
23.5204
 21
91.6739
 31
0.0
  0
LINE
  8
0
 62
     0
 10
23.5204
 20
91.6739
 30
0.0
 11
24.321
 21
91.6739
 31
0.0
  0
LINE
  8
0
 62
     0
 10
24.321
 20
91.6739
 30
0.0
 11
24.321
 21
85.7236
 31
0.0
  0
LINE
  8
0
 62
     0
 10
24.321
 20
85.7236
 30
0.0
 11
23.5204
 21
85.7236
 31
0.0
  0
LINE
  8
0
 62
     0
 10
23.5204
 20
85.7236
 30
0.0
 11
23.5204
 21
82.7747
 31
0.0
  0
LINE
  8
0
 62
     0
 10
23.5204
 20
82.7747
 30
0.0
 11
24.321
 21
82.7747
 31
0.0
  0
LINE
  8
0
 62
     0
 10
24.321
 20
82.7747
 30
0.0
 11
24.321
 21
81.7742
 31
0.0
  0
LINE
  8
0
 62
     0
 10
24.321
 20
81.7742
 30
0.0
 11
38.1702
 21
81.7742
 31
0.0
  0
LINE
  8
0
 62
     0
 10
38.1702
 20
81.7742
 30
0.0
 11
38.1702
 21
82.7747
 31
0.0
  0
LINE
  8
0
 62
     0
 10
38.1702
 20
82.7747
 30
0.0
 11
38.971
 21
82.7747
 31
0.0
  0
LINE
  8
0
 62
     0
 10
38.971
 20
82.7747
 30
0.0
 11
38.971
 21
85.7236
 31
0.0
  0
LINE
  8
0
 62
     0
 10
38.971
 20
85.7236
 30
0.0
 11
38.1702
 21
85.7236
 31
0.0
  0
LINE
  8
0
 62
     0
 10
38.1702
 20
85.7236
 30
0.0
 11
38.1702
 21
91.6739
 31
0.0
  0
LINE
  8
0
 62
     0
 10
38.1702
 20
91.6739
 30
0.0
 11
38.971
 21
91.6739
 31
0.0
  0
LINE
  8
0
 62
     0
 10
38.971
 20
91.6739
 30
0.0
 11
38.971
 21
94.6245
 31
0.0
  0
LINE
  8
0
 62
     0
 10
38.971
 20
94.6245
 30
0.0
 11
38.1702
 21
94.6245
 31
0.0
  0
LINE
  8
0
 62
     0
 10
38.1702
 20
94.6245
 30
0.0
 11
38.1702
 21
95.6236
 31
0.0
  0
LINE
  8
0
 62
     0
 10
38.1702
 20
95.6236
 30
0.0
 11
24.321
 21
95.6236
 31
0.0
  0
LINE
  8
0
 62
     0
 10
43.3709
 20
95.6236
 30
0.0
 11
43.3709
 21
94.6245
 31
0.0
  0
LINE
  8
0
 62
     0
 10
43.3709
 20
94.6245
 30
0.0
 11
42.5704
 21
94.6245
 31
0.0
  0
LINE
  8
0
 62
     0
 10
42.5704
 20
94.6245
 30
0.0
 11
42.5704
 21
91.6739
 31
0.0
  0
LINE
  8
0
 62
     0
 10
42.5704
 20
91.6739
 30
0.0
 11
43.3709
 21
91.6739
 31
0.0
  0
LINE
  8
0
 62
     0
 10
43.3709
 20
91.6739
 30
0.0
 11
43.3709
 21
85.7236
 31
0.0
  0
LINE
  8
0
 62
     0
 10
43.3709
 20
85.7236
 30
0.0
 11
42.5704
 21
85.7236
 31
0.0
  0
LINE
  8
0
 62
     0
 10
42.5704
 20
85.7236
 30
0.0
 11
42.5704
 21
82.7747
 31
0.0
  0
LINE
  8
0
 62
     0
 10
42.5704
 20
82.7747
 30
0.0
 11
43.3709
 21
82.7747
 31
0.0
  0
LINE
  8
0
 62
     0
 10
43.3709
 20
82.7747
 30
0.0
 11
43.3709
 21
81.7742
 31
0.0
  0
LINE
  8
0
 62
     0
 10
43.3709
 20
81.7742
 30
0.0
 11
57.2202
 21
81.7742
 31
0.0
  0
LINE
  8
0
 62
     0
 10
57.2202
 20
81.7742
 30
0.0
 11
57.2202
 21
82.7747
 31
0.0
  0
LINE
  8
0
 62
     0
 10
57.2202
 20
82.7747
 30
0.0
 11
58.021
 21
82.7747
 31
0.0
  0
LINE
  8
0
 62
     0
 10
58.021
 20
82.7747
 30
0.0
 11
58.021
 21
85.7236
 31
0.0
  0
LINE
  8
0
 62
     0
 10
58.021
 20
85.7236
 30
0.0
 11
57.2202
 21
85.7236
 31
0.0
  0
LINE
  8
0
 62
     0
 10
57.2202
 20
85.7236
 30
0.0
 11
57.2202
 21
91.6739
 31
0.0
  0
LINE
  8
0
 62
     0
 10
57.2202
 20
91.6739
 30
0.0
 11
58.021
 21
91.6739
 31
0.0
  0
LINE
  8
0
 62
     0
 10
58.021
 20
91.6739
 30
0.0
 11
58.021
 21
94.6245
 31
0.0
  0
LINE
  8
0
 62
     0
 10
58.021
 20
94.6245
 30
0.0
 11
57.2202
 21
94.6245
 31
0.0
  0
LINE
  8
0
 62
     0
 10
57.2202
 20
94.6245
 30
0.0
 11
57.2202
 21
95.6236
 31
0.0
  0
LINE
  8
0
 62
     0
 10
57.2202
 20
95.6236
 30
0.0
 11
43.3709
 21
95.6236
 31
0.0
  0
LINE
  8
0
 62
     0
 10
62.4209
 20
95.6236
 30
0.0
 11
62.4209
 21
94.6245
 31
0.0
  0
LINE
  8
0
 62
     0
 10
62.4209
 20
94.6245
 30
0.0
 11
61.6204
 21
94.6245
 31
0.0
  0
LINE
  8
0
 62
     0
 10
61.6204
 20
94.6245
 30
0.0
 11
61.6204
 21
91.6739
 31
0.0
  0
LINE
  8
0
 62
     0
 10
61.6204
 20
91.6739
 30
0.0
 11
62.4209
 21
91.6739
 31
0.0
  0
LINE
  8
0
 62
     0
 10
62.4209
 20
91.6739
 30
0.0
 11
62.4209
 21
85.7236
 31
0.0
  0
LINE
  8
0
 62
     0
 10
62.4209
 20
85.7236
 30
0.0
 11
61.6204
 21
85.7236
 31
0.0
  0
LINE
  8
0
 62
     0
 10
61.6204
 20
85.7236
 30
0.0
 11
61.6204
 21
82.7747
 31
0.0
  0
LINE
  8
0
 62
     0
 10
61.6204
 20
82.7747
 30
0.0
 11
62.4209
 21
82.7747
 31
0.0
  0
LINE
  8
0
 62
     0
 10
62.4209
 20
82.7747
 30
0.0
 11
62.4209
 21
81.7742
 31
0.0
  0
LINE
  8
0
 62
     0
 10
62.4209
 20
81.7742
 30
0.0
 11
76.2702
 21
81.7742
 31
0.0
  0
LINE
  8
0
 62
     0
 10
76.2702
 20
81.7742
 30
0.0
 11
76.2702
 21
82.7747
 31
0.0
  0
LINE
  8
0
 62
     0
 10
76.2702
 20
82.7747
 30
0.0
 11
77.071
 21
82.7747
 31
0.0
  0
LINE
  8
0
 62
     0
 10
77.071
 20
82.7747
 30
0.0
 11
77.071
 21
85.7236
 31
0.0
  0
LINE
  8
0
 62
     0
 10
77.071
 20
85.7236
 30
0.0
 11
76.2702
 21
85.7236
 31
0.0
  0
LINE
  8
0
 62
     0
 10
76.2702
 20
85.7236
 30
0.0
 11
76.2702
 21
91.6739
 31
0.0
  0
LINE
  8
0
 62
     0
 10
76.2702
 20
91.6739
 30
0.0
 11
77.071
 21
91.6739
 31
0.0
  0
LINE
  8
0
 62
     0
 10
77.071
 20
91.6739
 30
0.0
 11
77.071
 21
94.6245
 31
0.0
  0
LINE
  8
0
 62
     0
 10
77.071
 20
94.6245
 30
0.0
 11
76.2702
 21
94.6245
 31
0.0
  0
LINE
  8
0
 62
     0
 10
76.2702
 20
94.6245
 30
0.0
 11
76.2702
 21
95.6236
 31
0.0
  0
LINE
  8
0
 62
     0
 10
76.2702
 20
95.6236
 30
0.0
 11
62.4209
 21
95.6236
 31
0.0
  0
ENDSEC
  0
EOF
