999
"DXF R12 Output" (www.mydxf.blogspot.com)
 0 
SECTION
 2 
HEADER
 9 
$ACADVER
 1 
AC1009
 9 
$EXTMIN
 10 
 0 
 20 
 0 
 9 
$EXTMAX
 10 
 8.5 
 20 
 11 
 0 
ENDSEC
 0 
SECTION
 2 
ENTITIES
0
LINE
8
Layer 1
10
115.000000
20
290.000000
11
113.383781
21
289.838031
0
LINE
8
Layer 1
10
113.383781
20
289.838031
11
111.880250
21
289.373250
0
LINE
8
Layer 1
10
111.880250
20
289.373250
11
110.521094
21
288.637344
0
LINE
8
Layer 1
10
110.521094
20
288.637344
11
109.338000
21
287.662000
0
LINE
8
Layer 1
10
109.338000
20
287.662000
11
108.362656
21
286.478906
0
LINE
8
Layer 1
10
108.362656
20
286.478906
11
107.626750
21
285.119750
0
LINE
8
Layer 1
10
107.626750
20
285.119750
11
107.161969
21
283.616219
0
LINE
8
Layer 1
10
107.161969
20
283.616219
11
107.000000
21
282.000000
0
LINE
8
Layer 1
10
107.000000
20
282.000000
11
107.000000
21
157.000000
0
LINE
8
Layer 1
10
107.000000
20
157.000000
11
107.161969
21
155.383781
0
LINE
8
Layer 1
10
107.161969
20
155.383781
11
107.626750
21
153.880250
0
LINE
8
Layer 1
10
107.626750
20
153.880250
11
108.362656
21
152.521094
0
LINE
8
Layer 1
10
108.362656
20
152.521094
11
109.338000
21
151.338000
0
LINE
8
Layer 1
10
109.338000
20
151.338000
11
110.521094
21
150.362656
0
LINE
8
Layer 1
10
110.521094
20
150.362656
11
111.880250
21
149.626750
0
LINE
8
Layer 1
10
111.880250
20
149.626750
11
113.383781
21
149.161969
0
LINE
8
Layer 1
10
113.383781
20
149.161969
11
115.000000
21
149.000000
0
LINE
8
Layer 1
10
115.000000
20
149.000000
11
195.000000
21
149.000000
0
LINE
8
Layer 1
10
195.000000
20
149.000000
11
196.616219
21
149.161969
0
LINE
8
Layer 1
10
196.616219
20
149.161969
11
198.119750
21
149.626750
0
LINE
8
Layer 1
10
198.119750
20
149.626750
11
199.478906
21
150.362656
0
LINE
8
Layer 1
10
199.478906
20
150.362656
11
200.662000
21
151.338000
0
LINE
8
Layer 1
10
200.662000
20
151.338000
11
201.637344
21
152.521094
0
LINE
8
Layer 1
10
201.637344
20
152.521094
11
202.373250
21
153.880250
0
LINE
8
Layer 1
10
202.373250
20
153.880250
11
202.838031
21
155.383781
0
LINE
8
Layer 1
10
202.838031
20
155.383781
11
203.000000
21
157.000000
0
LINE
8
Layer 1
10
203.000000
20
157.000000
11
203.000000
21
282.000000
0
LINE
8
Layer 1
10
203.000000
20
282.000000
11
202.838031
21
283.616219
0
LINE
8
Layer 1
10
202.838031
20
283.616219
11
202.373250
21
285.119750
0
LINE
8
Layer 1
10
202.373250
20
285.119750
11
201.637344
21
286.478906
0
LINE
8
Layer 1
10
201.637344
20
286.478906
11
200.662000
21
287.662000
0
LINE
8
Layer 1
10
200.662000
20
287.662000
11
199.478906
21
288.637344
0
LINE
8
Layer 1
10
199.478906
20
288.637344
11
198.119750
21
289.373250
0
LINE
8
Layer 1
10
198.119750
20
289.373250
11
196.616219
21
289.838031
0
LINE
8
Layer 1
10
196.616219
20
289.838031
11
195.000000
21
290.000000
0
LINE
8
Layer 1
10
195.000000
20
290.000000
11
115.000000
21
290.000000
0
LINE
8
Layer 1
10
115.000000
20
290.000000
11
115.000000
21
290.000000
0
LINE
8
Layer 1
10
112.000000
20
286.500000
11
112.574025
21
286.385819
0
LINE
8
Layer 1
10
112.574025
20
286.385819
11
113.060660
21
286.060660
0
LINE
8
Layer 1
10
113.060660
20
286.060660
11
113.385819
21
285.574025
0
LINE
8
Layer 1
10
113.385819
20
285.574025
11
113.500000
21
285.000000
0
LINE
8
Layer 1
10
113.500000
20
285.000000
11
113.385819
21
284.425975
0
LINE
8
Layer 1
10
113.385819
20
284.425975
11
113.060660
21
283.939340
0
LINE
8
Layer 1
10
113.060660
20
283.939340
11
112.574025
21
283.614181
0
LINE
8
Layer 1
10
112.574025
20
283.614181
11
112.000000
21
283.500000
0
LINE
8
Layer 1
10
112.000000
20
283.500000
11
111.425975
21
283.614181
0
LINE
8
Layer 1
10
111.425975
20
283.614181
11
110.939340
21
283.939340
0
LINE
8
Layer 1
10
110.939340
20
283.939340
11
110.614181
21
284.425975
0
LINE
8
Layer 1
10
110.614181
20
284.425975
11
110.500000
21
285.000000
0
LINE
8
Layer 1
10
110.500000
20
285.000000
11
110.614181
21
285.574025
0
LINE
8
Layer 1
10
110.614181
20
285.574025
11
110.939340
21
286.060660
0
LINE
8
Layer 1
10
110.939340
20
286.060660
11
111.425975
21
286.385819
0
LINE
8
Layer 1
10
111.425975
20
286.385819
11
112.000000
21
286.500000
0
LINE
8
Layer 1
10
112.000000
20
286.500000
11
112.000000
21
286.500000
0
LINE
8
Layer 1
10
198.000000
20
286.500000
11
198.574025
21
286.385819
0
LINE
8
Layer 1
10
198.574025
20
286.385819
11
199.060660
21
286.060660
0
LINE
8
Layer 1
10
199.060660
20
286.060660
11
199.385819
21
285.574025
0
LINE
8
Layer 1
10
199.385819
20
285.574025
11
199.500000
21
285.000000
0
LINE
8
Layer 1
10
199.500000
20
285.000000
11
199.385819
21
284.425975
0
LINE
8
Layer 1
10
199.385819
20
284.425975
11
199.060660
21
283.939340
0
LINE
8
Layer 1
10
199.060660
20
283.939340
11
198.574025
21
283.614181
0
LINE
8
Layer 1
10
198.574025
20
283.614181
11
198.000000
21
283.500000
0
LINE
8
Layer 1
10
198.000000
20
283.500000
11
197.425975
21
283.614181
0
LINE
8
Layer 1
10
197.425975
20
283.614181
11
196.939340
21
283.939340
0
LINE
8
Layer 1
10
196.939340
20
283.939340
11
196.614181
21
284.425975
0
LINE
8
Layer 1
10
196.614181
20
284.425975
11
196.500000
21
285.000000
0
LINE
8
Layer 1
10
196.500000
20
285.000000
11
196.614181
21
285.574025
0
LINE
8
Layer 1
10
196.614181
20
285.574025
11
196.939340
21
286.060660
0
LINE
8
Layer 1
10
196.939340
20
286.060660
11
197.425975
21
286.385819
0
LINE
8
Layer 1
10
197.425975
20
286.385819
11
198.000000
21
286.500000
0
LINE
8
Layer 1
10
198.000000
20
286.500000
11
198.000000
21
286.500000
0
LINE
8
Layer 1
10
117.000000
20
283.000000
11
193.000000
21
283.000000
0
LINE
8
Layer 1
10
193.000000
20
283.000000
11
194.169906
21
282.764969
0
LINE
8
Layer 1
10
194.169906
20
282.764969
11
195.123250
21
282.123250
0
LINE
8
Layer 1
10
195.123250
20
282.123250
11
195.764969
21
281.169906
0
LINE
8
Layer 1
10
195.764969
20
281.169906
11
196.000000
21
280.000000
0
LINE
8
Layer 1
10
196.000000
20
280.000000
11
196.000000
21
159.000000
0
LINE
8
Layer 1
10
196.000000
20
159.000000
11
195.764969
21
157.830094
0
LINE
8
Layer 1
10
195.764969
20
157.830094
11
195.123250
21
156.876750
0
LINE
8
Layer 1
10
195.123250
20
156.876750
11
194.169906
21
156.235031
0
LINE
8
Layer 1
10
194.169906
20
156.235031
11
193.000000
21
156.000000
0
LINE
8
Layer 1
10
193.000000
20
156.000000
11
117.000000
21
156.000000
0
LINE
8
Layer 1
10
117.000000
20
156.000000
11
115.830094
21
156.235031
0
LINE
8
Layer 1
10
115.830094
20
156.235031
11
114.876750
21
156.876750
0
LINE
8
Layer 1
10
114.876750
20
156.876750
11
114.235031
21
157.830094
0
LINE
8
Layer 1
10
114.235031
20
157.830094
11
114.000000
21
159.000000
0
LINE
8
Layer 1
10
114.000000
20
159.000000
11
114.000000
21
280.000000
0
LINE
8
Layer 1
10
114.000000
20
280.000000
11
114.235031
21
281.169906
0
LINE
8
Layer 1
10
114.235031
20
281.169906
11
114.876750
21
282.123250
0
LINE
8
Layer 1
10
114.876750
20
282.123250
11
115.830094
21
282.764969
0
LINE
8
Layer 1
10
115.830094
20
282.764969
11
117.000000
21
283.000000
0
LINE
8
Layer 1
10
117.000000
20
283.000000
11
117.000000
21
283.000000
0
LINE
8
Layer 1
10
112.000000
20
155.500000
11
112.574025
21
155.385819
0
LINE
8
Layer 1
10
112.574025
20
155.385819
11
113.060660
21
155.060660
0
LINE
8
Layer 1
10
113.060660
20
155.060660
11
113.385819
21
154.574025
0
LINE
8
Layer 1
10
113.385819
20
154.574025
11
113.500000
21
154.000000
0
LINE
8
Layer 1
10
113.500000
20
154.000000
11
113.385819
21
153.425975
0
LINE
8
Layer 1
10
113.385819
20
153.425975
11
113.060660
21
152.939340
0
LINE
8
Layer 1
10
113.060660
20
152.939340
11
112.574025
21
152.614181
0
LINE
8
Layer 1
10
112.574025
20
152.614181
11
112.000000
21
152.500000
0
LINE
8
Layer 1
10
112.000000
20
152.500000
11
111.425975
21
152.614181
0
LINE
8
Layer 1
10
111.425975
20
152.614181
11
110.939340
21
152.939340
0
LINE
8
Layer 1
10
110.939340
20
152.939340
11
110.614181
21
153.425975
0
LINE
8
Layer 1
10
110.614181
20
153.425975
11
110.500000
21
154.000000
0
LINE
8
Layer 1
10
110.500000
20
154.000000
11
110.614181
21
154.574025
0
LINE
8
Layer 1
10
110.614181
20
154.574025
11
110.939340
21
155.060660
0
LINE
8
Layer 1
10
110.939340
20
155.060660
11
111.425975
21
155.385819
0
LINE
8
Layer 1
10
111.425975
20
155.385819
11
112.000000
21
155.500000
0
LINE
8
Layer 1
10
112.000000
20
155.500000
11
112.000000
21
155.500000
0
LINE
8
Layer 1
10
198.000000
20
155.500000
11
198.574025
21
155.385819
0
LINE
8
Layer 1
10
198.574025
20
155.385819
11
199.060660
21
155.060660
0
LINE
8
Layer 1
10
199.060660
20
155.060660
11
199.385819
21
154.574025
0
LINE
8
Layer 1
10
199.385819
20
154.574025
11
199.500000
21
154.000000
0
LINE
8
Layer 1
10
199.500000
20
154.000000
11
199.385819
21
153.425975
0
LINE
8
Layer 1
10
199.385819
20
153.425975
11
199.060660
21
152.939340
0
LINE
8
Layer 1
10
199.060660
20
152.939340
11
198.574025
21
152.614181
0
LINE
8
Layer 1
10
198.574025
20
152.614181
11
198.000000
21
152.500000
0
LINE
8
Layer 1
10
198.000000
20
152.500000
11
197.425975
21
152.614181
0
LINE
8
Layer 1
10
197.425975
20
152.614181
11
196.939340
21
152.939340
0
LINE
8
Layer 1
10
196.939340
20
152.939340
11
196.614181
21
153.425975
0
LINE
8
Layer 1
10
196.614181
20
153.425975
11
196.500000
21
154.000000
0
LINE
8
Layer 1
10
196.500000
20
154.000000
11
196.614181
21
154.574025
0
LINE
8
Layer 1
10
196.614181
20
154.574025
11
196.939340
21
155.060660
0
LINE
8
Layer 1
10
196.939340
20
155.060660
11
197.425975
21
155.385819
0
LINE
8
Layer 1
10
197.425975
20
155.385819
11
198.000000
21
155.500000
0
LINE
8
Layer 1
10
198.000000
20
155.500000
11
198.000000
21
155.500000
 0 
ENDSEC
 0 
EOF