  0
SECTION
  2
HEADER
  9
$ACADVER
  1
AC1009
  9
$FILLMODE
 70
 0
  9
$SPLFRAME
 70
 1
  9
$EXTMIN
 10
0
 20
0
 30
0.0
  9
$EXTMAX
 10
1058.33
 20
1058.33
 30
0.0
  0
ENDSEC
  0
SECTION
  2
TABLES
  0
TABLE
  2
LAYER
 70
1
  0
LAYER
  2
0
 70
     0
 62
     7
  6
CONTINUOUS
  0
ENDTAB
  0
ENDSEC
  0
SECTION
  2
ENTITIES
  0
LINE
  8
0
 62
     0
 10
78.7961
 20
100.446
 30
0.0
 11
78.9919
 21
100.44
 31
0.0
  0
LINE
  8
0
 62
     0
 10
78.9919
 20
100.44
 30
0.0
 11
79.1877
 21
100.416
 31
0.0
  0
LINE
  8
0
 62
     0
 10
79.1877
 20
100.416
 30
0.0
 11
79.3792
 21
100.378
 31
0.0
  0
LINE
  8
0
 62
     0
 10
79.3792
 20
100.378
 30
0.0
 11
79.568
 21
100.324
 31
0.0
  0
LINE
  8
0
 62
     0
 10
79.568
 20
100.324
 30
0.0
 11
79.7525
 21
100.256
 31
0.0
  0
LINE
  8
0
 62
     0
 10
79.7525
 20
100.256
 30
0.0
 11
79.9303
 21
100.174
 31
0.0
  0
LINE
  8
0
 62
     0
 10
79.9303
 20
100.174
 30
0.0
 11
80.1028
 21
100.079
 31
0.0
  0
LINE
  8
0
 62
     0
 10
80.1028
 20
100.079
 30
0.0
 11
80.2651
 21
99.9698
 31
0.0
  0
LINE
  8
0
 62
     0
 10
80.2651
 20
99.9698
 30
0.0
 11
80.4196
 21
99.8485
 31
0.0
  0
LINE
  8
0
 62
     0
 10
80.4196
 20
99.8485
 30
0.0
 11
80.5628
 21
99.7148
 31
0.0
  0
LINE
  8
0
 62
     0
 10
80.5628
 20
99.7148
 30
0.0
 11
80.6979
 21
99.5701
 31
0.0
  0
LINE
  8
0
 62
     0
 10
80.6979
 20
99.5701
 30
0.0
 11
80.8179
 21
99.4159
 31
0.0
  0
LINE
  8
0
 62
     0
 10
80.8179
 20
99.4159
 30
0.0
 11
80.9279
 21
99.2533
 31
0.0
  0
LINE
  8
0
 62
     0
 10
80.9279
 20
99.2533
 30
0.0
 11
81.0232
 21
99.0808
 31
0.0
  0
LINE
  8
0
 62
     0
 10
81.0232
 20
99.0808
 30
0.0
 11
81.1057
 21
98.903
 31
0.0
  0
LINE
  8
0
 62
     0
 10
81.1057
 20
98.903
 30
0.0
 11
81.1735
 21
98.7185
 31
0.0
  0
LINE
  8
0
 62
     0
 10
81.1735
 20
98.7185
 30
0.0
 11
81.2271
 21
98.5298
 31
0.0
  0
LINE
  8
0
 62
     0
 10
81.2271
 20
98.5298
 30
0.0
 11
81.2655
 21
98.3382
 31
0.0
  0
LINE
  8
0
 62
     0
 10
81.2655
 20
98.3382
 30
0.0
 11
81.2892
 21
98.1424
 31
0.0
  0
LINE
  8
0
 62
     0
 10
81.2892
 20
98.1424
 30
0.0
 11
81.2959
 21
97.947
 31
0.0
  0
LINE
  8
0
 62
     0
 10
81.2959
 20
97.947
 30
0.0
 11
81.2959
 21
2.69544
 31
0.0
  0
LINE
  8
0
 62
     0
 10
81.2959
 20
2.69544
 30
0.0
 11
81.2892
 21
2.49976
 31
0.0
  0
LINE
  8
0
 62
     0
 10
81.2892
 20
2.49976
 30
0.0
 11
81.2655
 21
2.30408
 31
0.0
  0
LINE
  8
0
 62
     0
 10
81.2655
 20
2.30408
 30
0.0
 11
81.2271
 21
2.11253
 31
0.0
  0
LINE
  8
0
 62
     0
 10
81.2271
 20
2.11253
 30
0.0
 11
81.1735
 21
1.92374
 31
0.0
  0
LINE
  8
0
 62
     0
 10
81.1735
 20
1.92374
 30
0.0
 11
81.1057
 21
1.73909
 31
0.0
  0
LINE
  8
0
 62
     0
 10
81.1057
 20
1.73909
 30
0.0
 11
81.0232
 21
1.56132
 31
0.0
  0
LINE
  8
0
 62
     0
 10
81.0232
 20
1.56132
 30
0.0
 11
80.9279
 21
1.38906
 31
0.0
  0
LINE
  8
0
 62
     0
 10
80.9279
 20
1.38906
 30
0.0
 11
80.8179
 21
1.22645
 31
0.0
  0
LINE
  8
0
 62
     0
 10
80.8179
 20
1.22645
 30
0.0
 11
80.6979
 21
1.07211
 31
0.0
  0
LINE
  8
0
 62
     0
 10
80.6979
 20
1.07211
 30
0.0
 11
80.5628
 21
0.928797
 31
0.0
  0
LINE
  8
0
 62
     0
 10
80.5628
 20
0.928797
 30
0.0
 11
80.4196
 21
0.79375
 31
0.0
  0
LINE
  8
0
 62
     0
 10
80.4196
 20
0.79375
 30
0.0
 11
80.2651
 21
0.673862
 31
0.0
  0
LINE
  8
0
 62
     0
 10
80.2651
 20
0.673862
 30
0.0
 11
80.1028
 21
0.563619
 31
0.0
  0
LINE
  8
0
 62
     0
 10
80.1028
 20
0.563619
 30
0.0
 11
79.9303
 21
0.468535
 31
0.0
  0
LINE
  8
0
 62
     0
 10
79.9303
 20
0.468535
 30
0.0
 11
79.7525
 21
0.385851
 31
0.0
  0
LINE
  8
0
 62
     0
 10
79.7525
 20
0.385851
 30
0.0
 11
79.568
 21
0.318327
 31
0.0
  0
LINE
  8
0
 62
     0
 10
79.568
 20
0.318327
 30
0.0
 11
79.3792
 21
0.264583
 31
0.0
  0
LINE
  8
0
 62
     0
 10
79.3792
 20
0.264583
 30
0.0
 11
79.1877
 21
0.225998
 31
0.0
  0
LINE
  8
0
 62
     0
 10
79.1877
 20
0.225998
 30
0.0
 11
78.9919
 21
0.202572
 31
0.0
  0
LINE
  8
0
 62
     0
 10
78.9919
 20
0.202572
 30
0.0
 11
78.7947
 21
0.195682
 31
0.0
  0
LINE
  8
0
 62
     0
 10
78.7947
 20
0.195682
 30
0.0
 11
2.59485
 21
0.195682
 31
0.0
  0
LINE
  8
0
 62
     0
 10
2.59485
 20
0.195682
 30
0.0
 11
2.39916
 21
0.202572
 31
0.0
  0
LINE
  8
0
 62
     0
 10
2.39916
 20
0.202572
 30
0.0
 11
2.20348
 21
0.225998
 31
0.0
  0
LINE
  8
0
 62
     0
 10
2.20348
 20
0.225998
 30
0.0
 11
2.01194
 21
0.264583
 31
0.0
  0
LINE
  8
0
 62
     0
 10
2.01194
 20
0.264583
 30
0.0
 11
1.82315
 21
0.318327
 31
0.0
  0
LINE
  8
0
 62
     0
 10
1.82315
 20
0.318327
 30
0.0
 11
1.63849
 21
0.385851
 31
0.0
  0
LINE
  8
0
 62
     0
 10
1.63849
 20
0.385851
 30
0.0
 11
1.46072
 21
0.468535
 31
0.0
  0
LINE
  8
0
 62
     0
 10
1.46072
 20
0.468535
 30
0.0
 11
1.28846
 21
0.563619
 31
0.0
  0
LINE
  8
0
 62
     0
 10
1.28846
 20
0.563619
 30
0.0
 11
1.12586
 21
0.673862
 31
0.0
  0
LINE
  8
0
 62
     0
 10
1.12586
 20
0.673862
 30
0.0
 11
0.971518
 21
0.79375
 31
0.0
  0
LINE
  8
0
 62
     0
 10
0.971518
 20
0.79375
 30
0.0
 11
0.826823
 21
0.928797
 31
0.0
  0
LINE
  8
0
 62
     0
 10
0.826823
 20
0.928797
 30
0.0
 11
0.693152
 21
1.07211
 31
0.0
  0
LINE
  8
0
 62
     0
 10
0.693152
 20
1.07211
 30
0.0
 11
0.571885
 21
1.22645
 31
0.0
  0
LINE
  8
0
 62
     0
 10
0.571885
 20
1.22645
 30
0.0
 11
0.463021
 21
1.38906
 31
0.0
  0
LINE
  8
0
 62
     0
 10
0.463021
 20
1.38906
 30
0.0
 11
0.367937
 21
1.56132
 31
0.0
  0
LINE
  8
0
 62
     0
 10
0.367937
 20
1.56132
 30
0.0
 11
0.285254
 21
1.73909
 31
0.0
  0
LINE
  8
0
 62
     0
 10
0.285254
 20
1.73909
 30
0.0
 11
0.21773
 21
1.92374
 31
0.0
  0
LINE
  8
0
 62
     0
 10
0.21773
 20
1.92374
 30
0.0
 11
0.163987
 21
2.11253
 31
0.0
  0
LINE
  8
0
 62
     0
 10
0.163987
 20
2.11253
 30
0.0
 11
0.125402
 21
2.30408
 31
0.0
  0
LINE
  8
0
 62
     0
 10
0.125402
 20
2.30408
 30
0.0
 11
0.101975
 21
2.49976
 31
0.0
  0
LINE
  8
0
 62
     0
 10
0.101975
 20
2.49976
 30
0.0
 11
0.0950846
 21
2.69544
 31
0.0
  0
LINE
  8
0
 62
     0
 10
0.0950846
 20
2.69544
 30
0.0
 11
0.0950846
 21
97.947
 31
0.0
  0
LINE
  8
0
 62
     0
 10
0.0950846
 20
97.947
 30
0.0
 11
0.101975
 21
98.1424
 31
0.0
  0
LINE
  8
0
 62
     0
 10
0.101975
 20
98.1424
 30
0.0
 11
0.125402
 21
98.3382
 31
0.0
  0
LINE
  8
0
 62
     0
 10
0.125402
 20
98.3382
 30
0.0
 11
0.163987
 21
98.5298
 31
0.0
  0
LINE
  8
0
 62
     0
 10
0.163987
 20
98.5298
 30
0.0
 11
0.21773
 21
98.7185
 31
0.0
  0
LINE
  8
0
 62
     0
 10
0.21773
 20
98.7185
 30
0.0
 11
0.285254
 21
98.903
 31
0.0
  0
LINE
  8
0
 62
     0
 10
0.285254
 20
98.903
 30
0.0
 11
0.367937
 21
99.0808
 31
0.0
  0
LINE
  8
0
 62
     0
 10
0.367937
 20
99.0808
 30
0.0
 11
0.463021
 21
99.2533
 31
0.0
  0
LINE
  8
0
 62
     0
 10
0.463021
 20
99.2533
 30
0.0
 11
0.571885
 21
99.4159
 31
0.0
  0
LINE
  8
0
 62
     0
 10
0.571885
 20
99.4159
 30
0.0
 11
0.693152
 21
99.5701
 31
0.0
  0
LINE
  8
0
 62
     0
 10
0.693152
 20
99.5701
 30
0.0
 11
0.826823
 21
99.7148
 31
0.0
  0
LINE
  8
0
 62
     0
 10
0.826823
 20
99.7148
 30
0.0
 11
0.971518
 21
99.8485
 31
0.0
  0
LINE
  8
0
 62
     0
 10
0.971518
 20
99.8485
 30
0.0
 11
1.12586
 21
99.9698
 31
0.0
  0
LINE
  8
0
 62
     0
 10
1.12586
 20
99.9698
 30
0.0
 11
1.28846
 21
100.079
 31
0.0
  0
LINE
  8
0
 62
     0
 10
1.28846
 20
100.079
 30
0.0
 11
1.46072
 21
100.174
 31
0.0
  0
LINE
  8
0
 62
     0
 10
1.46072
 20
100.174
 30
0.0
 11
1.63849
 21
100.256
 31
0.0
  0
LINE
  8
0
 62
     0
 10
1.63849
 20
100.256
 30
0.0
 11
1.82315
 21
100.324
 31
0.0
  0
LINE
  8
0
 62
     0
 10
1.82315
 20
100.324
 30
0.0
 11
2.01194
 21
100.378
 31
0.0
  0
LINE
  8
0
 62
     0
 10
2.01194
 20
100.378
 30
0.0
 11
2.20348
 21
100.416
 31
0.0
  0
LINE
  8
0
 62
     0
 10
2.20348
 20
100.416
 30
0.0
 11
2.39916
 21
100.44
 31
0.0
  0
LINE
  8
0
 62
     0
 10
2.39916
 20
100.44
 30
0.0
 11
2.59485
 21
100.446
 31
0.0
  0
LINE
  8
0
 62
     0
 10
2.59485
 20
100.446
 30
0.0
 11
78.7961
 21
100.446
 31
0.0
  0
LINE
  8
0
 62
     0
 10
14.6458
 20
19.2209
 30
0.0
 11
14.6458
 21
18.2218
 31
0.0
  0
LINE
  8
0
 62
     0
 10
14.6458
 20
18.2218
 30
0.0
 11
13.8452
 21
18.2218
 31
0.0
  0
LINE
  8
0
 62
     0
 10
13.8452
 20
18.2218
 30
0.0
 11
13.8452
 21
15.1212
 31
0.0
  0
LINE
  8
0
 62
     0
 10
13.8452
 20
15.1212
 30
0.0
 11
14.6458
 21
15.1212
 31
0.0
  0
LINE
  8
0
 62
     0
 10
14.6458
 20
15.1212
 30
0.0
 11
14.6458
 21
14.5218
 31
0.0
  0
LINE
  8
0
 62
     0
 10
14.6458
 20
14.5218
 30
0.0
 11
13.1203
 21
14.5218
 31
0.0
  0
LINE
  8
0
 62
     0
 10
13.1203
 20
14.5218
 30
0.0
 11
13.1203
 21
17.7505
 31
0.0
  0
LINE
  8
0
 62
     0
 10
13.1203
 20
17.7505
 30
0.0
 11
6.37067
 21
17.7505
 31
0.0
  0
LINE
  8
0
 62
     0
 10
6.37067
 20
17.7505
 30
0.0
 11
6.37067
 21
14.5218
 31
0.0
  0
LINE
  8
0
 62
     0
 10
6.37067
 20
14.5218
 30
0.0
 11
5.54524
 21
14.5218
 31
0.0
  0
LINE
  8
0
 62
     0
 10
5.54524
 20
14.5218
 30
0.0
 11
5.54524
 21
11.7216
 31
0.0
  0
LINE
  8
0
 62
     0
 10
5.54524
 20
11.7216
 30
0.0
 11
6.37067
 21
11.7216
 31
0.0
  0
LINE
  8
0
 62
     0
 10
6.37067
 20
11.7216
 30
0.0
 11
6.37067
 21
5.45151
 31
0.0
  0
LINE
  8
0
 62
     0
 10
6.37067
 20
5.45151
 30
0.0
 11
8.09597
 21
5.45151
 31
0.0
  0
LINE
  8
0
 62
     0
 10
8.09597
 20
5.45151
 30
0.0
 11
8.09597
 21
4.25125
 31
0.0
  0
LINE
  8
0
 62
     0
 10
8.09597
 20
4.25125
 30
0.0
 11
11.395
 21
4.25125
 31
0.0
  0
LINE
  8
0
 62
     0
 10
11.395
 20
4.25125
 30
0.0
 11
11.395
 21
5.45151
 31
0.0
  0
LINE
  8
0
 62
     0
 10
11.395
 20
5.45151
 30
0.0
 11
13.1203
 21
5.45151
 31
0.0
  0
LINE
  8
0
 62
     0
 10
13.1203
 20
5.45151
 30
0.0
 11
13.1203
 21
9.9205
 31
0.0
  0
LINE
  8
0
 62
     0
 10
13.1203
 20
9.9205
 30
0.0
 11
14.6458
 21
9.9205
 31
0.0
  0
LINE
  8
0
 62
     0
 10
14.6458
 20
9.9205
 30
0.0
 11
14.6458
 21
9.32106
 31
0.0
  0
LINE
  8
0
 62
     0
 10
14.6458
 20
9.32106
 30
0.0
 11
13.8452
 21
9.32106
 31
0.0
  0
LINE
  8
0
 62
     0
 10
13.8452
 20
9.32106
 30
0.0
 11
13.8452
 21
6.22184
 31
0.0
  0
LINE
  8
0
 62
     0
 10
13.8452
 20
6.22184
 30
0.0
 11
14.6458
 21
6.22184
 31
0.0
  0
LINE
  8
0
 62
     0
 10
14.6458
 20
6.22184
 30
0.0
 11
14.6458
 21
5.22139
 31
0.0
  0
LINE
  8
0
 62
     0
 10
14.6458
 20
5.22139
 30
0.0
 11
28.6453
 21
5.22139
 31
0.0
  0
LINE
  8
0
 62
     0
 10
28.6453
 20
5.22139
 30
0.0
 11
28.6453
 21
6.22184
 31
0.0
  0
LINE
  8
0
 62
     0
 10
28.6453
 20
6.22184
 30
0.0
 11
29.4459
 21
6.22184
 31
0.0
  0
LINE
  8
0
 62
     0
 10
29.4459
 20
6.22184
 30
0.0
 11
29.4459
 21
9.32106
 31
0.0
  0
LINE
  8
0
 62
     0
 10
29.4459
 20
9.32106
 30
0.0
 11
28.6453
 21
9.32106
 31
0.0
  0
LINE
  8
0
 62
     0
 10
28.6453
 20
9.32106
 30
0.0
 11
28.6453
 21
9.9205
 31
0.0
  0
LINE
  8
0
 62
     0
 10
28.6453
 20
9.9205
 30
0.0
 11
30.1708
 21
9.9205
 31
0.0
  0
LINE
  8
0
 62
     0
 10
30.1708
 20
9.9205
 30
0.0
 11
30.1708
 21
5.45151
 31
0.0
  0
LINE
  8
0
 62
     0
 10
30.1708
 20
5.45151
 30
0.0
 11
31.8961
 21
5.45151
 31
0.0
  0
LINE
  8
0
 62
     0
 10
31.8961
 20
5.45151
 30
0.0
 11
31.8961
 21
4.25125
 31
0.0
  0
LINE
  8
0
 62
     0
 10
31.8961
 20
4.25125
 30
0.0
 11
35.1951
 21
4.25125
 31
0.0
  0
LINE
  8
0
 62
     0
 10
35.1951
 20
4.25125
 30
0.0
 11
35.1951
 21
5.45151
 31
0.0
  0
LINE
  8
0
 62
     0
 10
35.1951
 20
5.45151
 30
0.0
 11
36.9203
 21
5.45151
 31
0.0
  0
LINE
  8
0
 62
     0
 10
36.9203
 20
5.45151
 30
0.0
 11
36.9203
 21
11.7216
 31
0.0
  0
LINE
  8
0
 62
     0
 10
36.9203
 20
11.7216
 30
0.0
 11
37.7458
 21
11.7216
 31
0.0
  0
LINE
  8
0
 62
     0
 10
37.7458
 20
11.7216
 30
0.0
 11
37.7458
 21
14.5218
 31
0.0
  0
LINE
  8
0
 62
     0
 10
37.7458
 20
14.5218
 30
0.0
 11
36.9203
 21
14.5218
 31
0.0
  0
LINE
  8
0
 62
     0
 10
36.9203
 20
14.5218
 30
0.0
 11
36.9203
 21
17.7505
 31
0.0
  0
LINE
  8
0
 62
     0
 10
36.9203
 20
17.7505
 30
0.0
 11
30.1708
 21
17.7505
 31
0.0
  0
LINE
  8
0
 62
     0
 10
30.1708
 20
17.7505
 30
0.0
 11
30.1708
 21
14.5218
 31
0.0
  0
LINE
  8
0
 62
     0
 10
30.1708
 20
14.5218
 30
0.0
 11
28.6453
 21
14.5218
 31
0.0
  0
LINE
  8
0
 62
     0
 10
28.6453
 20
14.5218
 30
0.0
 11
28.6453
 21
15.1212
 31
0.0
  0
LINE
  8
0
 62
     0
 10
28.6453
 20
15.1212
 30
0.0
 11
29.4459
 21
15.1212
 31
0.0
  0
LINE
  8
0
 62
     0
 10
29.4459
 20
15.1212
 30
0.0
 11
29.4459
 21
18.2218
 31
0.0
  0
LINE
  8
0
 62
     0
 10
29.4459
 20
18.2218
 30
0.0
 11
28.6453
 21
18.2218
 31
0.0
  0
LINE
  8
0
 62
     0
 10
28.6453
 20
18.2218
 30
0.0
 11
28.6453
 21
19.2209
 31
0.0
  0
LINE
  8
0
 62
     0
 10
28.6453
 20
19.2209
 30
0.0
 11
14.6458
 21
19.2209
 31
0.0
  0
LINE
  8
0
 62
     0
 10
43.2209
 20
19.2209
 30
0.0
 11
43.2209
 21
18.2218
 31
0.0
  0
LINE
  8
0
 62
     0
 10
43.2209
 20
18.2218
 30
0.0
 11
42.4201
 21
18.2218
 31
0.0
  0
LINE
  8
0
 62
     0
 10
42.4201
 20
18.2218
 30
0.0
 11
42.4201
 21
15.1212
 31
0.0
  0
LINE
  8
0
 62
     0
 10
42.4201
 20
15.1212
 30
0.0
 11
43.2209
 21
15.1212
 31
0.0
  0
LINE
  8
0
 62
     0
 10
43.2209
 20
15.1212
 30
0.0
 11
43.2209
 21
9.32106
 31
0.0
  0
LINE
  8
0
 62
     0
 10
43.2209
 20
9.32106
 30
0.0
 11
42.4201
 21
9.32106
 31
0.0
  0
LINE
  8
0
 62
     0
 10
42.4201
 20
9.32106
 30
0.0
 11
42.4201
 21
6.22184
 31
0.0
  0
LINE
  8
0
 62
     0
 10
42.4201
 20
6.22184
 30
0.0
 11
43.2209
 21
6.22184
 31
0.0
  0
LINE
  8
0
 62
     0
 10
43.2209
 20
6.22184
 30
0.0
 11
43.2209
 21
5.22139
 31
0.0
  0
LINE
  8
0
 62
     0
 10
43.2209
 20
5.22139
 30
0.0
 11
57.2202
 21
5.22139
 31
0.0
  0
LINE
  8
0
 62
     0
 10
57.2202
 20
5.22139
 30
0.0
 11
57.2202
 21
6.22184
 31
0.0
  0
LINE
  8
0
 62
     0
 10
57.2202
 20
6.22184
 30
0.0
 11
58.021
 21
6.22184
 31
0.0
  0
LINE
  8
0
 62
     0
 10
58.021
 20
6.22184
 30
0.0
 11
58.021
 21
9.32106
 31
0.0
  0
LINE
  8
0
 62
     0
 10
58.021
 20
9.32106
 30
0.0
 11
57.2202
 21
9.32106
 31
0.0
  0
LINE
  8
0
 62
     0
 10
57.2202
 20
9.32106
 30
0.0
 11
57.2202
 21
15.1212
 31
0.0
  0
LINE
  8
0
 62
     0
 10
57.2202
 20
15.1212
 30
0.0
 11
58.021
 21
15.1212
 31
0.0
  0
LINE
  8
0
 62
     0
 10
58.021
 20
15.1212
 30
0.0
 11
58.021
 21
18.2218
 31
0.0
  0
LINE
  8
0
 62
     0
 10
58.021
 20
18.2218
 30
0.0
 11
57.2202
 21
18.2218
 31
0.0
  0
LINE
  8
0
 62
     0
 10
57.2202
 20
18.2218
 30
0.0
 11
57.2202
 21
19.2209
 31
0.0
  0
LINE
  8
0
 62
     0
 10
57.2202
 20
19.2209
 30
0.0
 11
43.2209
 21
19.2209
 31
0.0
  0
LINE
  8
0
 62
     0
 10
68.7709
 20
37.8464
 30
0.0
 11
68.7709
 21
37.0209
 31
0.0
  0
LINE
  8
0
 62
     0
 10
68.7709
 20
37.0209
 30
0.0
 11
62.5009
 21
37.0209
 31
0.0
  0
LINE
  8
0
 62
     0
 10
62.5009
 20
37.0209
 30
0.0
 11
62.5009
 21
35.2958
 31
0.0
  0
LINE
  8
0
 62
     0
 10
62.5009
 20
35.2958
 30
0.0
 11
61.3008
 21
35.2958
 31
0.0
  0
LINE
  8
0
 62
     0
 10
61.3008
 20
35.2958
 30
0.0
 11
61.3008
 21
31.9967
 31
0.0
  0
LINE
  8
0
 62
     0
 10
61.3008
 20
31.9967
 30
0.0
 11
62.5009
 21
31.9967
 31
0.0
  0
LINE
  8
0
 62
     0
 10
62.5009
 20
31.9967
 30
0.0
 11
62.5009
 21
30.2714
 31
0.0
  0
LINE
  8
0
 62
     0
 10
62.5009
 20
30.2714
 30
0.0
 11
66.9699
 21
30.2714
 31
0.0
  0
LINE
  8
0
 62
     0
 10
66.9699
 20
30.2714
 30
0.0
 11
66.9699
 21
28.7459
 31
0.0
  0
LINE
  8
0
 62
     0
 10
66.9699
 20
28.7459
 30
0.0
 11
66.3691
 21
28.7459
 31
0.0
  0
LINE
  8
0
 62
     0
 10
66.3691
 20
28.7459
 30
0.0
 11
66.3691
 21
29.5465
 31
0.0
  0
LINE
  8
0
 62
     0
 10
66.3691
 20
29.5465
 30
0.0
 11
63.27
 21
29.5465
 31
0.0
  0
LINE
  8
0
 62
     0
 10
63.27
 20
29.5465
 30
0.0
 11
63.27
 21
28.7459
 31
0.0
  0
LINE
  8
0
 62
     0
 10
63.27
 20
28.7459
 30
0.0
 11
62.2709
 21
28.7459
 31
0.0
  0
LINE
  8
0
 62
     0
 10
62.2709
 20
28.7459
 30
0.0
 11
62.2709
 21
14.7464
 31
0.0
  0
LINE
  8
0
 62
     0
 10
62.2709
 20
14.7464
 30
0.0
 11
63.27
 21
14.7464
 31
0.0
  0
LINE
  8
0
 62
     0
 10
63.27
 20
14.7464
 30
0.0
 11
63.27
 21
13.9458
 31
0.0
  0
LINE
  8
0
 62
     0
 10
63.27
 20
13.9458
 30
0.0
 11
66.3691
 21
13.9458
 31
0.0
  0
LINE
  8
0
 62
     0
 10
66.3691
 20
13.9458
 30
0.0
 11
66.3691
 21
14.7464
 31
0.0
  0
LINE
  8
0
 62
     0
 10
66.3691
 20
14.7464
 30
0.0
 11
66.9699
 21
14.7464
 31
0.0
  0
LINE
  8
0
 62
     0
 10
66.9699
 20
14.7464
 30
0.0
 11
66.9699
 21
13.2209
 31
0.0
  0
LINE
  8
0
 62
     0
 10
66.9699
 20
13.2209
 30
0.0
 11
62.5009
 21
13.2209
 31
0.0
  0
LINE
  8
0
 62
     0
 10
62.5009
 20
13.2209
 30
0.0
 11
62.5009
 21
11.4956
 31
0.0
  0
LINE
  8
0
 62
     0
 10
62.5009
 20
11.4956
 30
0.0
 11
61.3008
 21
11.4956
 31
0.0
  0
LINE
  8
0
 62
     0
 10
61.3008
 20
11.4956
 30
0.0
 11
61.3008
 21
8.19658
 31
0.0
  0
LINE
  8
0
 62
     0
 10
61.3008
 20
8.19658
 30
0.0
 11
62.5009
 21
8.19658
 31
0.0
  0
LINE
  8
0
 62
     0
 10
62.5009
 20
8.19658
 30
0.0
 11
62.5009
 21
6.47128
 31
0.0
  0
LINE
  8
0
 62
     0
 10
62.5009
 20
6.47128
 30
0.0
 11
68.7709
 21
6.47128
 31
0.0
  0
LINE
  8
0
 62
     0
 10
68.7709
 20
6.47128
 30
0.0
 11
68.7709
 21
5.64582
 31
0.0
  0
LINE
  8
0
 62
     0
 10
68.7709
 20
5.64582
 30
0.0
 11
71.5712
 21
5.64582
 31
0.0
  0
LINE
  8
0
 62
     0
 10
71.5712
 20
5.64582
 30
0.0
 11
71.5712
 21
6.47128
 31
0.0
  0
LINE
  8
0
 62
     0
 10
71.5712
 20
6.47128
 30
0.0
 11
74.7998
 21
6.47128
 31
0.0
  0
LINE
  8
0
 62
     0
 10
74.7998
 20
6.47128
 30
0.0
 11
74.7998
 21
13.2209
 31
0.0
  0
LINE
  8
0
 62
     0
 10
74.7998
 20
13.2209
 30
0.0
 11
71.5712
 21
13.2209
 31
0.0
  0
LINE
  8
0
 62
     0
 10
71.5712
 20
13.2209
 30
0.0
 11
71.5712
 21
14.7464
 31
0.0
  0
LINE
  8
0
 62
     0
 10
71.5712
 20
14.7464
 30
0.0
 11
72.1706
 21
14.7464
 31
0.0
  0
LINE
  8
0
 62
     0
 10
72.1706
 20
14.7464
 30
0.0
 11
72.1706
 21
13.9458
 31
0.0
  0
LINE
  8
0
 62
     0
 10
72.1706
 20
13.9458
 30
0.0
 11
75.2697
 21
13.9458
 31
0.0
  0
LINE
  8
0
 62
     0
 10
75.2697
 20
13.9458
 30
0.0
 11
75.2697
 21
14.7464
 31
0.0
  0
LINE
  8
0
 62
     0
 10
75.2697
 20
14.7464
 30
0.0
 11
76.2702
 21
14.7464
 31
0.0
  0
LINE
  8
0
 62
     0
 10
76.2702
 20
14.7464
 30
0.0
 11
76.2702
 21
28.7459
 31
0.0
  0
LINE
  8
0
 62
     0
 10
76.2702
 20
28.7459
 30
0.0
 11
75.2697
 21
28.7459
 31
0.0
  0
LINE
  8
0
 62
     0
 10
75.2697
 20
28.7459
 30
0.0
 11
75.2697
 21
29.5465
 31
0.0
  0
LINE
  8
0
 62
     0
 10
75.2697
 20
29.5465
 30
0.0
 11
72.1706
 21
29.5465
 31
0.0
  0
LINE
  8
0
 62
     0
 10
72.1706
 20
29.5465
 30
0.0
 11
72.1706
 21
28.7459
 31
0.0
  0
LINE
  8
0
 62
     0
 10
72.1706
 20
28.7459
 30
0.0
 11
71.5712
 21
28.7459
 31
0.0
  0
LINE
  8
0
 62
     0
 10
71.5712
 20
28.7459
 30
0.0
 11
71.5712
 21
30.2714
 31
0.0
  0
LINE
  8
0
 62
     0
 10
71.5712
 20
30.2714
 30
0.0
 11
74.7998
 21
30.2714
 31
0.0
  0
LINE
  8
0
 62
     0
 10
74.7998
 20
30.2714
 30
0.0
 11
74.7998
 21
37.0209
 31
0.0
  0
LINE
  8
0
 62
     0
 10
74.7998
 20
37.0209
 30
0.0
 11
71.5712
 21
37.0209
 31
0.0
  0
LINE
  8
0
 62
     0
 10
71.5712
 20
37.0209
 30
0.0
 11
71.5712
 21
37.8464
 31
0.0
  0
LINE
  8
0
 62
     0
 10
71.5712
 20
37.8464
 30
0.0
 11
68.7709
 21
37.8464
 31
0.0
  0
LINE
  8
0
 62
     0
 10
5.11941
 20
38.2707
 30
0.0
 11
5.11941
 21
37.2717
 31
0.0
  0
LINE
  8
0
 62
     0
 10
5.11941
 20
37.2717
 30
0.0
 11
4.32015
 21
37.2717
 31
0.0
  0
LINE
  8
0
 62
     0
 10
4.32015
 20
37.2717
 30
0.0
 11
4.32015
 21
34.1712
 31
0.0
  0
LINE
  8
0
 62
     0
 10
4.32015
 20
34.1712
 30
0.0
 11
5.11941
 21
34.1712
 31
0.0
  0
LINE
  8
0
 62
     0
 10
5.11941
 20
34.1712
 30
0.0
 11
5.11941
 21
28.3711
 31
0.0
  0
LINE
  8
0
 62
     0
 10
5.11941
 20
28.3711
 30
0.0
 11
4.32015
 21
28.3711
 31
0.0
  0
LINE
  8
0
 62
     0
 10
4.32015
 20
28.3711
 30
0.0
 11
4.32015
 21
25.2718
 31
0.0
  0
LINE
  8
0
 62
     0
 10
4.32015
 20
25.2718
 30
0.0
 11
5.11941
 21
25.2718
 31
0.0
  0
LINE
  8
0
 62
     0
 10
5.11941
 20
25.2718
 30
0.0
 11
5.11941
 21
24.2714
 31
0.0
  0
LINE
  8
0
 62
     0
 10
5.11941
 20
24.2714
 30
0.0
 11
19.1203
 21
24.2714
 31
0.0
  0
LINE
  8
0
 62
     0
 10
19.1203
 20
24.2714
 30
0.0
 11
19.1203
 21
25.2718
 31
0.0
  0
LINE
  8
0
 62
     0
 10
19.1203
 20
25.2718
 30
0.0
 11
19.9209
 21
25.2718
 31
0.0
  0
LINE
  8
0
 62
     0
 10
19.9209
 20
25.2718
 30
0.0
 11
19.9209
 21
28.3711
 31
0.0
  0
LINE
  8
0
 62
     0
 10
19.9209
 20
28.3711
 30
0.0
 11
19.1203
 21
28.3711
 31
0.0
  0
LINE
  8
0
 62
     0
 10
19.1203
 20
28.3711
 30
0.0
 11
19.1203
 21
34.1712
 31
0.0
  0
LINE
  8
0
 62
     0
 10
19.1203
 20
34.1712
 30
0.0
 11
19.9209
 21
34.1712
 31
0.0
  0
LINE
  8
0
 62
     0
 10
19.9209
 20
34.1712
 30
0.0
 11
19.9209
 21
37.2717
 31
0.0
  0
LINE
  8
0
 62
     0
 10
19.9209
 20
37.2717
 30
0.0
 11
19.1203
 21
37.2717
 31
0.0
  0
LINE
  8
0
 62
     0
 10
19.1203
 20
37.2717
 30
0.0
 11
19.1203
 21
38.2707
 31
0.0
  0
LINE
  8
0
 62
     0
 10
19.1203
 20
38.2707
 30
0.0
 11
5.11941
 21
38.2707
 31
0.0
  0
LINE
  8
0
 62
     0
 10
24.1708
 20
38.2707
 30
0.0
 11
24.1708
 21
37.2717
 31
0.0
  0
LINE
  8
0
 62
     0
 10
24.1708
 20
37.2717
 30
0.0
 11
23.3702
 21
37.2717
 31
0.0
  0
LINE
  8
0
 62
     0
 10
23.3702
 20
37.2717
 30
0.0
 11
23.3702
 21
34.1712
 31
0.0
  0
LINE
  8
0
 62
     0
 10
23.3702
 20
34.1712
 30
0.0
 11
24.1708
 21
34.1712
 31
0.0
  0
LINE
  8
0
 62
     0
 10
24.1708
 20
34.1712
 30
0.0
 11
24.1708
 21
28.3711
 31
0.0
  0
LINE
  8
0
 62
     0
 10
24.1708
 20
28.3711
 30
0.0
 11
23.3702
 21
28.3711
 31
0.0
  0
LINE
  8
0
 62
     0
 10
23.3702
 20
28.3711
 30
0.0
 11
23.3702
 21
25.2718
 31
0.0
  0
LINE
  8
0
 62
     0
 10
23.3702
 20
25.2718
 30
0.0
 11
24.1708
 21
25.2718
 31
0.0
  0
LINE
  8
0
 62
     0
 10
24.1708
 20
25.2718
 30
0.0
 11
24.1708
 21
24.2714
 31
0.0
  0
LINE
  8
0
 62
     0
 10
24.1708
 20
24.2714
 30
0.0
 11
38.1702
 21
24.2714
 31
0.0
  0
LINE
  8
0
 62
     0
 10
38.1702
 20
24.2714
 30
0.0
 11
38.1702
 21
25.2718
 31
0.0
  0
LINE
  8
0
 62
     0
 10
38.1702
 20
25.2718
 30
0.0
 11
38.971
 21
25.2718
 31
0.0
  0
LINE
  8
0
 62
     0
 10
38.971
 20
25.2718
 30
0.0
 11
38.971
 21
28.3711
 31
0.0
  0
LINE
  8
0
 62
     0
 10
38.971
 20
28.3711
 30
0.0
 11
38.1702
 21
28.3711
 31
0.0
  0
LINE
  8
0
 62
     0
 10
38.1702
 20
28.3711
 30
0.0
 11
38.1702
 21
34.1712
 31
0.0
  0
LINE
  8
0
 62
     0
 10
38.1702
 20
34.1712
 30
0.0
 11
38.971
 21
34.1712
 31
0.0
  0
LINE
  8
0
 62
     0
 10
38.971
 20
34.1712
 30
0.0
 11
38.971
 21
37.2717
 31
0.0
  0
LINE
  8
0
 62
     0
 10
38.971
 20
37.2717
 30
0.0
 11
38.1702
 21
37.2717
 31
0.0
  0
LINE
  8
0
 62
     0
 10
38.1702
 20
37.2717
 30
0.0
 11
38.1702
 21
38.2707
 31
0.0
  0
LINE
  8
0
 62
     0
 10
38.1702
 20
38.2707
 30
0.0
 11
24.1708
 21
38.2707
 31
0.0
  0
LINE
  8
0
 62
     0
 10
43.2209
 20
38.2707
 30
0.0
 11
43.2209
 21
37.2717
 31
0.0
  0
LINE
  8
0
 62
     0
 10
43.2209
 20
37.2717
 30
0.0
 11
42.4201
 21
37.2717
 31
0.0
  0
LINE
  8
0
 62
     0
 10
42.4201
 20
37.2717
 30
0.0
 11
42.4201
 21
34.1712
 31
0.0
  0
LINE
  8
0
 62
     0
 10
42.4201
 20
34.1712
 30
0.0
 11
43.2209
 21
34.1712
 31
0.0
  0
LINE
  8
0
 62
     0
 10
43.2209
 20
34.1712
 30
0.0
 11
43.2209
 21
28.3711
 31
0.0
  0
LINE
  8
0
 62
     0
 10
43.2209
 20
28.3711
 30
0.0
 11
42.4201
 21
28.3711
 31
0.0
  0
LINE
  8
0
 62
     0
 10
42.4201
 20
28.3711
 30
0.0
 11
42.4201
 21
25.2718
 31
0.0
  0
LINE
  8
0
 62
     0
 10
42.4201
 20
25.2718
 30
0.0
 11
43.2209
 21
25.2718
 31
0.0
  0
LINE
  8
0
 62
     0
 10
43.2209
 20
25.2718
 30
0.0
 11
43.2209
 21
24.2714
 31
0.0
  0
LINE
  8
0
 62
     0
 10
43.2209
 20
24.2714
 30
0.0
 11
57.2202
 21
24.2714
 31
0.0
  0
LINE
  8
0
 62
     0
 10
57.2202
 20
24.2714
 30
0.0
 11
57.2202
 21
25.2718
 31
0.0
  0
LINE
  8
0
 62
     0
 10
57.2202
 20
25.2718
 30
0.0
 11
58.021
 21
25.2718
 31
0.0
  0
LINE
  8
0
 62
     0
 10
58.021
 20
25.2718
 30
0.0
 11
58.021
 21
28.3711
 31
0.0
  0
LINE
  8
0
 62
     0
 10
58.021
 20
28.3711
 30
0.0
 11
57.2202
 21
28.3711
 31
0.0
  0
LINE
  8
0
 62
     0
 10
57.2202
 20
28.3711
 30
0.0
 11
57.2202
 21
34.1712
 31
0.0
  0
LINE
  8
0
 62
     0
 10
57.2202
 20
34.1712
 30
0.0
 11
58.021
 21
34.1712
 31
0.0
  0
LINE
  8
0
 62
     0
 10
58.021
 20
34.1712
 30
0.0
 11
58.021
 21
37.2717
 31
0.0
  0
LINE
  8
0
 62
     0
 10
58.021
 20
37.2717
 30
0.0
 11
57.2202
 21
37.2717
 31
0.0
  0
LINE
  8
0
 62
     0
 10
57.2202
 20
37.2717
 30
0.0
 11
57.2202
 21
38.2707
 31
0.0
  0
LINE
  8
0
 62
     0
 10
57.2202
 20
38.2707
 30
0.0
 11
43.2209
 21
38.2707
 31
0.0
  0
LINE
  8
0
 62
     0
 10
5.11941
 20
57.3207
 30
0.0
 11
5.11941
 21
56.3217
 31
0.0
  0
LINE
  8
0
 62
     0
 10
5.11941
 20
56.3217
 30
0.0
 11
4.32015
 21
56.3217
 31
0.0
  0
LINE
  8
0
 62
     0
 10
4.32015
 20
56.3217
 30
0.0
 11
4.32015
 21
53.2211
 31
0.0
  0
LINE
  8
0
 62
     0
 10
4.32015
 20
53.2211
 30
0.0
 11
5.11941
 21
53.2211
 31
0.0
  0
LINE
  8
0
 62
     0
 10
5.11941
 20
53.2211
 30
0.0
 11
5.11941
 21
47.4211
 31
0.0
  0
LINE
  8
0
 62
     0
 10
5.11941
 20
47.4211
 30
0.0
 11
4.32015
 21
47.4211
 31
0.0
  0
LINE
  8
0
 62
     0
 10
4.32015
 20
47.4211
 30
0.0
 11
4.32015
 21
44.3219
 31
0.0
  0
LINE
  8
0
 62
     0
 10
4.32015
 20
44.3219
 30
0.0
 11
5.11941
 21
44.3219
 31
0.0
  0
LINE
  8
0
 62
     0
 10
5.11941
 20
44.3219
 30
0.0
 11
5.11941
 21
43.3215
 31
0.0
  0
LINE
  8
0
 62
     0
 10
5.11941
 20
43.3215
 30
0.0
 11
19.1203
 21
43.3215
 31
0.0
  0
LINE
  8
0
 62
     0
 10
19.1203
 20
43.3215
 30
0.0
 11
19.1203
 21
44.3219
 31
0.0
  0
LINE
  8
0
 62
     0
 10
19.1203
 20
44.3219
 30
0.0
 11
19.9209
 21
44.3219
 31
0.0
  0
LINE
  8
0
 62
     0
 10
19.9209
 20
44.3219
 30
0.0
 11
19.9209
 21
47.4211
 31
0.0
  0
LINE
  8
0
 62
     0
 10
19.9209
 20
47.4211
 30
0.0
 11
19.1203
 21
47.4211
 31
0.0
  0
LINE
  8
0
 62
     0
 10
19.1203
 20
47.4211
 30
0.0
 11
19.1203
 21
53.2211
 31
0.0
  0
LINE
  8
0
 62
     0
 10
19.1203
 20
53.2211
 30
0.0
 11
19.9209
 21
53.2211
 31
0.0
  0
LINE
  8
0
 62
     0
 10
19.9209
 20
53.2211
 30
0.0
 11
19.9209
 21
56.3217
 31
0.0
  0
LINE
  8
0
 62
     0
 10
19.9209
 20
56.3217
 30
0.0
 11
19.1203
 21
56.3217
 31
0.0
  0
LINE
  8
0
 62
     0
 10
19.1203
 20
56.3217
 30
0.0
 11
19.1203
 21
57.3207
 31
0.0
  0
LINE
  8
0
 62
     0
 10
19.1203
 20
57.3207
 30
0.0
 11
5.11941
 21
57.3207
 31
0.0
  0
LINE
  8
0
 62
     0
 10
24.1708
 20
57.3207
 30
0.0
 11
24.1708
 21
56.3217
 31
0.0
  0
LINE
  8
0
 62
     0
 10
24.1708
 20
56.3217
 30
0.0
 11
23.3702
 21
56.3217
 31
0.0
  0
LINE
  8
0
 62
     0
 10
23.3702
 20
56.3217
 30
0.0
 11
23.3702
 21
53.2211
 31
0.0
  0
LINE
  8
0
 62
     0
 10
23.3702
 20
53.2211
 30
0.0
 11
24.1708
 21
53.2211
 31
0.0
  0
LINE
  8
0
 62
     0
 10
24.1708
 20
53.2211
 30
0.0
 11
24.1708
 21
47.4211
 31
0.0
  0
LINE
  8
0
 62
     0
 10
24.1708
 20
47.4211
 30
0.0
 11
23.3702
 21
47.4211
 31
0.0
  0
LINE
  8
0
 62
     0
 10
23.3702
 20
47.4211
 30
0.0
 11
23.3702
 21
44.3219
 31
0.0
  0
LINE
  8
0
 62
     0
 10
23.3702
 20
44.3219
 30
0.0
 11
24.1708
 21
44.3219
 31
0.0
  0
LINE
  8
0
 62
     0
 10
24.1708
 20
44.3219
 30
0.0
 11
24.1708
 21
43.3215
 31
0.0
  0
LINE
  8
0
 62
     0
 10
24.1708
 20
43.3215
 30
0.0
 11
38.1702
 21
43.3215
 31
0.0
  0
LINE
  8
0
 62
     0
 10
38.1702
 20
43.3215
 30
0.0
 11
38.1702
 21
44.3219
 31
0.0
  0
LINE
  8
0
 62
     0
 10
38.1702
 20
44.3219
 30
0.0
 11
38.971
 21
44.3219
 31
0.0
  0
LINE
  8
0
 62
     0
 10
38.971
 20
44.3219
 30
0.0
 11
38.971
 21
47.4211
 31
0.0
  0
LINE
  8
0
 62
     0
 10
38.971
 20
47.4211
 30
0.0
 11
38.1702
 21
47.4211
 31
0.0
  0
LINE
  8
0
 62
     0
 10
38.1702
 20
47.4211
 30
0.0
 11
38.1702
 21
53.2211
 31
0.0
  0
LINE
  8
0
 62
     0
 10
38.1702
 20
53.2211
 30
0.0
 11
38.971
 21
53.2211
 31
0.0
  0
LINE
  8
0
 62
     0
 10
38.971
 20
53.2211
 30
0.0
 11
38.971
 21
56.3217
 31
0.0
  0
LINE
  8
0
 62
     0
 10
38.971
 20
56.3217
 30
0.0
 11
38.1702
 21
56.3217
 31
0.0
  0
LINE
  8
0
 62
     0
 10
38.1702
 20
56.3217
 30
0.0
 11
38.1702
 21
57.3207
 31
0.0
  0
LINE
  8
0
 62
     0
 10
38.1702
 20
57.3207
 30
0.0
 11
24.1708
 21
57.3207
 31
0.0
  0
LINE
  8
0
 62
     0
 10
43.2209
 20
57.3207
 30
0.0
 11
43.2209
 21
56.3217
 31
0.0
  0
LINE
  8
0
 62
     0
 10
43.2209
 20
56.3217
 30
0.0
 11
42.4201
 21
56.3217
 31
0.0
  0
LINE
  8
0
 62
     0
 10
42.4201
 20
56.3217
 30
0.0
 11
42.4201
 21
53.2211
 31
0.0
  0
LINE
  8
0
 62
     0
 10
42.4201
 20
53.2211
 30
0.0
 11
43.2209
 21
53.2211
 31
0.0
  0
LINE
  8
0
 62
     0
 10
43.2209
 20
53.2211
 30
0.0
 11
43.2209
 21
47.4211
 31
0.0
  0
LINE
  8
0
 62
     0
 10
43.2209
 20
47.4211
 30
0.0
 11
42.4201
 21
47.4211
 31
0.0
  0
LINE
  8
0
 62
     0
 10
42.4201
 20
47.4211
 30
0.0
 11
42.4201
 21
44.3219
 31
0.0
  0
LINE
  8
0
 62
     0
 10
42.4201
 20
44.3219
 30
0.0
 11
43.2209
 21
44.3219
 31
0.0
  0
LINE
  8
0
 62
     0
 10
43.2209
 20
44.3219
 30
0.0
 11
43.2209
 21
43.3215
 31
0.0
  0
LINE
  8
0
 62
     0
 10
43.2209
 20
43.3215
 30
0.0
 11
57.2202
 21
43.3215
 31
0.0
  0
LINE
  8
0
 62
     0
 10
57.2202
 20
43.3215
 30
0.0
 11
57.2202
 21
44.3219
 31
0.0
  0
LINE
  8
0
 62
     0
 10
57.2202
 20
44.3219
 30
0.0
 11
58.021
 21
44.3219
 31
0.0
  0
LINE
  8
0
 62
     0
 10
58.021
 20
44.3219
 30
0.0
 11
58.021
 21
47.4211
 31
0.0
  0
LINE
  8
0
 62
     0
 10
58.021
 20
47.4211
 30
0.0
 11
57.2202
 21
47.4211
 31
0.0
  0
LINE
  8
0
 62
     0
 10
57.2202
 20
47.4211
 30
0.0
 11
57.2202
 21
53.2211
 31
0.0
  0
LINE
  8
0
 62
     0
 10
57.2202
 20
53.2211
 30
0.0
 11
58.021
 21
53.2211
 31
0.0
  0
LINE
  8
0
 62
     0
 10
58.021
 20
53.2211
 30
0.0
 11
58.021
 21
56.3217
 31
0.0
  0
LINE
  8
0
 62
     0
 10
58.021
 20
56.3217
 30
0.0
 11
57.2202
 21
56.3217
 31
0.0
  0
LINE
  8
0
 62
     0
 10
57.2202
 20
56.3217
 30
0.0
 11
57.2202
 21
57.3207
 31
0.0
  0
LINE
  8
0
 62
     0
 10
57.2202
 20
57.3207
 30
0.0
 11
43.2209
 21
57.3207
 31
0.0
  0
LINE
  8
0
 62
     0
 10
68.7709
 20
75.9464
 30
0.0
 11
68.7709
 21
75.1209
 31
0.0
  0
LINE
  8
0
 62
     0
 10
68.7709
 20
75.1209
 30
0.0
 11
62.5009
 21
75.1209
 31
0.0
  0
LINE
  8
0
 62
     0
 10
62.5009
 20
75.1209
 30
0.0
 11
62.5009
 21
73.3972
 31
0.0
  0
LINE
  8
0
 62
     0
 10
62.5009
 20
73.3972
 30
0.0
 11
61.3008
 21
73.3972
 31
0.0
  0
LINE
  8
0
 62
     0
 10
61.3008
 20
73.3972
 30
0.0
 11
61.3008
 21
70.0966
 31
0.0
  0
LINE
  8
0
 62
     0
 10
61.3008
 20
70.0966
 30
0.0
 11
62.5009
 21
70.0966
 31
0.0
  0
LINE
  8
0
 62
     0
 10
62.5009
 20
70.0966
 30
0.0
 11
62.5009
 21
68.3715
 31
0.0
  0
LINE
  8
0
 62
     0
 10
62.5009
 20
68.3715
 30
0.0
 11
66.9699
 21
68.3715
 31
0.0
  0
LINE
  8
0
 62
     0
 10
66.9699
 20
68.3715
 30
0.0
 11
66.9699
 21
66.8457
 31
0.0
  0
LINE
  8
0
 62
     0
 10
66.9699
 20
66.8457
 30
0.0
 11
66.3691
 21
66.8457
 31
0.0
  0
LINE
  8
0
 62
     0
 10
66.3691
 20
66.8457
 30
0.0
 11
66.3691
 21
67.6465
 31
0.0
  0
LINE
  8
0
 62
     0
 10
66.3691
 20
67.6465
 30
0.0
 11
63.27
 21
67.6465
 31
0.0
  0
LINE
  8
0
 62
     0
 10
63.27
 20
67.6465
 30
0.0
 11
63.27
 21
66.8457
 31
0.0
  0
LINE
  8
0
 62
     0
 10
63.27
 20
66.8457
 30
0.0
 11
62.2709
 21
66.8457
 31
0.0
  0
LINE
  8
0
 62
     0
 10
62.2709
 20
66.8457
 30
0.0
 11
62.2709
 21
52.8465
 31
0.0
  0
LINE
  8
0
 62
     0
 10
62.2709
 20
52.8465
 30
0.0
 11
63.27
 21
52.8465
 31
0.0
  0
LINE
  8
0
 62
     0
 10
63.27
 20
52.8465
 30
0.0
 11
63.27
 21
52.0457
 31
0.0
  0
LINE
  8
0
 62
     0
 10
63.27
 20
52.0457
 30
0.0
 11
66.3691
 21
52.0457
 31
0.0
  0
LINE
  8
0
 62
     0
 10
66.3691
 20
52.0457
 30
0.0
 11
66.3691
 21
52.8465
 31
0.0
  0
LINE
  8
0
 62
     0
 10
66.3691
 20
52.8465
 30
0.0
 11
66.9699
 21
52.8465
 31
0.0
  0
LINE
  8
0
 62
     0
 10
66.9699
 20
52.8465
 30
0.0
 11
66.9699
 21
51.3211
 31
0.0
  0
LINE
  8
0
 62
     0
 10
66.9699
 20
51.3211
 30
0.0
 11
62.5009
 21
51.3211
 31
0.0
  0
LINE
  8
0
 62
     0
 10
62.5009
 20
51.3211
 30
0.0
 11
62.5009
 21
49.5956
 31
0.0
  0
LINE
  8
0
 62
     0
 10
62.5009
 20
49.5956
 30
0.0
 11
61.3008
 21
49.5956
 31
0.0
  0
LINE
  8
0
 62
     0
 10
61.3008
 20
49.5956
 30
0.0
 11
61.3008
 21
46.2964
 31
0.0
  0
LINE
  8
0
 62
     0
 10
61.3008
 20
46.2964
 30
0.0
 11
62.5009
 21
46.2964
 31
0.0
  0
LINE
  8
0
 62
     0
 10
62.5009
 20
46.2964
 30
0.0
 11
62.5009
 21
44.5714
 31
0.0
  0
LINE
  8
0
 62
     0
 10
62.5009
 20
44.5714
 30
0.0
 11
68.7709
 21
44.5714
 31
0.0
  0
LINE
  8
0
 62
     0
 10
68.7709
 20
44.5714
 30
0.0
 11
68.7709
 21
43.7459
 31
0.0
  0
LINE
  8
0
 62
     0
 10
68.7709
 20
43.7459
 30
0.0
 11
71.5712
 21
43.7459
 31
0.0
  0
LINE
  8
0
 62
     0
 10
71.5712
 20
43.7459
 30
0.0
 11
71.5712
 21
44.5714
 31
0.0
  0
LINE
  8
0
 62
     0
 10
71.5712
 20
44.5714
 30
0.0
 11
74.7998
 21
44.5714
 31
0.0
  0
LINE
  8
0
 62
     0
 10
74.7998
 20
44.5714
 30
0.0
 11
74.7998
 21
51.3211
 31
0.0
  0
LINE
  8
0
 62
     0
 10
74.7998
 20
51.3211
 30
0.0
 11
71.5712
 21
51.3211
 31
0.0
  0
LINE
  8
0
 62
     0
 10
71.5712
 20
51.3211
 30
0.0
 11
71.5712
 21
52.8465
 31
0.0
  0
LINE
  8
0
 62
     0
 10
71.5712
 20
52.8465
 30
0.0
 11
72.1706
 21
52.8465
 31
0.0
  0
LINE
  8
0
 62
     0
 10
72.1706
 20
52.8465
 30
0.0
 11
72.1706
 21
52.0457
 31
0.0
  0
LINE
  8
0
 62
     0
 10
72.1706
 20
52.0457
 30
0.0
 11
75.2697
 21
52.0457
 31
0.0
  0
LINE
  8
0
 62
     0
 10
75.2697
 20
52.0457
 30
0.0
 11
75.2697
 21
52.8465
 31
0.0
  0
LINE
  8
0
 62
     0
 10
75.2697
 20
52.8465
 30
0.0
 11
76.2702
 21
52.8465
 31
0.0
  0
LINE
  8
0
 62
     0
 10
76.2702
 20
52.8465
 30
0.0
 11
76.2702
 21
66.8457
 31
0.0
  0
LINE
  8
0
 62
     0
 10
76.2702
 20
66.8457
 30
0.0
 11
75.2697
 21
66.8457
 31
0.0
  0
LINE
  8
0
 62
     0
 10
75.2697
 20
66.8457
 30
0.0
 11
75.2697
 21
67.6465
 31
0.0
  0
LINE
  8
0
 62
     0
 10
75.2697
 20
67.6465
 30
0.0
 11
72.1706
 21
67.6465
 31
0.0
  0
LINE
  8
0
 62
     0
 10
72.1706
 20
67.6465
 30
0.0
 11
72.1706
 21
66.8457
 31
0.0
  0
LINE
  8
0
 62
     0
 10
72.1706
 20
66.8457
 30
0.0
 11
71.5712
 21
66.8457
 31
0.0
  0
LINE
  8
0
 62
     0
 10
71.5712
 20
66.8457
 30
0.0
 11
71.5712
 21
68.3715
 31
0.0
  0
LINE
  8
0
 62
     0
 10
71.5712
 20
68.3715
 30
0.0
 11
74.7998
 21
68.3715
 31
0.0
  0
LINE
  8
0
 62
     0
 10
74.7998
 20
68.3715
 30
0.0
 11
74.7998
 21
75.1209
 31
0.0
  0
LINE
  8
0
 62
     0
 10
74.7998
 20
75.1209
 30
0.0
 11
71.5712
 21
75.1209
 31
0.0
  0
LINE
  8
0
 62
     0
 10
71.5712
 20
75.1209
 30
0.0
 11
71.5712
 21
75.9464
 31
0.0
  0
LINE
  8
0
 62
     0
 10
71.5712
 20
75.9464
 30
0.0
 11
68.7709
 21
75.9464
 31
0.0
  0
LINE
  8
0
 62
     0
 10
5.11941
 20
76.3707
 30
0.0
 11
5.11941
 21
75.3717
 31
0.0
  0
LINE
  8
0
 62
     0
 10
5.11941
 20
75.3717
 30
0.0
 11
4.32015
 21
75.3717
 31
0.0
  0
LINE
  8
0
 62
     0
 10
4.32015
 20
75.3717
 30
0.0
 11
4.32015
 21
72.2711
 31
0.0
  0
LINE
  8
0
 62
     0
 10
4.32015
 20
72.2711
 30
0.0
 11
5.11941
 21
72.2711
 31
0.0
  0
LINE
  8
0
 62
     0
 10
5.11941
 20
72.2711
 30
0.0
 11
5.11941
 21
66.4711
 31
0.0
  0
LINE
  8
0
 62
     0
 10
5.11941
 20
66.4711
 30
0.0
 11
4.32015
 21
66.4711
 31
0.0
  0
LINE
  8
0
 62
     0
 10
4.32015
 20
66.4711
 30
0.0
 11
4.32015
 21
63.3719
 31
0.0
  0
LINE
  8
0
 62
     0
 10
4.32015
 20
63.3719
 30
0.0
 11
5.11941
 21
63.3719
 31
0.0
  0
LINE
  8
0
 62
     0
 10
5.11941
 20
63.3719
 30
0.0
 11
5.11941
 21
62.3715
 31
0.0
  0
LINE
  8
0
 62
     0
 10
5.11941
 20
62.3715
 30
0.0
 11
19.1203
 21
62.3715
 31
0.0
  0
LINE
  8
0
 62
     0
 10
19.1203
 20
62.3715
 30
0.0
 11
19.1203
 21
63.3719
 31
0.0
  0
LINE
  8
0
 62
     0
 10
19.1203
 20
63.3719
 30
0.0
 11
19.9209
 21
63.3719
 31
0.0
  0
LINE
  8
0
 62
     0
 10
19.9209
 20
63.3719
 30
0.0
 11
19.9209
 21
66.4711
 31
0.0
  0
LINE
  8
0
 62
     0
 10
19.9209
 20
66.4711
 30
0.0
 11
19.1203
 21
66.4711
 31
0.0
  0
LINE
  8
0
 62
     0
 10
19.1203
 20
66.4711
 30
0.0
 11
19.1203
 21
72.2711
 31
0.0
  0
LINE
  8
0
 62
     0
 10
19.1203
 20
72.2711
 30
0.0
 11
19.9209
 21
72.2711
 31
0.0
  0
LINE
  8
0
 62
     0
 10
19.9209
 20
72.2711
 30
0.0
 11
19.9209
 21
75.3717
 31
0.0
  0
LINE
  8
0
 62
     0
 10
19.9209
 20
75.3717
 30
0.0
 11
19.1203
 21
75.3717
 31
0.0
  0
LINE
  8
0
 62
     0
 10
19.1203
 20
75.3717
 30
0.0
 11
19.1203
 21
76.3707
 31
0.0
  0
LINE
  8
0
 62
     0
 10
19.1203
 20
76.3707
 30
0.0
 11
5.11941
 21
76.3707
 31
0.0
  0
LINE
  8
0
 62
     0
 10
24.1708
 20
76.3707
 30
0.0
 11
24.1708
 21
75.3717
 31
0.0
  0
LINE
  8
0
 62
     0
 10
24.1708
 20
75.3717
 30
0.0
 11
23.3702
 21
75.3717
 31
0.0
  0
LINE
  8
0
 62
     0
 10
23.3702
 20
75.3717
 30
0.0
 11
23.3702
 21
72.2711
 31
0.0
  0
LINE
  8
0
 62
     0
 10
23.3702
 20
72.2711
 30
0.0
 11
24.1708
 21
72.2711
 31
0.0
  0
LINE
  8
0
 62
     0
 10
24.1708
 20
72.2711
 30
0.0
 11
24.1708
 21
66.4711
 31
0.0
  0
LINE
  8
0
 62
     0
 10
24.1708
 20
66.4711
 30
0.0
 11
23.3702
 21
66.4711
 31
0.0
  0
LINE
  8
0
 62
     0
 10
23.3702
 20
66.4711
 30
0.0
 11
23.3702
 21
63.3719
 31
0.0
  0
LINE
  8
0
 62
     0
 10
23.3702
 20
63.3719
 30
0.0
 11
24.1708
 21
63.3719
 31
0.0
  0
LINE
  8
0
 62
     0
 10
24.1708
 20
63.3719
 30
0.0
 11
24.1708
 21
62.3715
 31
0.0
  0
LINE
  8
0
 62
     0
 10
24.1708
 20
62.3715
 30
0.0
 11
38.1702
 21
62.3715
 31
0.0
  0
LINE
  8
0
 62
     0
 10
38.1702
 20
62.3715
 30
0.0
 11
38.1702
 21
63.3719
 31
0.0
  0
LINE
  8
0
 62
     0
 10
38.1702
 20
63.3719
 30
0.0
 11
38.971
 21
63.3719
 31
0.0
  0
LINE
  8
0
 62
     0
 10
38.971
 20
63.3719
 30
0.0
 11
38.971
 21
66.4711
 31
0.0
  0
LINE
  8
0
 62
     0
 10
38.971
 20
66.4711
 30
0.0
 11
38.1702
 21
66.4711
 31
0.0
  0
LINE
  8
0
 62
     0
 10
38.1702
 20
66.4711
 30
0.0
 11
38.1702
 21
72.2711
 31
0.0
  0
LINE
  8
0
 62
     0
 10
38.1702
 20
72.2711
 30
0.0
 11
38.971
 21
72.2711
 31
0.0
  0
LINE
  8
0
 62
     0
 10
38.971
 20
72.2711
 30
0.0
 11
38.971
 21
75.3717
 31
0.0
  0
LINE
  8
0
 62
     0
 10
38.971
 20
75.3717
 30
0.0
 11
38.1702
 21
75.3717
 31
0.0
  0
LINE
  8
0
 62
     0
 10
38.1702
 20
75.3717
 30
0.0
 11
38.1702
 21
76.3707
 31
0.0
  0
LINE
  8
0
 62
     0
 10
38.1702
 20
76.3707
 30
0.0
 11
24.1708
 21
76.3707
 31
0.0
  0
LINE
  8
0
 62
     0
 10
43.2209
 20
76.3707
 30
0.0
 11
43.2209
 21
75.3717
 31
0.0
  0
LINE
  8
0
 62
     0
 10
43.2209
 20
75.3717
 30
0.0
 11
42.4201
 21
75.3717
 31
0.0
  0
LINE
  8
0
 62
     0
 10
42.4201
 20
75.3717
 30
0.0
 11
42.4201
 21
72.2711
 31
0.0
  0
LINE
  8
0
 62
     0
 10
42.4201
 20
72.2711
 30
0.0
 11
43.2209
 21
72.2711
 31
0.0
  0
LINE
  8
0
 62
     0
 10
43.2209
 20
72.2711
 30
0.0
 11
43.2209
 21
66.4711
 31
0.0
  0
LINE
  8
0
 62
     0
 10
43.2209
 20
66.4711
 30
0.0
 11
42.4201
 21
66.4711
 31
0.0
  0
LINE
  8
0
 62
     0
 10
42.4201
 20
66.4711
 30
0.0
 11
42.4201
 21
63.3719
 31
0.0
  0
LINE
  8
0
 62
     0
 10
42.4201
 20
63.3719
 30
0.0
 11
43.2209
 21
63.3719
 31
0.0
  0
LINE
  8
0
 62
     0
 10
43.2209
 20
63.3719
 30
0.0
 11
43.2209
 21
62.3715
 31
0.0
  0
LINE
  8
0
 62
     0
 10
43.2209
 20
62.3715
 30
0.0
 11
57.2202
 21
62.3715
 31
0.0
  0
LINE
  8
0
 62
     0
 10
57.2202
 20
62.3715
 30
0.0
 11
57.2202
 21
63.3719
 31
0.0
  0
LINE
  8
0
 62
     0
 10
57.2202
 20
63.3719
 30
0.0
 11
58.021
 21
63.3719
 31
0.0
  0
LINE
  8
0
 62
     0
 10
58.021
 20
63.3719
 30
0.0
 11
58.021
 21
66.4711
 31
0.0
  0
LINE
  8
0
 62
     0
 10
58.021
 20
66.4711
 30
0.0
 11
57.2202
 21
66.4711
 31
0.0
  0
LINE
  8
0
 62
     0
 10
57.2202
 20
66.4711
 30
0.0
 11
57.2202
 21
72.2711
 31
0.0
  0
LINE
  8
0
 62
     0
 10
57.2202
 20
72.2711
 30
0.0
 11
58.021
 21
72.2711
 31
0.0
  0
LINE
  8
0
 62
     0
 10
58.021
 20
72.2711
 30
0.0
 11
58.021
 21
75.3717
 31
0.0
  0
LINE
  8
0
 62
     0
 10
58.021
 20
75.3717
 30
0.0
 11
57.2202
 21
75.3717
 31
0.0
  0
LINE
  8
0
 62
     0
 10
57.2202
 20
75.3717
 30
0.0
 11
57.2202
 21
76.3707
 31
0.0
  0
LINE
  8
0
 62
     0
 10
57.2202
 20
76.3707
 30
0.0
 11
43.2209
 21
76.3707
 31
0.0
  0
LINE
  8
0
 62
     0
 10
5.11941
 20
95.4222
 30
0.0
 11
5.11941
 21
94.4217
 31
0.0
  0
LINE
  8
0
 62
     0
 10
5.11941
 20
94.4217
 30
0.0
 11
4.32015
 21
94.4217
 31
0.0
  0
LINE
  8
0
 62
     0
 10
4.32015
 20
94.4217
 30
0.0
 11
4.32015
 21
91.3225
 31
0.0
  0
LINE
  8
0
 62
     0
 10
4.32015
 20
91.3225
 30
0.0
 11
5.11941
 21
91.3225
 31
0.0
  0
LINE
  8
0
 62
     0
 10
5.11941
 20
91.3225
 30
0.0
 11
5.11941
 21
85.5225
 31
0.0
  0
LINE
  8
0
 62
     0
 10
5.11941
 20
85.5225
 30
0.0
 11
4.32015
 21
85.5225
 31
0.0
  0
LINE
  8
0
 62
     0
 10
4.32015
 20
85.5225
 30
0.0
 11
4.32015
 21
82.4219
 31
0.0
  0
LINE
  8
0
 62
     0
 10
4.32015
 20
82.4219
 30
0.0
 11
5.11941
 21
82.4219
 31
0.0
  0
LINE
  8
0
 62
     0
 10
5.11941
 20
82.4219
 30
0.0
 11
5.11941
 21
81.4215
 31
0.0
  0
LINE
  8
0
 62
     0
 10
5.11941
 20
81.4215
 30
0.0
 11
19.1203
 21
81.4215
 31
0.0
  0
LINE
  8
0
 62
     0
 10
19.1203
 20
81.4215
 30
0.0
 11
19.1203
 21
82.4219
 31
0.0
  0
LINE
  8
0
 62
     0
 10
19.1203
 20
82.4219
 30
0.0
 11
19.9209
 21
82.4219
 31
0.0
  0
LINE
  8
0
 62
     0
 10
19.9209
 20
82.4219
 30
0.0
 11
19.9209
 21
85.5225
 31
0.0
  0
LINE
  8
0
 62
     0
 10
19.9209
 20
85.5225
 30
0.0
 11
19.1203
 21
85.5225
 31
0.0
  0
LINE
  8
0
 62
     0
 10
19.1203
 20
85.5225
 30
0.0
 11
19.1203
 21
91.3225
 31
0.0
  0
LINE
  8
0
 62
     0
 10
19.1203
 20
91.3225
 30
0.0
 11
19.9209
 21
91.3225
 31
0.0
  0
LINE
  8
0
 62
     0
 10
19.9209
 20
91.3225
 30
0.0
 11
19.9209
 21
94.4217
 31
0.0
  0
LINE
  8
0
 62
     0
 10
19.9209
 20
94.4217
 30
0.0
 11
19.1203
 21
94.4217
 31
0.0
  0
LINE
  8
0
 62
     0
 10
19.1203
 20
94.4217
 30
0.0
 11
19.1203
 21
95.4222
 31
0.0
  0
LINE
  8
0
 62
     0
 10
19.1203
 20
95.4222
 30
0.0
 11
5.11941
 21
95.4222
 31
0.0
  0
LINE
  8
0
 62
     0
 10
24.1708
 20
95.4222
 30
0.0
 11
24.1708
 21
94.4217
 31
0.0
  0
LINE
  8
0
 62
     0
 10
24.1708
 20
94.4217
 30
0.0
 11
23.3702
 21
94.4217
 31
0.0
  0
LINE
  8
0
 62
     0
 10
23.3702
 20
94.4217
 30
0.0
 11
23.3702
 21
91.3225
 31
0.0
  0
LINE
  8
0
 62
     0
 10
23.3702
 20
91.3225
 30
0.0
 11
24.1708
 21
91.3225
 31
0.0
  0
LINE
  8
0
 62
     0
 10
24.1708
 20
91.3225
 30
0.0
 11
24.1708
 21
85.5225
 31
0.0
  0
LINE
  8
0
 62
     0
 10
24.1708
 20
85.5225
 30
0.0
 11
23.3702
 21
85.5225
 31
0.0
  0
LINE
  8
0
 62
     0
 10
23.3702
 20
85.5225
 30
0.0
 11
23.3702
 21
82.4219
 31
0.0
  0
LINE
  8
0
 62
     0
 10
23.3702
 20
82.4219
 30
0.0
 11
24.1708
 21
82.4219
 31
0.0
  0
LINE
  8
0
 62
     0
 10
24.1708
 20
82.4219
 30
0.0
 11
24.1708
 21
81.4215
 31
0.0
  0
LINE
  8
0
 62
     0
 10
24.1708
 20
81.4215
 30
0.0
 11
38.1702
 21
81.4215
 31
0.0
  0
LINE
  8
0
 62
     0
 10
38.1702
 20
81.4215
 30
0.0
 11
38.1702
 21
82.4219
 31
0.0
  0
LINE
  8
0
 62
     0
 10
38.1702
 20
82.4219
 30
0.0
 11
38.971
 21
82.4219
 31
0.0
  0
LINE
  8
0
 62
     0
 10
38.971
 20
82.4219
 30
0.0
 11
38.971
 21
85.5225
 31
0.0
  0
LINE
  8
0
 62
     0
 10
38.971
 20
85.5225
 30
0.0
 11
38.1702
 21
85.5225
 31
0.0
  0
LINE
  8
0
 62
     0
 10
38.1702
 20
85.5225
 30
0.0
 11
38.1702
 21
91.3225
 31
0.0
  0
LINE
  8
0
 62
     0
 10
38.1702
 20
91.3225
 30
0.0
 11
38.971
 21
91.3225
 31
0.0
  0
LINE
  8
0
 62
     0
 10
38.971
 20
91.3225
 30
0.0
 11
38.971
 21
94.4217
 31
0.0
  0
LINE
  8
0
 62
     0
 10
38.971
 20
94.4217
 30
0.0
 11
38.1702
 21
94.4217
 31
0.0
  0
LINE
  8
0
 62
     0
 10
38.1702
 20
94.4217
 30
0.0
 11
38.1702
 21
95.4222
 31
0.0
  0
LINE
  8
0
 62
     0
 10
38.1702
 20
95.4222
 30
0.0
 11
24.1708
 21
95.4222
 31
0.0
  0
LINE
  8
0
 62
     0
 10
43.2209
 20
95.4222
 30
0.0
 11
43.2209
 21
94.4217
 31
0.0
  0
LINE
  8
0
 62
     0
 10
43.2209
 20
94.4217
 30
0.0
 11
42.4201
 21
94.4217
 31
0.0
  0
LINE
  8
0
 62
     0
 10
42.4201
 20
94.4217
 30
0.0
 11
42.4201
 21
91.3225
 31
0.0
  0
LINE
  8
0
 62
     0
 10
42.4201
 20
91.3225
 30
0.0
 11
43.2209
 21
91.3225
 31
0.0
  0
LINE
  8
0
 62
     0
 10
43.2209
 20
91.3225
 30
0.0
 11
43.2209
 21
85.5225
 31
0.0
  0
LINE
  8
0
 62
     0
 10
43.2209
 20
85.5225
 30
0.0
 11
42.4201
 21
85.5225
 31
0.0
  0
LINE
  8
0
 62
     0
 10
42.4201
 20
85.5225
 30
0.0
 11
42.4201
 21
82.4219
 31
0.0
  0
LINE
  8
0
 62
     0
 10
42.4201
 20
82.4219
 30
0.0
 11
43.2209
 21
82.4219
 31
0.0
  0
LINE
  8
0
 62
     0
 10
43.2209
 20
82.4219
 30
0.0
 11
43.2209
 21
81.4215
 31
0.0
  0
LINE
  8
0
 62
     0
 10
43.2209
 20
81.4215
 30
0.0
 11
57.2202
 21
81.4215
 31
0.0
  0
LINE
  8
0
 62
     0
 10
57.2202
 20
81.4215
 30
0.0
 11
57.2202
 21
82.4219
 31
0.0
  0
LINE
  8
0
 62
     0
 10
57.2202
 20
82.4219
 30
0.0
 11
58.021
 21
82.4219
 31
0.0
  0
LINE
  8
0
 62
     0
 10
58.021
 20
82.4219
 30
0.0
 11
58.021
 21
85.5225
 31
0.0
  0
LINE
  8
0
 62
     0
 10
58.021
 20
85.5225
 30
0.0
 11
57.2202
 21
85.5225
 31
0.0
  0
LINE
  8
0
 62
     0
 10
57.2202
 20
85.5225
 30
0.0
 11
57.2202
 21
91.3225
 31
0.0
  0
LINE
  8
0
 62
     0
 10
57.2202
 20
91.3225
 30
0.0
 11
58.021
 21
91.3225
 31
0.0
  0
LINE
  8
0
 62
     0
 10
58.021
 20
91.3225
 30
0.0
 11
58.021
 21
94.4217
 31
0.0
  0
LINE
  8
0
 62
     0
 10
58.021
 20
94.4217
 30
0.0
 11
57.2202
 21
94.4217
 31
0.0
  0
LINE
  8
0
 62
     0
 10
57.2202
 20
94.4217
 30
0.0
 11
57.2202
 21
95.4222
 31
0.0
  0
LINE
  8
0
 62
     0
 10
57.2202
 20
95.4222
 30
0.0
 11
43.2209
 21
95.4222
 31
0.0
  0
LINE
  8
0
 62
     0
 10
62.2709
 20
95.4222
 30
0.0
 11
62.2709
 21
94.4217
 31
0.0
  0
LINE
  8
0
 62
     0
 10
62.2709
 20
94.4217
 30
0.0
 11
61.4701
 21
94.4217
 31
0.0
  0
LINE
  8
0
 62
     0
 10
61.4701
 20
94.4217
 30
0.0
 11
61.4701
 21
91.3225
 31
0.0
  0
LINE
  8
0
 62
     0
 10
61.4701
 20
91.3225
 30
0.0
 11
62.2709
 21
91.3225
 31
0.0
  0
LINE
  8
0
 62
     0
 10
62.2709
 20
91.3225
 30
0.0
 11
62.2709
 21
85.5225
 31
0.0
  0
LINE
  8
0
 62
     0
 10
62.2709
 20
85.5225
 30
0.0
 11
61.4701
 21
85.5225
 31
0.0
  0
LINE
  8
0
 62
     0
 10
61.4701
 20
85.5225
 30
0.0
 11
61.4701
 21
82.4219
 31
0.0
  0
LINE
  8
0
 62
     0
 10
61.4701
 20
82.4219
 30
0.0
 11
62.2709
 21
82.4219
 31
0.0
  0
LINE
  8
0
 62
     0
 10
62.2709
 20
82.4219
 30
0.0
 11
62.2709
 21
81.4215
 31
0.0
  0
LINE
  8
0
 62
     0
 10
62.2709
 20
81.4215
 30
0.0
 11
76.2702
 21
81.4215
 31
0.0
  0
LINE
  8
0
 62
     0
 10
76.2702
 20
81.4215
 30
0.0
 11
76.2702
 21
82.4219
 31
0.0
  0
LINE
  8
0
 62
     0
 10
76.2702
 20
82.4219
 30
0.0
 11
77.071
 21
82.4219
 31
0.0
  0
LINE
  8
0
 62
     0
 10
77.071
 20
82.4219
 30
0.0
 11
77.071
 21
85.5225
 31
0.0
  0
LINE
  8
0
 62
     0
 10
77.071
 20
85.5225
 30
0.0
 11
76.2702
 21
85.5225
 31
0.0
  0
LINE
  8
0
 62
     0
 10
76.2702
 20
85.5225
 30
0.0
 11
76.2702
 21
91.3225
 31
0.0
  0
LINE
  8
0
 62
     0
 10
76.2702
 20
91.3225
 30
0.0
 11
77.071
 21
91.3225
 31
0.0
  0
LINE
  8
0
 62
     0
 10
77.071
 20
91.3225
 30
0.0
 11
77.071
 21
94.4217
 31
0.0
  0
LINE
  8
0
 62
     0
 10
77.071
 20
94.4217
 30
0.0
 11
76.2702
 21
94.4217
 31
0.0
  0
LINE
  8
0
 62
     0
 10
76.2702
 20
94.4217
 30
0.0
 11
76.2702
 21
95.4222
 31
0.0
  0
LINE
  8
0
 62
     0
 10
76.2702
 20
95.4222
 30
0.0
 11
62.2709
 21
95.4222
 31
0.0
  0
ENDSEC
  0
EOF
