999
"DXF R12 Output" (www.mydxf.blogspot.com)
 0 
SECTION
 2 
HEADER
 9 
$ACADVER
 1 
AC1009
 9 
$EXTMIN
 10 
 0 
 20 
 0 
 9 
$EXTMAX
 10 
 8.5 
 20 
 11 
 0 
ENDSEC
 0 
SECTION
 2 
ENTITIES
0
LINE
8
Layer 1
10
115.000000
20
143.000000
11
113.383781
21
142.838031
0
LINE
8
Layer 1
10
113.383781
20
142.838031
11
111.880250
21
142.373250
0
LINE
8
Layer 1
10
111.880250
20
142.373250
11
110.521094
21
141.637344
0
LINE
8
Layer 1
10
110.521094
20
141.637344
11
109.338000
21
140.662000
0
LINE
8
Layer 1
10
109.338000
20
140.662000
11
108.362656
21
139.478906
0
LINE
8
Layer 1
10
108.362656
20
139.478906
11
107.626750
21
138.119750
0
LINE
8
Layer 1
10
107.626750
20
138.119750
11
107.161969
21
136.616219
0
LINE
8
Layer 1
10
107.161969
20
136.616219
11
107.000000
21
135.000000
0
LINE
8
Layer 1
10
107.000000
20
135.000000
11
107.000000
21
9.999950
0
LINE
8
Layer 1
10
107.000000
20
9.999950
11
107.161969
21
8.383752
0
LINE
8
Layer 1
10
107.161969
20
8.383752
11
107.626750
21
6.880277
0
LINE
8
Layer 1
10
107.626750
20
6.880277
11
108.362656
21
5.521199
0
LINE
8
Layer 1
10
108.362656
20
5.521199
11
109.338000
21
4.338195
0
LINE
8
Layer 1
10
109.338000
20
4.338195
11
110.521094
21
3.362941
0
LINE
8
Layer 1
10
110.521094
20
3.362941
11
111.880250
21
2.627113
0
LINE
8
Layer 1
10
111.880250
20
2.627113
11
113.383781
21
2.162388
0
LINE
8
Layer 1
10
113.383781
20
2.162388
11
115.000000
21
2.000440
0
LINE
8
Layer 1
10
115.000000
20
2.000440
11
195.000000
21
2.000440
0
LINE
8
Layer 1
10
195.000000
20
2.000440
11
196.616219
21
2.162388
0
LINE
8
Layer 1
10
196.616219
20
2.162388
11
198.119750
21
2.627113
0
LINE
8
Layer 1
10
198.119750
20
2.627113
11
199.478906
21
3.362941
0
LINE
8
Layer 1
10
199.478906
20
3.362941
11
200.662000
21
4.338195
0
LINE
8
Layer 1
10
200.662000
20
4.338195
11
201.637344
21
5.521199
0
LINE
8
Layer 1
10
201.637344
20
5.521199
11
202.373250
21
6.880277
0
LINE
8
Layer 1
10
202.373250
20
6.880277
11
202.838031
21
8.383752
0
LINE
8
Layer 1
10
202.838031
20
8.383752
11
203.000000
21
9.999950
0
LINE
8
Layer 1
10
203.000000
20
9.999950
11
203.000000
21
135.000000
0
LINE
8
Layer 1
10
203.000000
20
135.000000
11
202.838031
21
136.616219
0
LINE
8
Layer 1
10
202.838031
20
136.616219
11
202.373250
21
138.119750
0
LINE
8
Layer 1
10
202.373250
20
138.119750
11
201.637344
21
139.478906
0
LINE
8
Layer 1
10
201.637344
20
139.478906
11
200.662000
21
140.662000
0
LINE
8
Layer 1
10
200.662000
20
140.662000
11
199.478906
21
141.637344
0
LINE
8
Layer 1
10
199.478906
20
141.637344
11
198.119750
21
142.373250
0
LINE
8
Layer 1
10
198.119750
20
142.373250
11
196.616219
21
142.838031
0
LINE
8
Layer 1
10
196.616219
20
142.838031
11
195.000000
21
143.000000
0
LINE
8
Layer 1
10
195.000000
20
143.000000
11
115.000000
21
143.000000
0
LINE
8
Layer 1
10
115.000000
20
143.000000
11
115.000000
21
143.000000
0
LINE
8
Layer 1
10
112.000000
20
139.500000
11
112.574025
21
139.385819
0
LINE
8
Layer 1
10
112.574025
20
139.385819
11
113.060660
21
139.060660
0
LINE
8
Layer 1
10
113.060660
20
139.060660
11
113.385819
21
138.574025
0
LINE
8
Layer 1
10
113.385819
20
138.574025
11
113.500000
21
138.000000
0
LINE
8
Layer 1
10
113.500000
20
138.000000
11
113.385819
21
137.425975
0
LINE
8
Layer 1
10
113.385819
20
137.425975
11
113.060660
21
136.939340
0
LINE
8
Layer 1
10
113.060660
20
136.939340
11
112.574025
21
136.614181
0
LINE
8
Layer 1
10
112.574025
20
136.614181
11
112.000000
21
136.500000
0
LINE
8
Layer 1
10
112.000000
20
136.500000
11
111.425975
21
136.614181
0
LINE
8
Layer 1
10
111.425975
20
136.614181
11
110.939340
21
136.939340
0
LINE
8
Layer 1
10
110.939340
20
136.939340
11
110.614181
21
137.425975
0
LINE
8
Layer 1
10
110.614181
20
137.425975
11
110.500000
21
138.000000
0
LINE
8
Layer 1
10
110.500000
20
138.000000
11
110.614181
21
138.574025
0
LINE
8
Layer 1
10
110.614181
20
138.574025
11
110.939340
21
139.060660
0
LINE
8
Layer 1
10
110.939340
20
139.060660
11
111.425975
21
139.385819
0
LINE
8
Layer 1
10
111.425975
20
139.385819
11
112.000000
21
139.500000
0
LINE
8
Layer 1
10
112.000000
20
139.500000
11
112.000000
21
139.500000
0
LINE
8
Layer 1
10
198.000000
20
139.500000
11
198.574025
21
139.385819
0
LINE
8
Layer 1
10
198.574025
20
139.385819
11
199.060660
21
139.060660
0
LINE
8
Layer 1
10
199.060660
20
139.060660
11
199.385819
21
138.574025
0
LINE
8
Layer 1
10
199.385819
20
138.574025
11
199.500000
21
138.000000
0
LINE
8
Layer 1
10
199.500000
20
138.000000
11
199.385819
21
137.425975
0
LINE
8
Layer 1
10
199.385819
20
137.425975
11
199.060660
21
136.939340
0
LINE
8
Layer 1
10
199.060660
20
136.939340
11
198.574025
21
136.614181
0
LINE
8
Layer 1
10
198.574025
20
136.614181
11
198.000000
21
136.500000
0
LINE
8
Layer 1
10
198.000000
20
136.500000
11
197.425975
21
136.614181
0
LINE
8
Layer 1
10
197.425975
20
136.614181
11
196.939340
21
136.939340
0
LINE
8
Layer 1
10
196.939340
20
136.939340
11
196.614181
21
137.425975
0
LINE
8
Layer 1
10
196.614181
20
137.425975
11
196.500000
21
138.000000
0
LINE
8
Layer 1
10
196.500000
20
138.000000
11
196.614181
21
138.574025
0
LINE
8
Layer 1
10
196.614181
20
138.574025
11
196.939340
21
139.060660
0
LINE
8
Layer 1
10
196.939340
20
139.060660
11
197.425975
21
139.385819
0
LINE
8
Layer 1
10
197.425975
20
139.385819
11
198.000000
21
139.500000
0
LINE
8
Layer 1
10
198.000000
20
139.500000
11
198.000000
21
139.500000
0
LINE
8
Layer 1
10
118.000000
20
134.000000
11
192.000000
21
134.000000
0
LINE
8
Layer 1
10
192.000000
20
134.000000
11
192.779938
21
133.843312
0
LINE
8
Layer 1
10
192.779938
20
133.843312
11
193.415500
21
133.415500
0
LINE
8
Layer 1
10
193.415500
20
133.415500
11
193.843312
21
132.779938
0
LINE
8
Layer 1
10
193.843312
20
132.779938
11
194.000000
21
132.000000
0
LINE
8
Layer 1
10
194.000000
20
132.000000
11
194.000000
21
12.999800
0
LINE
8
Layer 1
10
194.000000
20
12.999800
11
193.843312
21
12.219878
0
LINE
8
Layer 1
10
193.843312
20
12.219878
11
193.415500
21
11.584350
0
LINE
8
Layer 1
10
193.415500
20
11.584350
11
192.779938
21
11.156572
0
LINE
8
Layer 1
10
192.779938
20
11.156572
11
192.000000
21
10.999900
0
LINE
8
Layer 1
10
192.000000
20
10.999900
11
118.000000
21
10.999900
0
LINE
8
Layer 1
10
118.000000
20
10.999900
11
117.220062
21
11.156572
0
LINE
8
Layer 1
10
117.220062
20
11.156572
11
116.584500
21
11.584350
0
LINE
8
Layer 1
10
116.584500
20
11.584350
11
116.156688
21
12.219878
0
LINE
8
Layer 1
10
116.156688
20
12.219878
11
116.000000
21
12.999800
0
LINE
8
Layer 1
10
116.000000
20
12.999800
11
116.000000
21
132.000000
0
LINE
8
Layer 1
10
116.000000
20
132.000000
11
116.156688
21
132.779938
0
LINE
8
Layer 1
10
116.156688
20
132.779938
11
116.584500
21
133.415500
0
LINE
8
Layer 1
10
116.584500
20
133.415500
11
117.220062
21
133.843312
0
LINE
8
Layer 1
10
117.220062
20
133.843312
11
118.000000
21
134.000000
0
LINE
8
Layer 1
10
118.000000
20
134.000000
11
118.000000
21
134.000000
0
LINE
8
Layer 1
10
112.000000
20
8.500300
11
112.574064
21
8.386103
0
LINE
8
Layer 1
10
112.574064
20
8.386103
11
113.060720
21
8.060900
0
LINE
8
Layer 1
10
113.060720
20
8.060900
11
113.385868
21
7.574207
0
LINE
8
Layer 1
10
113.385868
20
7.574207
11
113.500000
21
7.000130
0
LINE
8
Layer 1
10
113.500000
20
7.000130
11
113.385868
21
6.426053
0
LINE
8
Layer 1
10
113.385868
20
6.426053
11
113.060720
21
5.939360
0
LINE
8
Layer 1
10
113.060720
20
5.939360
11
112.574064
21
5.614157
0
LINE
8
Layer 1
10
112.574064
20
5.614157
11
112.000000
21
5.499960
0
LINE
8
Layer 1
10
112.000000
20
5.499960
11
111.425936
21
5.614157
0
LINE
8
Layer 1
10
111.425936
20
5.614157
11
110.939280
21
5.939360
0
LINE
8
Layer 1
10
110.939280
20
5.939360
11
110.614132
21
6.426053
0
LINE
8
Layer 1
10
110.614132
20
6.426053
11
110.500000
21
7.000130
0
LINE
8
Layer 1
10
110.500000
20
7.000130
11
110.614132
21
7.574207
0
LINE
8
Layer 1
10
110.614132
20
7.574207
11
110.939280
21
8.060900
0
LINE
8
Layer 1
10
110.939280
20
8.060900
11
111.425936
21
8.386103
0
LINE
8
Layer 1
10
111.425936
20
8.386103
11
112.000000
21
8.500300
0
LINE
8
Layer 1
10
112.000000
20
8.500300
11
112.000000
21
8.500300
0
LINE
8
Layer 1
10
198.000000
20
8.500300
11
198.574064
21
8.386103
0
LINE
8
Layer 1
10
198.574064
20
8.386103
11
199.060720
21
8.060900
0
LINE
8
Layer 1
10
199.060720
20
8.060900
11
199.385868
21
7.574207
0
LINE
8
Layer 1
10
199.385868
20
7.574207
11
199.500000
21
7.000130
0
LINE
8
Layer 1
10
199.500000
20
7.000130
11
199.385868
21
6.426053
0
LINE
8
Layer 1
10
199.385868
20
6.426053
11
199.060720
21
5.939360
0
LINE
8
Layer 1
10
199.060720
20
5.939360
11
198.574064
21
5.614157
0
LINE
8
Layer 1
10
198.574064
20
5.614157
11
198.000000
21
5.499960
0
LINE
8
Layer 1
10
198.000000
20
5.499960
11
197.425936
21
5.614157
0
LINE
8
Layer 1
10
197.425936
20
5.614157
11
196.939280
21
5.939360
0
LINE
8
Layer 1
10
196.939280
20
5.939360
11
196.614132
21
6.426053
0
LINE
8
Layer 1
10
196.614132
20
6.426053
11
196.500000
21
7.000130
0
LINE
8
Layer 1
10
196.500000
20
7.000130
11
196.614132
21
7.574207
0
LINE
8
Layer 1
10
196.614132
20
7.574207
11
196.939280
21
8.060900
0
LINE
8
Layer 1
10
196.939280
20
8.060900
11
197.425936
21
8.386103
0
LINE
8
Layer 1
10
197.425936
20
8.386103
11
198.000000
21
8.500300
0
LINE
8
Layer 1
10
198.000000
20
8.500300
11
198.000000
21
8.500300
 0 
ENDSEC
 0 
EOF