999
"DXF R12 Output" (www.mydxf.blogspot.com)
 0 
SECTION
 2 
HEADER
 9 
$ACADVER
 1 
AC1009
 9 
$EXTMIN
 10 
 0 
 20 
 0 
 9 
$EXTMAX
 10 
 8.5 
 20 
 11 
 0 
ENDSEC
 0 
SECTION
 2 
ENTITIES
0
LINE
8
Layer 1
10
15.000100
20
290.000000
11
13.383881
21
289.838031
0
LINE
8
Layer 1
10
13.383881
20
289.838031
11
11.880348
21
289.373250
0
LINE
8
Layer 1
10
11.880348
20
289.373250
11
10.521191
21
288.637344
0
LINE
8
Layer 1
10
10.521191
20
288.637344
11
9.338095
21
287.662000
0
LINE
8
Layer 1
10
9.338095
20
287.662000
11
8.362749
21
286.478906
0
LINE
8
Layer 1
10
8.362749
20
286.478906
11
7.626842
21
285.119750
0
LINE
8
Layer 1
10
7.626842
20
285.119750
11
7.162059
21
283.616219
0
LINE
8
Layer 1
10
7.162059
20
283.616219
11
7.000090
21
282.000000
0
LINE
8
Layer 1
10
7.000090
20
282.000000
11
7.000090
21
157.000000
0
LINE
8
Layer 1
10
7.000090
20
157.000000
11
7.162059
21
155.383781
0
LINE
8
Layer 1
10
7.162059
20
155.383781
11
7.626842
21
153.880250
0
LINE
8
Layer 1
10
7.626842
20
153.880250
11
8.362749
21
152.521094
0
LINE
8
Layer 1
10
8.362749
20
152.521094
11
9.338095
21
151.338000
0
LINE
8
Layer 1
10
9.338095
20
151.338000
11
10.521191
21
150.362656
0
LINE
8
Layer 1
10
10.521191
20
150.362656
11
11.880348
21
149.626750
0
LINE
8
Layer 1
10
11.880348
20
149.626750
11
13.383881
21
149.161969
0
LINE
8
Layer 1
10
13.383881
20
149.161969
11
15.000100
21
149.000000
0
LINE
8
Layer 1
10
15.000100
20
149.000000
11
94.999900
21
149.000000
0
LINE
8
Layer 1
10
94.999900
20
149.000000
11
96.616123
21
149.161969
0
LINE
8
Layer 1
10
96.616123
20
149.161969
11
98.119666
21
149.626750
0
LINE
8
Layer 1
10
98.119666
20
149.626750
11
99.478838
21
150.362656
0
LINE
8
Layer 1
10
99.478838
20
150.362656
11
100.661950
21
151.338000
0
LINE
8
Layer 1
10
100.661950
20
151.338000
11
101.637312
21
152.521094
0
LINE
8
Layer 1
10
101.637312
20
152.521094
11
102.373234
21
153.880250
0
LINE
8
Layer 1
10
102.373234
20
153.880250
11
102.838027
21
155.383781
0
LINE
8
Layer 1
10
102.838027
20
155.383781
11
103.000000
21
157.000000
0
LINE
8
Layer 1
10
103.000000
20
157.000000
11
103.000000
21
282.000000
0
LINE
8
Layer 1
10
103.000000
20
282.000000
11
102.838027
21
283.616219
0
LINE
8
Layer 1
10
102.838027
20
283.616219
11
102.373234
21
285.119750
0
LINE
8
Layer 1
10
102.373234
20
285.119750
11
101.637312
21
286.478906
0
LINE
8
Layer 1
10
101.637312
20
286.478906
11
100.661950
21
287.662000
0
LINE
8
Layer 1
10
100.661950
20
287.662000
11
99.478838
21
288.637344
0
LINE
8
Layer 1
10
99.478838
20
288.637344
11
98.119666
21
289.373250
0
LINE
8
Layer 1
10
98.119666
20
289.373250
11
96.616123
21
289.838031
0
LINE
8
Layer 1
10
96.616123
20
289.838031
11
94.999900
21
290.000000
0
LINE
8
Layer 1
10
94.999900
20
290.000000
11
15.000100
21
290.000000
0
LINE
8
Layer 1
10
15.000100
20
290.000000
11
15.000100
21
290.000000
0
LINE
8
Layer 1
10
11.999800
20
286.500000
11
12.573887
21
286.385877
0
LINE
8
Layer 1
10
12.573887
20
286.385877
11
13.060589
21
286.060731
0
LINE
8
Layer 1
10
13.060589
20
286.060731
11
13.385800
21
285.574071
0
LINE
8
Layer 1
10
13.385800
20
285.574071
11
13.500000
21
285.000000
0
LINE
8
Layer 1
10
13.500000
20
285.000000
11
13.385800
21
284.425929
0
LINE
8
Layer 1
10
13.385800
20
284.425929
11
13.060589
21
283.939269
0
LINE
8
Layer 1
10
13.060589
20
283.939269
11
12.573887
21
283.614123
0
LINE
8
Layer 1
10
12.573887
20
283.614123
11
11.999800
21
283.500000
0
LINE
8
Layer 1
10
11.999800
20
283.500000
11
11.416029
21
283.617964
0
LINE
8
Layer 1
10
11.416029
20
283.617964
11
10.939334
21
283.939446
0
LINE
8
Layer 1
10
10.939334
20
283.939446
11
10.617947
21
284.416205
0
LINE
8
Layer 1
10
10.617947
20
284.416205
11
10.500100
21
285.000000
0
LINE
8
Layer 1
10
10.500100
20
285.000000
11
10.617947
21
285.583795
0
LINE
8
Layer 1
10
10.617947
20
285.583795
11
10.939334
21
286.060554
0
LINE
8
Layer 1
10
10.939334
20
286.060554
11
11.416029
21
286.382036
0
LINE
8
Layer 1
10
11.416029
20
286.382036
11
11.999800
21
286.500000
0
LINE
8
Layer 1
10
11.999800
20
286.500000
11
11.999800
21
286.500000
0
LINE
8
Layer 1
10
98.000200
20
286.500000
11
98.583971
21
286.382036
0
LINE
8
Layer 1
10
98.583971
20
286.382036
11
99.060666
21
286.060554
0
LINE
8
Layer 1
10
99.060666
20
286.060554
11
99.382053
21
285.583795
0
LINE
8
Layer 1
10
99.382053
20
285.583795
11
99.499900
21
285.000000
0
LINE
8
Layer 1
10
99.499900
20
285.000000
11
99.382053
21
284.416205
0
LINE
8
Layer 1
10
99.382053
20
284.416205
11
99.060666
21
283.939446
0
LINE
8
Layer 1
10
99.060666
20
283.939446
11
98.583971
21
283.617964
0
LINE
8
Layer 1
10
98.583971
20
283.617964
11
98.000200
21
283.500000
0
LINE
8
Layer 1
10
98.000200
20
283.500000
11
97.426144
21
283.614152
0
LINE
8
Layer 1
10
97.426144
20
283.614152
11
96.939475
21
283.939304
0
LINE
8
Layer 1
10
96.939475
20
283.939304
11
96.614290
21
284.425952
0
LINE
8
Layer 1
10
96.614290
20
284.425952
11
96.500100
21
285.000000
0
LINE
8
Layer 1
10
96.500100
20
285.000000
11
96.614290
21
285.574048
0
LINE
8
Layer 1
10
96.614290
20
285.574048
11
96.939475
21
286.060696
0
LINE
8
Layer 1
10
96.939475
20
286.060696
11
97.426144
21
286.385848
0
LINE
8
Layer 1
10
97.426144
20
286.385848
11
98.000200
21
286.500000
0
LINE
8
Layer 1
10
98.000200
20
286.500000
11
98.000200
21
286.500000
0
LINE
8
Layer 1
10
17.999900
20
281.000000
11
59.000000
21
281.000000
0
LINE
8
Layer 1
10
59.000000
20
281.000000
11
59.779922
21
280.843313
0
LINE
8
Layer 1
10
59.779922
20
280.843313
11
60.415450
21
280.415500
0
LINE
8
Layer 1
10
60.415450
20
280.415500
11
60.843228
21
279.779937
0
LINE
8
Layer 1
10
60.843228
20
279.779937
11
60.999900
21
279.000000
0
LINE
8
Layer 1
10
60.999900
20
279.000000
11
60.999900
21
263.000000
0
LINE
8
Layer 1
10
60.999900
20
263.000000
11
60.843228
21
262.220063
0
LINE
8
Layer 1
10
60.843228
20
262.220063
11
60.415450
21
261.584500
0
LINE
8
Layer 1
10
60.415450
20
261.584500
11
59.779922
21
261.156687
0
LINE
8
Layer 1
10
59.779922
20
261.156687
11
59.000000
21
261.000000
0
LINE
8
Layer 1
10
59.000000
20
261.000000
11
17.999900
21
261.000000
0
LINE
8
Layer 1
10
17.999900
20
261.000000
11
17.219994
21
261.156687
0
LINE
8
Layer 1
10
17.219994
20
261.156687
11
16.584500
21
261.584500
0
LINE
8
Layer 1
10
16.584500
20
261.584500
11
16.156756
21
262.220063
0
LINE
8
Layer 1
10
16.156756
20
262.220063
11
16.000100
21
263.000000
0
LINE
8
Layer 1
10
16.000100
20
263.000000
11
16.000100
21
279.000000
0
LINE
8
Layer 1
10
16.000100
20
279.000000
11
16.156756
21
279.779937
0
LINE
8
Layer 1
10
16.156756
20
279.779937
11
16.584500
21
280.415500
0
LINE
8
Layer 1
10
16.584500
20
280.415500
11
17.219994
21
280.843313
0
LINE
8
Layer 1
10
17.219994
20
280.843313
11
17.999900
21
281.000000
0
LINE
8
Layer 1
10
17.999900
20
281.000000
11
17.999900
21
281.000000
0
LINE
8
Layer 1
10
17.999900
20
252.500000
11
92.000100
21
252.500000
0
LINE
8
Layer 1
10
92.000100
20
252.500000
11
92.780006
21
252.343312
0
LINE
8
Layer 1
10
92.780006
20
252.343312
11
93.415500
21
251.915500
0
LINE
8
Layer 1
10
93.415500
20
251.915500
11
93.843244
21
251.279938
0
LINE
8
Layer 1
10
93.843244
20
251.279938
11
93.999900
21
250.500000
0
LINE
8
Layer 1
10
93.999900
20
250.500000
11
93.999900
21
238.500000
0
LINE
8
Layer 1
10
93.999900
20
238.500000
11
93.843244
21
237.720062
0
LINE
8
Layer 1
10
93.843244
20
237.720062
11
93.415500
21
237.084500
0
LINE
8
Layer 1
10
93.415500
20
237.084500
11
92.780006
21
236.656688
0
LINE
8
Layer 1
10
92.780006
20
236.656688
11
92.000100
21
236.500000
0
LINE
8
Layer 1
10
92.000100
20
236.500000
11
17.999900
21
236.500000
0
LINE
8
Layer 1
10
17.999900
20
236.500000
11
17.219994
21
236.656688
0
LINE
8
Layer 1
10
17.219994
20
236.656688
11
16.584500
21
237.084500
0
LINE
8
Layer 1
10
16.584500
20
237.084500
11
16.156756
21
237.720062
0
LINE
8
Layer 1
10
16.156756
20
237.720062
11
16.000100
21
238.500000
0
LINE
8
Layer 1
10
16.000100
20
238.500000
11
16.000100
21
250.500000
0
LINE
8
Layer 1
10
16.000100
20
250.500000
11
16.156756
21
251.279938
0
LINE
8
Layer 1
10
16.156756
20
251.279938
11
16.584500
21
251.915500
0
LINE
8
Layer 1
10
16.584500
20
251.915500
11
17.219994
21
252.343312
0
LINE
8
Layer 1
10
17.219994
20
252.343312
11
17.999900
21
252.500000
0
LINE
8
Layer 1
10
17.999900
20
252.500000
11
17.999900
21
252.500000
0
LINE
8
Layer 1
10
17.999900
20
233.500000
11
91.499800
21
233.500000
0
LINE
8
Layer 1
10
91.499800
20
233.500000
11
92.279800
21
233.343312
0
LINE
8
Layer 1
10
92.279800
20
233.343312
11
92.915500
21
232.915500
0
LINE
8
Layer 1
10
92.915500
20
232.915500
11
93.343450
21
232.279938
0
LINE
8
Layer 1
10
93.343450
20
232.279938
11
93.500200
21
231.500000
0
LINE
8
Layer 1
10
93.500200
20
231.500000
11
93.500200
21
200.500000
0
LINE
8
Layer 1
10
93.500200
20
200.500000
11
93.343450
21
199.720062
0
LINE
8
Layer 1
10
93.343450
20
199.720062
11
92.915500
21
199.084500
0
LINE
8
Layer 1
10
92.915500
20
199.084500
11
92.279800
21
198.656688
0
LINE
8
Layer 1
10
92.279800
20
198.656688
11
91.499800
21
198.500000
0
LINE
8
Layer 1
10
91.499800
20
198.500000
11
17.999900
21
198.500000
0
LINE
8
Layer 1
10
17.999900
20
198.500000
11
17.219994
21
198.656688
0
LINE
8
Layer 1
10
17.219994
20
198.656688
11
16.584500
21
199.084500
0
LINE
8
Layer 1
10
16.584500
20
199.084500
11
16.156756
21
199.720062
0
LINE
8
Layer 1
10
16.156756
20
199.720062
11
16.000100
21
200.500000
0
LINE
8
Layer 1
10
16.000100
20
200.500000
11
16.000100
21
231.500000
0
LINE
8
Layer 1
10
16.000100
20
231.500000
11
16.156756
21
232.279938
0
LINE
8
Layer 1
10
16.156756
20
232.279938
11
16.584500
21
232.915500
0
LINE
8
Layer 1
10
16.584500
20
232.915500
11
17.219994
21
233.343312
0
LINE
8
Layer 1
10
17.219994
20
233.343312
11
17.999900
21
233.500000
0
LINE
8
Layer 1
10
17.999900
20
233.500000
11
17.999900
21
233.500000
0
LINE
8
Layer 1
10
17.999900
20
195.500000
11
91.499800
21
195.500000
0
LINE
8
Layer 1
10
91.499800
20
195.500000
11
92.279800
21
195.343312
0
LINE
8
Layer 1
10
92.279800
20
195.343312
11
92.915500
21
194.915500
0
LINE
8
Layer 1
10
92.915500
20
194.915500
11
93.343450
21
194.279938
0
LINE
8
Layer 1
10
93.343450
20
194.279938
11
93.500200
21
193.500000
0
LINE
8
Layer 1
10
93.500200
20
193.500000
11
93.500200
21
162.500000
0
LINE
8
Layer 1
10
93.500200
20
162.500000
11
93.343450
21
161.720062
0
LINE
8
Layer 1
10
93.343450
20
161.720062
11
92.915500
21
161.084500
0
LINE
8
Layer 1
10
92.915500
20
161.084500
11
92.279800
21
160.656688
0
LINE
8
Layer 1
10
92.279800
20
160.656688
11
91.499800
21
160.500000
0
LINE
8
Layer 1
10
91.499800
20
160.500000
11
60.282100
21
160.500000
0
LINE
8
Layer 1
10
60.282100
20
160.500000
11
60.250100
21
160.500000
0
LINE
8
Layer 1
10
60.250100
20
160.500000
11
58.499800
21
160.500000
0
LINE
8
Layer 1
10
58.499800
20
160.500000
11
57.250300
21
160.500000
0
LINE
8
Layer 1
10
57.250300
20
160.500000
11
56.762823
21
160.402000
0
LINE
8
Layer 1
10
56.762823
20
160.402000
11
56.365562
21
160.134500
0
LINE
8
Layer 1
10
56.365562
20
160.134500
11
56.098145
21
159.737250
0
LINE
8
Layer 1
10
56.098145
20
159.737250
11
56.000200
21
159.250000
0
LINE
8
Layer 1
10
56.000200
20
159.250000
11
55.902255
21
158.762328
0
LINE
8
Layer 1
10
55.902255
20
158.762328
11
55.634838
21
158.365125
0
LINE
8
Layer 1
10
55.634838
20
158.365125
11
55.237577
21
158.097859
0
LINE
8
Layer 1
10
55.237577
20
158.097859
11
54.750100
21
158.000000
0
LINE
8
Layer 1
10
54.750100
20
158.000000
11
54.500000
21
158.000000
0
LINE
8
Layer 1
10
54.500000
20
158.000000
11
51.749800
21
158.000000
0
LINE
8
Layer 1
10
51.749800
20
158.000000
11
48.000200
21
158.000000
0
LINE
8
Layer 1
10
48.000200
20
158.000000
11
43.500200
21
158.000000
0
LINE
8
Layer 1
10
43.500200
20
158.000000
11
17.999900
21
158.000000
0
LINE
8
Layer 1
10
17.999900
20
158.000000
11
17.219994
21
158.156688
0
LINE
8
Layer 1
10
17.219994
20
158.156688
11
16.584500
21
158.584500
0
LINE
8
Layer 1
10
16.584500
20
158.584500
11
16.156756
21
159.220062
0
LINE
8
Layer 1
10
16.156756
20
159.220062
11
16.000100
21
160.000000
0
LINE
8
Layer 1
10
16.000100
20
160.000000
11
16.000100
21
162.500000
0
LINE
8
Layer 1
10
16.000100
20
162.500000
11
16.000100
21
165.000000
0
LINE
8
Layer 1
10
16.000100
20
165.000000
11
16.000100
21
193.500000
0
LINE
8
Layer 1
10
16.000100
20
193.500000
11
16.156756
21
194.279938
0
LINE
8
Layer 1
10
16.156756
20
194.279938
11
16.584500
21
194.915500
0
LINE
8
Layer 1
10
16.584500
20
194.915500
11
17.219994
21
195.343312
0
LINE
8
Layer 1
10
17.219994
20
195.343312
11
17.999900
21
195.500000
0
LINE
8
Layer 1
10
17.999900
20
195.500000
11
17.999900
21
195.500000
0
LINE
8
Layer 1
10
11.999800
20
155.500000
11
12.573887
21
155.385877
0
LINE
8
Layer 1
10
12.573887
20
155.385877
11
13.060589
21
155.060731
0
LINE
8
Layer 1
10
13.060589
20
155.060731
11
13.385800
21
154.574071
0
LINE
8
Layer 1
10
13.385800
20
154.574071
11
13.500000
21
154.000000
0
LINE
8
Layer 1
10
13.500000
20
154.000000
11
13.385800
21
153.425929
0
LINE
8
Layer 1
10
13.385800
20
153.425929
11
13.060589
21
152.939269
0
LINE
8
Layer 1
10
13.060589
20
152.939269
11
12.573887
21
152.614123
0
LINE
8
Layer 1
10
12.573887
20
152.614123
11
11.999800
21
152.500000
0
LINE
8
Layer 1
10
11.999800
20
152.500000
11
11.416029
21
152.617964
0
LINE
8
Layer 1
10
11.416029
20
152.617964
11
10.939334
21
152.939446
0
LINE
8
Layer 1
10
10.939334
20
152.939446
11
10.617947
21
153.416205
0
LINE
8
Layer 1
10
10.617947
20
153.416205
11
10.500100
21
154.000000
0
LINE
8
Layer 1
10
10.500100
20
154.000000
11
10.617947
21
154.583795
0
LINE
8
Layer 1
10
10.617947
20
154.583795
11
10.939334
21
155.060554
0
LINE
8
Layer 1
10
10.939334
20
155.060554
11
11.416029
21
155.382036
0
LINE
8
Layer 1
10
11.416029
20
155.382036
11
11.999800
21
155.500000
0
LINE
8
Layer 1
10
11.999800
20
155.500000
11
11.999800
21
155.500000
0
LINE
8
Layer 1
10
98.000200
20
155.500000
11
98.583971
21
155.382036
0
LINE
8
Layer 1
10
98.583971
20
155.382036
11
99.060666
21
155.060554
0
LINE
8
Layer 1
10
99.060666
20
155.060554
11
99.382053
21
154.583795
0
LINE
8
Layer 1
10
99.382053
20
154.583795
11
99.499900
21
154.000000
0
LINE
8
Layer 1
10
99.499900
20
154.000000
11
99.382053
21
153.416205
0
LINE
8
Layer 1
10
99.382053
20
153.416205
11
99.060666
21
152.939446
0
LINE
8
Layer 1
10
99.060666
20
152.939446
11
98.583971
21
152.617964
0
LINE
8
Layer 1
10
98.583971
20
152.617964
11
98.000200
21
152.500000
0
LINE
8
Layer 1
10
98.000200
20
152.500000
11
97.426144
21
152.614152
0
LINE
8
Layer 1
10
97.426144
20
152.614152
11
96.939475
21
152.939304
0
LINE
8
Layer 1
10
96.939475
20
152.939304
11
96.614290
21
153.425952
0
LINE
8
Layer 1
10
96.614290
20
153.425952
11
96.500100
21
154.000000
0
LINE
8
Layer 1
10
96.500100
20
154.000000
11
96.614290
21
154.574048
0
LINE
8
Layer 1
10
96.614290
20
154.574048
11
96.939475
21
155.060696
0
LINE
8
Layer 1
10
96.939475
20
155.060696
11
97.426144
21
155.385848
0
LINE
8
Layer 1
10
97.426144
20
155.385848
11
98.000200
21
155.500000
0
LINE
8
Layer 1
10
98.000200
20
155.500000
11
98.000200
21
155.500000
 0 
ENDSEC
 0 
EOF