999
"DXF R12 Output" (www.mydxf.blogspot.com)
 0 
SECTION
 2 
HEADER
 9 
$ACADVER
 1 
AC1009
 9 
$EXTMIN
 10 
 0 
 20 
 0 
 9 
$EXTMAX
 10 
 8.5 
 20 
 11 
 0 
ENDSEC
 0 
SECTION
 2 
ENTITIES
0
LINE
8
Layer 1
10
15.000100
20
143.000000
11
13.383881
21
142.838031
0
LINE
8
Layer 1
10
13.383881
20
142.838031
11
11.880348
21
142.373250
0
LINE
8
Layer 1
10
11.880348
20
142.373250
11
10.521191
21
141.637344
0
LINE
8
Layer 1
10
10.521191
20
141.637344
11
9.338095
21
140.662000
0
LINE
8
Layer 1
10
9.338095
20
140.662000
11
8.362749
21
139.478906
0
LINE
8
Layer 1
10
8.362749
20
139.478906
11
7.626842
21
138.119750
0
LINE
8
Layer 1
10
7.626842
20
138.119750
11
7.162059
21
136.616219
0
LINE
8
Layer 1
10
7.162059
20
136.616219
11
7.000090
21
135.000000
0
LINE
8
Layer 1
10
7.000090
20
135.000000
11
7.000090
21
9.999950
0
LINE
8
Layer 1
10
7.000090
20
9.999950
11
7.162059
21
8.383752
0
LINE
8
Layer 1
10
7.162059
20
8.383752
11
7.626842
21
6.880277
0
LINE
8
Layer 1
10
7.626842
20
6.880277
11
8.362749
21
5.521199
0
LINE
8
Layer 1
10
8.362749
20
5.521199
11
9.338095
21
4.338195
0
LINE
8
Layer 1
10
9.338095
20
4.338195
11
10.521191
21
3.362941
0
LINE
8
Layer 1
10
10.521191
20
3.362941
11
11.880348
21
2.627113
0
LINE
8
Layer 1
10
11.880348
20
2.627113
11
13.383881
21
2.162388
0
LINE
8
Layer 1
10
13.383881
20
2.162388
11
15.000100
21
2.000440
0
LINE
8
Layer 1
10
15.000100
20
2.000440
11
94.999900
21
2.000440
0
LINE
8
Layer 1
10
94.999900
20
2.000440
11
96.616123
21
2.162388
0
LINE
8
Layer 1
10
96.616123
20
2.162388
11
98.119666
21
2.627113
0
LINE
8
Layer 1
10
98.119666
20
2.627113
11
99.478838
21
3.362941
0
LINE
8
Layer 1
10
99.478838
20
3.362941
11
100.661950
21
4.338195
0
LINE
8
Layer 1
10
100.661950
20
4.338195
11
101.637312
21
5.521199
0
LINE
8
Layer 1
10
101.637312
20
5.521199
11
102.373234
21
6.880277
0
LINE
8
Layer 1
10
102.373234
20
6.880277
11
102.838027
21
8.383752
0
LINE
8
Layer 1
10
102.838027
20
8.383752
11
103.000000
21
9.999950
0
LINE
8
Layer 1
10
103.000000
20
9.999950
11
103.000000
21
135.000000
0
LINE
8
Layer 1
10
103.000000
20
135.000000
11
102.838027
21
136.616219
0
LINE
8
Layer 1
10
102.838027
20
136.616219
11
102.373234
21
138.119750
0
LINE
8
Layer 1
10
102.373234
20
138.119750
11
101.637312
21
139.478906
0
LINE
8
Layer 1
10
101.637312
20
139.478906
11
100.661950
21
140.662000
0
LINE
8
Layer 1
10
100.661950
20
140.662000
11
99.478838
21
141.637344
0
LINE
8
Layer 1
10
99.478838
20
141.637344
11
98.119666
21
142.373250
0
LINE
8
Layer 1
10
98.119666
20
142.373250
11
96.616123
21
142.838031
0
LINE
8
Layer 1
10
96.616123
20
142.838031
11
94.999900
21
143.000000
0
LINE
8
Layer 1
10
94.999900
20
143.000000
11
15.000100
21
143.000000
0
LINE
8
Layer 1
10
15.000100
20
143.000000
11
15.000100
21
143.000000
0
LINE
8
Layer 1
10
11.999800
20
139.500000
11
12.573887
21
139.385877
0
LINE
8
Layer 1
10
12.573887
20
139.385877
11
13.060589
21
139.060731
0
LINE
8
Layer 1
10
13.060589
20
139.060731
11
13.385800
21
138.574071
0
LINE
8
Layer 1
10
13.385800
20
138.574071
11
13.500000
21
138.000000
0
LINE
8
Layer 1
10
13.500000
20
138.000000
11
13.385800
21
137.425929
0
LINE
8
Layer 1
10
13.385800
20
137.425929
11
13.060589
21
136.939269
0
LINE
8
Layer 1
10
13.060589
20
136.939269
11
12.573887
21
136.614123
0
LINE
8
Layer 1
10
12.573887
20
136.614123
11
11.999800
21
136.500000
0
LINE
8
Layer 1
10
11.999800
20
136.500000
11
11.416029
21
136.617964
0
LINE
8
Layer 1
10
11.416029
20
136.617964
11
10.939334
21
136.939446
0
LINE
8
Layer 1
10
10.939334
20
136.939446
11
10.617947
21
137.416205
0
LINE
8
Layer 1
10
10.617947
20
137.416205
11
10.500100
21
138.000000
0
LINE
8
Layer 1
10
10.500100
20
138.000000
11
10.617947
21
138.583795
0
LINE
8
Layer 1
10
10.617947
20
138.583795
11
10.939334
21
139.060554
0
LINE
8
Layer 1
10
10.939334
20
139.060554
11
11.416029
21
139.382036
0
LINE
8
Layer 1
10
11.416029
20
139.382036
11
11.999800
21
139.500000
0
LINE
8
Layer 1
10
11.999800
20
139.500000
11
11.999800
21
139.500000
0
LINE
8
Layer 1
10
97.999700
20
139.500000
11
98.573787
21
139.385877
0
LINE
8
Layer 1
10
98.573787
20
139.385877
11
99.060489
21
139.060731
0
LINE
8
Layer 1
10
99.060489
20
139.060731
11
99.385700
21
138.574071
0
LINE
8
Layer 1
10
99.385700
20
138.574071
11
99.499900
21
138.000000
0
LINE
8
Layer 1
10
99.499900
20
138.000000
11
99.385700
21
137.425929
0
LINE
8
Layer 1
10
99.385700
20
137.425929
11
99.060489
21
136.939269
0
LINE
8
Layer 1
10
99.060489
20
136.939269
11
98.573787
21
136.614123
0
LINE
8
Layer 1
10
98.573787
20
136.614123
11
97.999700
21
136.500000
0
LINE
8
Layer 1
10
97.999700
20
136.500000
11
97.415961
21
136.617993
0
LINE
8
Layer 1
10
97.415961
20
136.617993
11
96.939298
21
136.939481
0
LINE
8
Layer 1
10
96.939298
20
136.939481
11
96.617937
21
137.416229
0
LINE
8
Layer 1
10
96.617937
20
137.416229
11
96.500100
21
138.000000
0
LINE
8
Layer 1
10
96.500100
20
138.000000
11
96.617937
21
138.583771
0
LINE
8
Layer 1
10
96.617937
20
138.583771
11
96.939298
21
139.060519
0
LINE
8
Layer 1
10
96.939298
20
139.060519
11
97.415961
21
139.382007
0
LINE
8
Layer 1
10
97.415961
20
139.382007
11
97.999700
21
139.500000
0
LINE
8
Layer 1
10
97.999700
20
139.500000
11
97.999700
21
139.500000
0
LINE
8
Layer 1
10
11.999800
20
8.500300
11
12.573926
21
8.386160
0
LINE
8
Layer 1
10
12.573926
20
8.386160
11
13.060650
21
8.060971
0
LINE
8
Layer 1
10
13.060650
20
8.060971
11
13.385849
21
7.574254
0
LINE
8
Layer 1
10
13.385849
20
7.574254
11
13.500000
21
7.000130
0
LINE
8
Layer 1
10
13.500000
20
7.000130
11
13.385849
21
6.426006
0
LINE
8
Layer 1
10
13.385849
20
6.426006
11
13.060650
21
5.939289
0
LINE
8
Layer 1
10
13.060650
20
5.939289
11
12.573926
21
5.614100
0
LINE
8
Layer 1
10
12.573926
20
5.614100
11
11.999800
21
5.499960
0
LINE
8
Layer 1
10
11.999800
20
5.499960
11
11.415987
21
5.617941
0
LINE
8
Layer 1
10
11.415987
20
5.617941
11
10.939274
21
5.939466
0
LINE
8
Layer 1
10
10.939274
20
5.939466
11
10.617898
21
6.416280
0
LINE
8
Layer 1
10
10.617898
20
6.416280
11
10.500100
21
7.000130
0
LINE
8
Layer 1
10
10.500100
20
7.000130
11
10.617898
21
7.583980
0
LINE
8
Layer 1
10
10.617898
20
7.583980
11
10.939274
21
8.060794
0
LINE
8
Layer 1
10
10.939274
20
8.060794
11
11.415987
21
8.382319
0
LINE
8
Layer 1
10
11.415987
20
8.382319
11
11.999800
21
8.500300
0
LINE
8
Layer 1
10
11.999800
20
8.500300
11
11.999800
21
8.500300
0
LINE
8
Layer 1
10
97.999700
20
8.500300
11
98.573826
21
8.386160
0
LINE
8
Layer 1
10
98.573826
20
8.386160
11
99.060550
21
8.060971
0
LINE
8
Layer 1
10
99.060550
20
8.060971
11
99.385749
21
7.574254
0
LINE
8
Layer 1
10
99.385749
20
7.574254
11
99.499900
21
7.000130
0
LINE
8
Layer 1
10
99.499900
20
7.000130
11
99.385749
21
6.426006
0
LINE
8
Layer 1
10
99.385749
20
6.426006
11
99.060550
21
5.939289
0
LINE
8
Layer 1
10
99.060550
20
5.939289
11
98.573826
21
5.614100
0
LINE
8
Layer 1
10
98.573826
20
5.614100
11
97.999700
21
5.499960
0
LINE
8
Layer 1
10
97.999700
20
5.499960
11
97.415919
21
5.617970
0
LINE
8
Layer 1
10
97.415919
20
5.617970
11
96.939238
21
5.939501
0
LINE
8
Layer 1
10
96.939238
20
5.939501
11
96.617888
21
6.416305
0
LINE
8
Layer 1
10
96.617888
20
6.416305
11
96.500100
21
7.000130
0
LINE
8
Layer 1
10
96.500100
20
7.000130
11
96.617888
21
7.583955
0
LINE
8
Layer 1
10
96.617888
20
7.583955
11
96.939238
21
8.060759
0
LINE
8
Layer 1
10
96.939238
20
8.060759
11
97.415919
21
8.382290
0
LINE
8
Layer 1
10
97.415919
20
8.382290
11
97.999700
21
8.500300
0
LINE
8
Layer 1
10
97.999700
20
8.500300
11
97.999700
21
8.500300
 0 
ENDSEC
 0 
EOF