<?xml version="1.0" encoding="UTF-8" standalone="no"?>
<svg
   width="210mm"
   height="297mm"
   viewBox="0 0 210 297"
   version="1.1"
   id="svg7746"
   inkscape:version="1.2.2 (b0a8486, 2022-12-01)"
   sodipodi:docname="elephantkeyboard_case_layerbase.svg"
   xmlns:inkscape="http://www.inkscape.org/namespaces/inkscape"
   xmlns:sodipodi="http://sodipodi.sourceforge.net/DTD/sodipodi-0.dtd"
   xmlns="http://www.w3.org/2000/svg"
   xmlns:svg="http://www.w3.org/2000/svg"
   xmlns:rdf="http://www.w3.org/1999/02/22-rdf-syntax-ns#"
   xmlns:cc="http://creativecommons.org/ns#"
   xmlns:dc="http://purl.org/dc/elements/1.1/">
  <defs
     id="defs7740" />
  <sodipodi:namedview
     id="base"
     pagecolor="#ffffff"
     bordercolor="#666666"
     borderopacity="1.0"
     inkscape:pageopacity="0.0"
     inkscape:pageshadow="2"
     inkscape:zoom="2"
     inkscape:cx="341.5"
     inkscape:cy="842.5"
     inkscape:document-units="mm"
     inkscape:current-layer="layer1"
     inkscape:document-rotation="0"
     showgrid="true"
     inkscape:window-width="2454"
     inkscape:window-height="1274"
     inkscape:window-x="2607"
     inkscape:window-y="25"
     inkscape:window-maximized="0"
     inkscape:snap-midpoints="false"
     inkscape:showpageshadow="2"
     inkscape:pagecheckerboard="0"
     inkscape:deskcolor="#d1d1d1">
    <inkscape:grid
       type="xygrid"
       id="grid19082"
       empspacing="10"
       spacingx="0.5"
       spacingy="0.5"
       snapvisiblegridlinesonly="false" />
  </sodipodi:namedview>
  <metadata
     id="metadata7743">
    <rdf:RDF>
      <cc:Work
         rdf:about="">
        <dc:format>image/svg+xml</dc:format>
        <dc:type
           rdf:resource="http://purl.org/dc/dcmitype/StillImage" />
      </cc:Work>
    </rdf:RDF>
  </metadata>
  <g
     inkscape:label="Layer 1"
     inkscape:groupmode="layer"
     id="layer1">
    <path
       id="rect4042-6-7"
       style="fill:#ff0000;stroke-width:0;stroke-dasharray:none"
       d="M 15.000118 153.9999 C 10.568122 153.9999 7.0000895 157.56796 7.0000895 161.99993 L 7.0000895 287.00005 C 7.0000895 291.43205 10.568122 294.99956 15.000118 294.99956 L 94.999886 294.99956 C 99.431882 294.99956 102.99991 291.43205 102.99991 287.00005 L 102.99991 161.99993 C 102.99991 157.56796 99.431882 153.9999 94.999886 153.9999 L 15.000118 153.9999 z M 11.999784 157.49995 A 1.5 1.5 0 0 1 13.499951 158.9996 A 1.5 1.5 0 0 1 11.999784 160.49976 A 1.5 1.5 0 0 1 10.500134 158.9996 A 1.5 1.5 0 0 1 11.999784 157.49995 z M 97.999703 157.49995 A 1.5 1.5 0 0 1 99.49987 158.9996 A 1.5 1.5 0 0 1 97.999703 160.49976 A 1.5 1.5 0 0 1 96.500053 158.9996 A 1.5 1.5 0 0 1 97.999703 157.49995 z M 11.999784 288.4997 A 1.5 1.5 0 0 1 13.499951 289.99987 A 1.5 1.5 0 0 1 11.999784 291.50004 A 1.5 1.5 0 0 1 10.500134 289.99987 A 1.5 1.5 0 0 1 11.999784 288.4997 z M 97.999703 288.4997 A 1.5 1.5 0 0 1 99.49987 289.99987 A 1.5 1.5 0 0 1 97.999703 291.50004 A 1.5 1.5 0 0 1 96.500053 289.99987 A 1.5 1.5 0 0 1 97.999703 288.4997 z " />
  </g>
</svg>
