<?xml version="1.0"?>
<!-- Generated by SVGo -->
<svg width="91.202mm" height="110.252mm"
     viewBox="0.000 0.000 91.202 110.252"
     xmlns="http://www.w3.org/2000/svg" 
     xmlns:xlink="http://www.w3.org/1999/xlink">
<polygon points="83.702,5.001 83.898,5.008 84.093,5.031 84.285,5.070 84.474,5.123 84.658,5.191 84.836,5.273 85.008,5.369 85.171,5.478 85.325,5.599 85.469,5.733 85.603,5.877 85.724,6.031 85.833,6.194 85.929,6.366 86.011,6.544 86.079,6.728 86.132,6.917 86.171,7.109 86.194,7.304 86.202,7.501 86.202,102.752 86.194,102.948 86.171,103.143 86.132,103.335 86.079,103.524 86.011,103.708 85.929,103.886 85.833,104.058 85.724,104.221 85.603,104.375 85.469,104.519 85.325,104.653 85.171,104.774 85.008,104.883 84.836,104.979 84.658,105.061 84.474,105.129 84.285,105.182 84.093,105.221 83.898,105.244 83.701,105.252 7.501,105.252 7.304,105.244 7.109,105.221 6.917,105.182 6.728,105.129 6.544,105.061 6.366,104.979 6.194,104.883 6.031,104.774 5.877,104.653 5.733,104.519 5.599,104.375 5.478,104.221 5.369,104.058 5.273,103.886 5.191,103.708 5.123,103.524 5.070,103.335 5.031,103.143 5.008,102.948 5.000,102.752 5.001,7.501 5.008,7.304 5.031,7.109 5.070,6.917 5.123,6.728 5.191,6.544 5.273,6.366 5.369,6.194 5.478,6.031 5.599,5.877 5.733,5.733 5.877,5.599 6.031,5.478 6.194,5.369 6.366,5.273 6.544,5.191 6.728,5.123 6.917,5.070 7.109,5.031 7.304,5.008 7.501,5.000" style="fill:none;stroke-width:0.050000mm;stroke:black"/>
<polygon points="19.551,86.226 19.551,87.226 18.751,87.226 18.751,90.326 19.551,90.326 19.551,90.926 18.026,90.926 18.026,87.696 11.276,87.696 11.276,90.926 10.451,90.926 10.451,93.726 11.276,93.726 11.276,99.996 13.001,99.996 13.001,101.196 16.301,101.196 16.301,99.996 18.026,99.996 18.026,95.526 19.551,95.526 19.551,96.126 18.751,96.126 18.751,99.226 19.551,99.226 19.551,100.226 33.551,100.226 33.551,99.226 34.351,99.226 34.351,96.126 33.551,96.126 33.551,95.526 35.076,95.526 35.076,99.996 36.801,99.996 36.801,101.196 40.101,101.196 40.101,99.996 41.826,99.996 41.826,93.726 42.651,93.726 42.651,90.926 41.826,90.926 41.826,87.696 35.076,87.696 35.076,90.926 33.551,90.926 33.551,90.326 34.351,90.326 34.351,87.226 33.551,87.226 33.551,86.226" style="fill:none;stroke-width:0.050000mm;stroke:black"/>
<polygon points="48.126,86.226 48.126,87.226 47.326,87.226 47.326,90.326 48.126,90.326 48.126,96.126 47.326,96.126 47.326,99.226 48.126,99.226 48.126,100.226 62.126,100.226 62.126,99.226 62.926,99.226 62.926,96.126 62.126,96.126 62.126,90.326 62.926,90.326 62.926,87.226 62.126,87.226 62.126,86.226" style="fill:none;stroke-width:0.050000mm;stroke:black"/>
<polygon points="73.676,67.601 73.676,68.426 67.406,68.426 67.406,70.151 66.206,70.151 66.206,73.451 67.406,73.451 67.406,75.176 71.876,75.176 71.876,76.701 71.275,76.701 71.275,75.901 68.176,75.901 68.176,76.701 67.176,76.701 67.176,90.701 68.176,90.701 68.176,91.501 71.275,91.501 71.275,90.701 71.876,90.701 71.876,92.226 67.406,92.226 67.406,93.951 66.206,93.951 66.206,97.251 67.406,97.251 67.406,98.976 73.676,98.976 73.676,99.801 76.476,99.801 76.476,98.976 79.706,98.976 79.706,92.226 76.476,92.226 76.476,90.701 77.076,90.701 77.076,91.501 80.176,91.501 80.176,90.701 81.176,90.701 81.176,76.701 80.176,76.701 80.176,75.901 77.076,75.901 77.076,76.701 76.476,76.701 76.476,75.176 79.706,75.176 79.706,68.426 76.476,68.426 76.476,67.601" style="fill:none;stroke-width:0.050000mm;stroke:black"/>
<polygon points="10.025,67.176 10.025,68.176 9.225,68.176 9.225,71.276 10.025,71.276 10.025,77.076 9.225,77.076 9.225,80.176 10.025,80.176 10.025,81.176 24.026,81.176 24.026,80.176 24.826,80.176 24.826,77.076 24.026,77.076 24.026,71.276 24.826,71.276 24.826,68.176 24.026,68.176 24.026,67.176" style="fill:none;stroke-width:0.050000mm;stroke:black"/>
<polygon points="29.076,67.176 29.076,68.176 28.276,68.176 28.276,71.276 29.076,71.276 29.076,77.076 28.276,77.076 28.276,80.176 29.076,80.176 29.076,81.176 43.076,81.176 43.076,80.176 43.876,80.176 43.876,77.076 43.076,77.076 43.076,71.276 43.876,71.276 43.876,68.176 43.076,68.176 43.076,67.176" style="fill:none;stroke-width:0.050000mm;stroke:black"/>
<polygon points="48.126,67.176 48.126,68.176 47.326,68.176 47.326,71.276 48.126,71.276 48.126,77.076 47.326,77.076 47.326,80.176 48.126,80.176 48.126,81.176 62.126,81.176 62.126,80.176 62.926,80.176 62.926,77.076 62.126,77.076 62.126,71.276 62.926,71.276 62.926,68.176 62.126,68.176 62.126,67.176" style="fill:none;stroke-width:0.050000mm;stroke:black"/>
<polygon points="10.025,48.126 10.025,49.126 9.225,49.126 9.225,52.226 10.025,52.226 10.025,58.026 9.225,58.026 9.225,61.126 10.025,61.126 10.025,62.126 24.026,62.126 24.026,61.126 24.826,61.126 24.826,58.026 24.026,58.026 24.026,52.226 24.826,52.226 24.826,49.126 24.026,49.126 24.026,48.126" style="fill:none;stroke-width:0.050000mm;stroke:black"/>
<polygon points="29.076,48.126 29.076,49.126 28.276,49.126 28.276,52.226 29.076,52.226 29.076,58.026 28.276,58.026 28.276,61.126 29.076,61.126 29.076,62.126 43.076,62.126 43.076,61.126 43.876,61.126 43.876,58.026 43.076,58.026 43.076,52.226 43.876,52.226 43.876,49.126 43.076,49.126 43.076,48.126" style="fill:none;stroke-width:0.050000mm;stroke:black"/>
<polygon points="48.126,48.126 48.126,49.126 47.326,49.126 47.326,52.226 48.126,52.226 48.126,58.026 47.326,58.026 47.326,61.126 48.126,61.126 48.126,62.126 62.126,62.126 62.126,61.126 62.926,61.126 62.926,58.026 62.126,58.026 62.126,52.226 62.926,52.226 62.926,49.126 62.126,49.126 62.126,48.126" style="fill:none;stroke-width:0.050000mm;stroke:black"/>
<polygon points="73.676,29.501 73.676,30.326 67.406,30.326 67.406,32.050 66.206,32.050 66.206,35.351 67.406,35.351 67.406,37.076 71.876,37.076 71.876,38.601 71.275,38.601 71.275,37.801 68.176,37.801 68.176,38.601 67.176,38.601 67.176,52.601 68.176,52.601 68.176,53.401 71.275,53.401 71.275,52.601 71.876,52.601 71.876,54.126 67.406,54.126 67.406,55.851 66.206,55.851 66.206,59.151 67.406,59.151 67.406,60.876 73.676,60.876 73.676,61.701 76.476,61.701 76.476,60.876 79.706,60.876 79.706,54.126 76.476,54.126 76.476,52.601 77.076,52.601 77.076,53.401 80.176,53.401 80.176,52.601 81.176,52.601 81.176,38.601 80.176,38.601 80.176,37.801 77.076,37.801 77.076,38.601 76.476,38.601 76.476,37.076 79.706,37.076 79.706,30.326 76.476,30.326 76.476,29.501" style="fill:none;stroke-width:0.050000mm;stroke:black"/>
<polygon points="10.025,29.076 10.025,30.076 9.225,30.076 9.225,33.176 10.025,33.176 10.025,38.976 9.225,38.976 9.225,42.076 10.025,42.076 10.025,43.076 24.026,43.076 24.026,42.076 24.826,42.076 24.826,38.976 24.026,38.976 24.026,33.176 24.826,33.176 24.826,30.076 24.026,30.076 24.026,29.076" style="fill:none;stroke-width:0.050000mm;stroke:black"/>
<polygon points="29.076,29.076 29.076,30.076 28.276,30.076 28.276,33.176 29.076,33.176 29.076,38.976 28.276,38.976 28.276,42.076 29.076,42.076 29.076,43.076 43.076,43.076 43.076,42.076 43.876,42.076 43.876,38.976 43.076,38.976 43.076,33.176 43.876,33.176 43.876,30.076 43.076,30.076 43.076,29.076" style="fill:none;stroke-width:0.050000mm;stroke:black"/>
<polygon points="48.126,29.076 48.126,30.076 47.326,30.076 47.326,33.176 48.126,33.176 48.126,38.976 47.326,38.976 47.326,42.076 48.126,42.076 48.126,43.076 62.126,43.076 62.126,42.076 62.926,42.076 62.926,38.976 62.126,38.976 62.126,33.176 62.926,33.176 62.926,30.076 62.126,30.076 62.126,29.076" style="fill:none;stroke-width:0.050000mm;stroke:black"/>
<polygon points="10.025,10.025 10.025,11.025 9.225,11.025 9.225,14.125 10.025,14.125 10.025,19.925 9.225,19.925 9.225,23.026 10.025,23.026 10.025,24.026 24.026,24.026 24.026,23.026 24.826,23.026 24.826,19.925 24.026,19.925 24.026,14.125 24.826,14.125 24.826,11.025 24.026,11.025 24.026,10.025" style="fill:none;stroke-width:0.050000mm;stroke:black"/>
<polygon points="29.076,10.025 29.076,11.025 28.276,11.025 28.276,14.125 29.076,14.125 29.076,19.925 28.276,19.925 28.276,23.026 29.076,23.026 29.076,24.026 43.076,24.026 43.076,23.026 43.876,23.026 43.876,19.925 43.076,19.925 43.076,14.125 43.876,14.125 43.876,11.025 43.076,11.025 43.076,10.025" style="fill:none;stroke-width:0.050000mm;stroke:black"/>
<polygon points="48.126,10.025 48.126,11.025 47.326,11.025 47.326,14.125 48.126,14.125 48.126,19.925 47.326,19.925 47.326,23.026 48.126,23.026 48.126,24.026 62.126,24.026 62.126,23.026 62.926,23.026 62.926,19.925 62.126,19.925 62.126,14.125 62.926,14.125 62.926,11.025 62.126,11.025 62.126,10.025" style="fill:none;stroke-width:0.050000mm;stroke:black"/>
<polygon points="67.176,10.025 67.176,11.025 66.376,11.025 66.376,14.125 67.176,14.125 67.176,19.925 66.376,19.925 66.376,23.026 67.176,23.026 67.176,24.026 81.176,24.026 81.176,23.026 81.976,23.026 81.976,19.925 81.176,19.925 81.176,14.125 81.976,14.125 81.976,11.025 81.176,11.025 81.176,10.025" style="fill:none;stroke-width:0.050000mm;stroke:black"/>
</svg>
